<?xml version="1.0" encoding="utf-8" standalone="no"?>
<!DOCTYPE svg PUBLIC "-//W3C//DTD SVG 1.1//EN"
  "http://www.w3.org/Graphics/SVG/1.1/DTD/svg11.dtd">
<!-- Created with matplotlib (http://matplotlib.org/) -->
<svg height="266pt" version="1.1" viewBox="0 0 432 266" width="432pt" xmlns="http://www.w3.org/2000/svg" xmlns:xlink="http://www.w3.org/1999/xlink">
 <defs>
  <style type="text/css">
*{stroke-linecap:butt;stroke-linejoin:round;}
  </style>
 </defs>
 <g id="figure_1">
  <g id="patch_1">
   <path d="M 0 266.996292 
L 432 266.996292 
L 432 0 
L 0 0 
z
" style="fill:#ffffff;"/>
  </g>
  <g id="axes_1">
   <g id="patch_2">
    <path d="M 48.84375 215.915141 
L 411.12 215.915141 
L 411.12 42.619926 
L 48.84375 42.619926 
z
" style="fill:#ffffff;"/>
   </g>
   <g id="matplotlib.axis_1">
    <g id="xtick_1">
     <g id="line2d_1"/>
     <g id="text_1">
      <!-- Self taught -->
      <defs>
       <path d="M 29.203125 31.6875 
Q 17.140625 35.15625 11.640625 40.203125 
Q 6.15625 45.265625 6.15625 52.6875 
Q 6.15625 61.078125 12.859375 66.578125 
Q 19.578125 72.078125 30.328125 72.078125 
Q 37.640625 72.078125 43.375 69.234375 
Q 49.125 66.40625 52.265625 61.421875 
Q 55.421875 56.453125 55.421875 50.53125 
L 46 50.53125 
Q 46 56.984375 41.890625 60.671875 
Q 37.796875 64.359375 30.328125 64.359375 
Q 23.390625 64.359375 19.5 61.296875 
Q 15.625 58.25 15.625 52.828125 
Q 15.625 48.484375 19.3125 45.484375 
Q 23 42.484375 31.859375 39.984375 
Q 40.71875 37.5 45.71875 34.5 
Q 50.734375 31.5 53.140625 27.484375 
Q 55.5625 23.484375 55.5625 18.0625 
Q 55.5625 9.421875 48.828125 4.21875 
Q 42.09375 -0.984375 30.8125 -0.984375 
Q 23.484375 -0.984375 17.140625 1.828125 
Q 10.796875 4.640625 7.34375 9.515625 
Q 3.90625 14.40625 3.90625 20.609375 
L 13.328125 20.609375 
Q 13.328125 14.15625 18.09375 10.421875 
Q 22.859375 6.6875 30.8125 6.6875 
Q 38.234375 6.6875 42.1875 9.71875 
Q 46.140625 12.75 46.140625 17.96875 
Q 46.140625 23.1875 42.46875 26.046875 
Q 38.8125 28.90625 29.203125 31.6875 
z
" id="Roboto-Regular-53"/>
       <path d="M 28.765625 -0.984375 
Q 18.015625 -0.984375 11.28125 6.078125 
Q 4.546875 13.140625 4.546875 24.953125 
L 4.546875 26.609375 
Q 4.546875 34.46875 7.546875 40.640625 
Q 10.546875 46.828125 15.9375 50.3125 
Q 21.34375 53.8125 27.640625 53.8125 
Q 37.9375 53.8125 43.640625 47.015625 
Q 49.359375 40.234375 49.359375 27.59375 
L 49.359375 23.828125 
L 13.578125 23.828125 
Q 13.765625 16.015625 18.140625 11.203125 
Q 22.515625 6.390625 29.25 6.390625 
Q 34.03125 6.390625 37.34375 8.34375 
Q 40.671875 10.296875 43.171875 13.53125 
L 48.6875 9.234375 
Q 42.046875 -0.984375 28.765625 -0.984375 
z
M 27.640625 46.390625 
Q 22.171875 46.390625 18.453125 42.40625 
Q 14.75 38.421875 13.875 31.25 
L 40.328125 31.25 
L 40.328125 31.9375 
Q 39.9375 38.8125 36.609375 42.59375 
Q 33.296875 46.390625 27.640625 46.390625 
z
" id="Roboto-Regular-65"/>
       <path d="M 16.65625 0 
L 7.625 0 
L 7.625 75 
L 16.65625 75 
z
" id="Roboto-Regular-6c"/>
       <path d="M 11.28125 0 
L 11.28125 45.84375 
L 2.9375 45.84375 
L 2.9375 52.828125 
L 11.28125 52.828125 
L 11.28125 58.25 
Q 11.28125 66.75 15.8125 71.390625 
Q 20.359375 76.03125 28.65625 76.03125 
Q 31.78125 76.03125 34.859375 75.203125 
L 34.375 67.875 
Q 32.078125 68.3125 29.5 68.3125 
Q 25.09375 68.3125 22.703125 65.75 
Q 20.3125 63.1875 20.3125 58.40625 
L 20.3125 52.828125 
L 31.59375 52.828125 
L 31.59375 45.84375 
L 20.3125 45.84375 
L 20.3125 0 
z
" id="Roboto-Regular-66"/>
       <path id="Roboto-Regular-20"/>
       <path d="M 19.09375 65.625 
L 19.09375 52.828125 
L 28.953125 52.828125 
L 28.953125 45.84375 
L 19.09375 45.84375 
L 19.09375 13.09375 
Q 19.09375 9.90625 20.40625 8.3125 
Q 21.734375 6.734375 24.90625 6.734375 
Q 26.46875 6.734375 29.203125 7.328125 
L 29.203125 0 
Q 25.640625 -0.984375 22.265625 -0.984375 
Q 16.21875 -0.984375 13.140625 2.671875 
Q 10.0625 6.34375 10.0625 13.09375 
L 10.0625 45.84375 
L 0.4375 45.84375 
L 0.4375 52.828125 
L 10.0625 52.828125 
L 10.0625 65.625 
z
" id="Roboto-Regular-74"/>
       <path d="M 39.453125 0 
Q 38.671875 1.5625 38.1875 5.5625 
Q 31.890625 -0.984375 23.140625 -0.984375 
Q 15.328125 -0.984375 10.328125 3.4375 
Q 5.328125 7.859375 5.328125 14.65625 
Q 5.328125 22.90625 11.59375 27.46875 
Q 17.875 32.03125 29.25 32.03125 
L 38.03125 32.03125 
L 38.03125 36.1875 
Q 38.03125 40.921875 35.203125 43.71875 
Q 32.375 46.53125 26.859375 46.53125 
Q 22.015625 46.53125 18.75 44.09375 
Q 15.484375 41.65625 15.484375 38.1875 
L 6.390625 38.1875 
Q 6.390625 42.140625 9.203125 45.828125 
Q 12.015625 49.515625 16.8125 51.65625 
Q 21.625 53.8125 27.390625 53.8125 
Q 36.53125 53.8125 41.703125 49.234375 
Q 46.875 44.671875 47.078125 36.671875 
L 47.078125 12.359375 
Q 47.078125 5.078125 48.921875 0.78125 
L 48.921875 0 
z
M 24.46875 6.890625 
Q 28.71875 6.890625 32.515625 9.078125 
Q 36.328125 11.28125 38.03125 14.796875 
L 38.03125 25.640625 
L 30.953125 25.640625 
Q 14.359375 25.640625 14.359375 15.921875 
Q 14.359375 11.671875 17.1875 9.28125 
Q 20.015625 6.890625 24.46875 6.890625 
z
" id="Roboto-Regular-61"/>
       <path d="M 39.453125 5.21875 
Q 34.1875 -0.984375 23.96875 -0.984375 
Q 15.53125 -0.984375 11.109375 3.921875 
Q 6.6875 8.84375 6.640625 18.453125 
L 6.640625 52.828125 
L 15.671875 52.828125 
L 15.671875 18.703125 
Q 15.671875 6.6875 25.4375 6.6875 
Q 35.796875 6.6875 39.203125 14.40625 
L 39.203125 52.828125 
L 48.25 52.828125 
L 48.25 0 
L 39.65625 0 
z
" id="Roboto-Regular-75"/>
       <path d="M 4.6875 26.859375 
Q 4.6875 39.203125 10.390625 46.5 
Q 16.109375 53.8125 25.53125 53.8125 
Q 35.203125 53.8125 40.625 46.96875 
L 41.0625 52.828125 
L 49.3125 52.828125 
L 49.3125 1.265625 
Q 49.3125 -8.984375 43.234375 -14.890625 
Q 37.15625 -20.796875 26.90625 -20.796875 
Q 21.1875 -20.796875 15.71875 -18.359375 
Q 10.25 -15.921875 7.375 -11.671875 
L 12.0625 -6.25 
Q 17.875 -13.421875 26.265625 -13.421875 
Q 32.859375 -13.421875 36.546875 -9.703125 
Q 40.234375 -6 40.234375 0.734375 
L 40.234375 5.28125 
Q 34.8125 -0.984375 25.4375 -0.984375 
Q 16.15625 -0.984375 10.421875 6.484375 
Q 4.6875 13.96875 4.6875 26.859375 
z
M 13.765625 25.828125 
Q 13.765625 16.890625 17.421875 11.78125 
Q 21.09375 6.6875 27.6875 6.6875 
Q 36.234375 6.6875 40.234375 14.453125 
L 40.234375 38.578125 
Q 36.078125 46.140625 27.78125 46.140625 
Q 21.1875 46.140625 17.46875 41.015625 
Q 13.765625 35.890625 13.765625 25.828125 
z
" id="Roboto-Regular-67"/>
       <path d="M 15.875 46.4375 
Q 21.875 53.8125 31.5 53.8125 
Q 48.25 53.8125 48.390625 34.90625 
L 48.390625 0 
L 39.359375 0 
L 39.359375 34.96875 
Q 39.3125 40.671875 36.75 43.40625 
Q 34.1875 46.140625 28.765625 46.140625 
Q 24.359375 46.140625 21.03125 43.796875 
Q 17.71875 41.453125 15.875 37.640625 
L 15.875 0 
L 6.84375 0 
L 6.84375 75 
L 15.875 75 
z
" id="Roboto-Regular-68"/>
      </defs>
      <g style="fill:#808080;" transform="translate(85.118437 235.518266)scale(0.1 -0.1)">
       <use xlink:href="#Roboto-Regular-53"/>
       <use x="59.326172" xlink:href="#Roboto-Regular-65"/>
       <use x="112.304688" xlink:href="#Roboto-Regular-6c"/>
       <use x="136.572266" xlink:href="#Roboto-Regular-66"/>
       <use x="171.289062" xlink:href="#Roboto-Regular-20"/>
       <use x="196.044922" xlink:href="#Roboto-Regular-74"/>
       <use x="228.710938" xlink:href="#Roboto-Regular-61"/>
       <use x="283.105469" xlink:href="#Roboto-Regular-75"/>
       <use x="338.232422" xlink:href="#Roboto-Regular-67"/>
       <use x="394.335938" xlink:href="#Roboto-Regular-68"/>
       <use x="449.414062" xlink:href="#Roboto-Regular-74"/>
      </g>
     </g>
    </g>
    <g id="xtick_2">
     <g id="line2d_2"/>
     <g id="text_2">
      <!-- Formal training in -->
      <defs>
       <path d="M 47.46875 31.390625 
L 17.625 31.390625 
L 17.625 0 
L 8.25 0 
L 8.25 71.09375 
L 52.296875 71.09375 
L 52.296875 63.375 
L 17.625 63.375 
L 17.625 39.0625 
L 47.46875 39.0625 
z
" id="Roboto-Regular-46"/>
       <path d="M 4.4375 26.90625 
Q 4.4375 34.671875 7.484375 40.875 
Q 10.546875 47.078125 15.984375 50.4375 
Q 21.4375 53.8125 28.421875 53.8125 
Q 39.203125 53.8125 45.875 46.34375 
Q 52.546875 38.875 52.546875 26.46875 
L 52.546875 25.828125 
Q 52.546875 18.109375 49.578125 11.984375 
Q 46.625 5.859375 41.125 2.4375 
Q 35.640625 -0.984375 28.515625 -0.984375 
Q 17.78125 -0.984375 11.109375 6.484375 
Q 4.4375 13.96875 4.4375 26.265625 
z
M 13.53125 25.828125 
Q 13.53125 17.046875 17.609375 11.71875 
Q 21.6875 6.390625 28.515625 6.390625 
Q 35.40625 6.390625 39.453125 11.78125 
Q 43.5 17.1875 43.5 26.90625 
Q 43.5 35.59375 39.375 40.984375 
Q 35.25 46.390625 28.421875 46.390625 
Q 21.734375 46.390625 17.625 41.0625 
Q 13.53125 35.75 13.53125 25.828125 
z
" id="Roboto-Regular-6f"/>
       <path d="M 32.375 44.734375 
Q 30.328125 45.0625 27.9375 45.0625 
Q 19.046875 45.0625 15.875 37.5 
L 15.875 0 
L 6.84375 0 
L 6.84375 52.828125 
L 15.625 52.828125 
L 15.765625 46.734375 
Q 20.21875 53.8125 28.375 53.8125 
Q 31 53.8125 32.375 53.125 
z
" id="Roboto-Regular-72"/>
       <path d="M 15.328125 52.828125 
L 15.578125 46.96875 
Q 21.390625 53.8125 31.25 53.8125 
Q 42.328125 53.8125 46.34375 45.3125 
Q 48.96875 49.125 53.1875 51.46875 
Q 57.421875 53.8125 63.1875 53.8125 
Q 80.5625 53.8125 80.859375 35.40625 
L 80.859375 0 
L 71.828125 0 
L 71.828125 34.859375 
Q 71.828125 40.53125 69.234375 43.328125 
Q 66.65625 46.140625 60.546875 46.140625 
Q 55.515625 46.140625 52.1875 43.140625 
Q 48.875 40.140625 48.34375 35.0625 
L 48.34375 0 
L 39.265625 0 
L 39.265625 34.625 
Q 39.265625 46.140625 27.984375 46.140625 
Q 19.09375 46.140625 15.828125 38.578125 
L 15.828125 0 
L 6.78125 0 
L 6.78125 52.828125 
z
" id="Roboto-Regular-6d"/>
       <path d="M 16.65625 0 
L 7.625 0 
L 7.625 52.828125 
L 16.65625 52.828125 
z
M 6.890625 66.84375 
Q 6.890625 69.046875 8.234375 70.5625 
Q 9.578125 72.078125 12.203125 72.078125 
Q 14.84375 72.078125 16.203125 70.5625 
Q 17.578125 69.046875 17.578125 66.84375 
Q 17.578125 64.65625 16.203125 63.1875 
Q 14.84375 61.71875 12.203125 61.71875 
Q 9.578125 61.71875 8.234375 63.1875 
Q 6.890625 64.65625 6.890625 66.84375 
z
" id="Roboto-Regular-69"/>
       <path d="M 15.375 52.828125 
L 15.671875 46.1875 
Q 21.734375 53.8125 31.5 53.8125 
Q 48.25 53.8125 48.390625 34.90625 
L 48.390625 0 
L 39.359375 0 
L 39.359375 34.96875 
Q 39.3125 40.671875 36.75 43.40625 
Q 34.1875 46.140625 28.765625 46.140625 
Q 24.359375 46.140625 21.03125 43.796875 
Q 17.71875 41.453125 15.875 37.640625 
L 15.875 0 
L 6.84375 0 
L 6.84375 52.828125 
z
" id="Roboto-Regular-6e"/>
      </defs>
      <g style="fill:#808080;" transform="translate(191.117812 235.463578)scale(0.1 -0.1)">
       <use xlink:href="#Roboto-Regular-46"/>
       <use x="55.273438" xlink:href="#Roboto-Regular-6f"/>
       <use x="112.304688" xlink:href="#Roboto-Regular-72"/>
       <use x="146.142578" xlink:href="#Roboto-Regular-6d"/>
       <use x="233.789062" xlink:href="#Roboto-Regular-61"/>
       <use x="288.183594" xlink:href="#Roboto-Regular-6c"/>
       <use x="312.451172" xlink:href="#Roboto-Regular-20"/>
       <use x="337.207031" xlink:href="#Roboto-Regular-74"/>
       <use x="369.873047" xlink:href="#Roboto-Regular-72"/>
       <use x="403.710938" xlink:href="#Roboto-Regular-61"/>
       <use x="458.105469" xlink:href="#Roboto-Regular-69"/>
       <use x="482.373047" xlink:href="#Roboto-Regular-6e"/>
       <use x="537.548828" xlink:href="#Roboto-Regular-69"/>
       <use x="561.816406" xlink:href="#Roboto-Regular-6e"/>
       <use x="616.992188" xlink:href="#Roboto-Regular-67"/>
       <use x="673.095703" xlink:href="#Roboto-Regular-20"/>
       <use x="697.851562" xlink:href="#Roboto-Regular-69"/>
       <use x="722.119141" xlink:href="#Roboto-Regular-6e"/>
      </g>
      <!-- programming or -->
      <defs>
       <path d="M 51.46875 25.828125 
Q 51.46875 13.765625 45.953125 6.390625 
Q 40.4375 -0.984375 31 -0.984375 
Q 21.390625 -0.984375 15.875 5.125 
L 15.875 -20.3125 
L 6.84375 -20.3125 
L 6.84375 52.828125 
L 15.09375 52.828125 
L 15.53125 46.96875 
Q 21.046875 53.8125 30.859375 53.8125 
Q 40.375 53.8125 45.921875 46.625 
Q 51.46875 39.453125 51.46875 26.65625 
z
M 42.4375 26.859375 
Q 42.4375 35.796875 38.625 40.96875 
Q 34.8125 46.140625 28.171875 46.140625 
Q 19.96875 46.140625 15.875 38.875 
L 15.875 13.625 
Q 19.921875 6.390625 28.265625 6.390625 
Q 34.765625 6.390625 38.59375 11.546875 
Q 42.4375 16.703125 42.4375 26.859375 
z
" id="Roboto-Regular-70"/>
      </defs>
      <g style="fill:#808080;" transform="translate(194.092812 246.543266)scale(0.1 -0.1)">
       <use xlink:href="#Roboto-Regular-70"/>
       <use x="56.103516" xlink:href="#Roboto-Regular-72"/>
       <use x="89.941406" xlink:href="#Roboto-Regular-6f"/>
       <use x="146.972656" xlink:href="#Roboto-Regular-67"/>
       <use x="203.076172" xlink:href="#Roboto-Regular-72"/>
       <use x="236.914062" xlink:href="#Roboto-Regular-61"/>
       <use x="291.308594" xlink:href="#Roboto-Regular-6d"/>
       <use x="378.955078" xlink:href="#Roboto-Regular-6d"/>
       <use x="466.601562" xlink:href="#Roboto-Regular-69"/>
       <use x="490.869141" xlink:href="#Roboto-Regular-6e"/>
       <use x="546.044922" xlink:href="#Roboto-Regular-67"/>
       <use x="602.148438" xlink:href="#Roboto-Regular-20"/>
       <use x="626.904297" xlink:href="#Roboto-Regular-6f"/>
       <use x="683.935547" xlink:href="#Roboto-Regular-72"/>
      </g>
      <!-- software development -->
      <defs>
       <path d="M 37.59375 14.015625 
Q 37.59375 17.671875 34.828125 19.703125 
Q 32.078125 21.734375 25.21875 23.1875 
Q 18.359375 24.65625 14.328125 26.703125 
Q 10.296875 28.765625 8.375 31.59375 
Q 6.453125 34.421875 6.453125 38.328125 
Q 6.453125 44.828125 11.9375 49.3125 
Q 17.4375 53.8125 25.984375 53.8125 
Q 34.96875 53.8125 40.546875 49.171875 
Q 46.140625 44.53125 46.140625 37.3125 
L 37.0625 37.3125 
Q 37.0625 41.015625 33.90625 43.703125 
Q 30.765625 46.390625 25.984375 46.390625 
Q 21.046875 46.390625 18.265625 44.234375 
Q 15.484375 42.09375 15.484375 38.625 
Q 15.484375 35.359375 18.0625 33.6875 
Q 20.65625 32.03125 27.421875 30.515625 
Q 34.1875 29 38.375 26.90625 
Q 42.578125 24.8125 44.59375 21.84375 
Q 46.625 18.890625 46.625 14.65625 
Q 46.625 7.5625 40.953125 3.28125 
Q 35.296875 -0.984375 26.265625 -0.984375 
Q 19.921875 -0.984375 15.03125 1.265625 
Q 10.15625 3.515625 7.390625 7.546875 
Q 4.640625 11.578125 4.640625 16.265625 
L 13.671875 16.265625 
Q 13.921875 11.71875 17.3125 9.046875 
Q 20.703125 6.390625 26.265625 6.390625 
Q 31.390625 6.390625 34.484375 8.46875 
Q 37.59375 10.546875 37.59375 14.015625 
z
" id="Roboto-Regular-73"/>
       <path d="M 53.609375 12.453125 
L 63.765625 52.828125 
L 72.796875 52.828125 
L 57.421875 0 
L 50.09375 0 
L 37.25 40.046875 
L 24.75 0 
L 17.4375 0 
L 2.09375 52.828125 
L 11.078125 52.828125 
L 21.484375 13.28125 
L 33.796875 52.828125 
L 41.0625 52.828125 
z
" id="Roboto-Regular-77"/>
       <path d="M 4.640625 26.859375 
Q 4.640625 39.015625 10.390625 46.40625 
Q 16.15625 53.8125 25.484375 53.8125 
Q 34.765625 53.8125 40.1875 47.46875 
L 40.1875 75 
L 49.21875 75 
L 49.21875 0 
L 40.921875 0 
L 40.484375 5.671875 
Q 35.0625 -0.984375 25.390625 -0.984375 
Q 16.21875 -0.984375 10.421875 6.53125 
Q 4.640625 14.0625 4.640625 26.171875 
z
M 13.671875 25.828125 
Q 13.671875 16.84375 17.375 11.765625 
Q 21.09375 6.6875 27.640625 6.6875 
Q 36.234375 6.6875 40.1875 14.40625 
L 40.1875 38.671875 
Q 36.140625 46.140625 27.734375 46.140625 
Q 21.09375 46.140625 17.375 41.015625 
Q 13.671875 35.890625 13.671875 25.828125 
z
" id="Roboto-Regular-64"/>
       <path d="M 24.265625 12.25 
L 37.359375 52.828125 
L 46.578125 52.828125 
L 27.640625 0 
L 20.75 0 
L 1.609375 52.828125 
L 10.84375 52.828125 
z
" id="Roboto-Regular-76"/>
      </defs>
      <g style="fill:#808080;" transform="translate(180.293594 257.746703)scale(0.1 -0.1)">
       <use xlink:href="#Roboto-Regular-73"/>
       <use x="51.5625" xlink:href="#Roboto-Regular-6f"/>
       <use x="108.59375" xlink:href="#Roboto-Regular-66"/>
       <use x="143.310547" xlink:href="#Roboto-Regular-74"/>
       <use x="175.976562" xlink:href="#Roboto-Regular-77"/>
       <use x="251.123047" xlink:href="#Roboto-Regular-61"/>
       <use x="305.517578" xlink:href="#Roboto-Regular-72"/>
       <use x="339.355469" xlink:href="#Roboto-Regular-65"/>
       <use x="392.333984" xlink:href="#Roboto-Regular-20"/>
       <use x="417.089844" xlink:href="#Roboto-Regular-64"/>
       <use x="473.486328" xlink:href="#Roboto-Regular-65"/>
       <use x="526.464844" xlink:href="#Roboto-Regular-76"/>
       <use x="574.902344" xlink:href="#Roboto-Regular-65"/>
       <use x="627.880859" xlink:href="#Roboto-Regular-6c"/>
       <use x="652.148438" xlink:href="#Roboto-Regular-6f"/>
       <use x="709.179688" xlink:href="#Roboto-Regular-70"/>
       <use x="765.283203" xlink:href="#Roboto-Regular-6d"/>
       <use x="852.929688" xlink:href="#Roboto-Regular-65"/>
       <use x="905.908203" xlink:href="#Roboto-Regular-6e"/>
       <use x="961.083984" xlink:href="#Roboto-Regular-74"/>
      </g>
     </g>
    </g>
    <g id="xtick_3">
     <g id="line2d_3"/>
     <g id="text_3">
      <!-- Formal training in -->
      <g style="fill:#808080;" transform="translate(311.876562 235.415141)scale(0.1 -0.1)">
       <use xlink:href="#Roboto-Regular-46"/>
       <use x="55.273438" xlink:href="#Roboto-Regular-6f"/>
       <use x="112.304688" xlink:href="#Roboto-Regular-72"/>
       <use x="146.142578" xlink:href="#Roboto-Regular-6d"/>
       <use x="233.789062" xlink:href="#Roboto-Regular-61"/>
       <use x="288.183594" xlink:href="#Roboto-Regular-6c"/>
       <use x="312.451172" xlink:href="#Roboto-Regular-20"/>
       <use x="337.207031" xlink:href="#Roboto-Regular-74"/>
       <use x="369.873047" xlink:href="#Roboto-Regular-72"/>
       <use x="403.710938" xlink:href="#Roboto-Regular-61"/>
       <use x="458.105469" xlink:href="#Roboto-Regular-69"/>
       <use x="482.373047" xlink:href="#Roboto-Regular-6e"/>
       <use x="537.548828" xlink:href="#Roboto-Regular-69"/>
       <use x="561.816406" xlink:href="#Roboto-Regular-6e"/>
       <use x="616.992188" xlink:href="#Roboto-Regular-67"/>
       <use x="673.095703" xlink:href="#Roboto-Regular-20"/>
       <use x="697.851562" xlink:href="#Roboto-Regular-69"/>
       <use x="722.119141" xlink:href="#Roboto-Regular-6e"/>
      </g>
      <!-- software engineering -->
      <g style="fill:#808080;" transform="translate(303.932812 246.618578)scale(0.1 -0.1)">
       <use xlink:href="#Roboto-Regular-73"/>
       <use x="51.5625" xlink:href="#Roboto-Regular-6f"/>
       <use x="108.59375" xlink:href="#Roboto-Regular-66"/>
       <use x="143.310547" xlink:href="#Roboto-Regular-74"/>
       <use x="175.976562" xlink:href="#Roboto-Regular-77"/>
       <use x="251.123047" xlink:href="#Roboto-Regular-61"/>
       <use x="305.517578" xlink:href="#Roboto-Regular-72"/>
       <use x="339.355469" xlink:href="#Roboto-Regular-65"/>
       <use x="392.333984" xlink:href="#Roboto-Regular-20"/>
       <use x="417.089844" xlink:href="#Roboto-Regular-65"/>
       <use x="470.068359" xlink:href="#Roboto-Regular-6e"/>
       <use x="525.244141" xlink:href="#Roboto-Regular-67"/>
       <use x="581.347656" xlink:href="#Roboto-Regular-69"/>
       <use x="605.615234" xlink:href="#Roboto-Regular-6e"/>
       <use x="660.791016" xlink:href="#Roboto-Regular-65"/>
       <use x="713.769531" xlink:href="#Roboto-Regular-65"/>
       <use x="766.748047" xlink:href="#Roboto-Regular-72"/>
       <use x="800.585938" xlink:href="#Roboto-Regular-69"/>
       <use x="824.853516" xlink:href="#Roboto-Regular-6e"/>
       <use x="880.029297" xlink:href="#Roboto-Regular-67"/>
      </g>
     </g>
    </g>
   </g>
   <g id="matplotlib.axis_2">
    <g id="ytick_1">
     <g id="line2d_4">
      <path clip-path="url(#p8e11efc75a)" d="M 48.84375 215.915141 
L 411.12 215.915141 
" style="fill:none;stroke:#bfbfbf;stroke-linecap:square;stroke-width:0.75;"/>
     </g>
     <g id="line2d_5"/>
     <g id="text_4">
      <!-- 0% -->
      <defs>
       <path d="M 50.484375 30.328125 
Q 50.484375 14.453125 45.0625 6.734375 
Q 39.65625 -0.984375 28.125 -0.984375 
Q 16.75 -0.984375 11.28125 6.5625 
Q 5.8125 14.109375 5.609375 29.109375 
L 5.609375 41.15625 
Q 5.609375 56.84375 11.03125 64.453125 
Q 16.453125 72.078125 28.03125 72.078125 
Q 39.5 72.078125 44.921875 64.71875 
Q 50.34375 57.375 50.484375 42.046875 
z
M 41.453125 42.671875 
Q 41.453125 54.15625 38.234375 59.40625 
Q 35.015625 64.65625 28.03125 64.65625 
Q 21.09375 64.65625 17.921875 59.421875 
Q 14.75 54.203125 14.65625 43.359375 
L 14.65625 28.90625 
Q 14.65625 17.390625 18 11.890625 
Q 21.34375 6.390625 28.125 6.390625 
Q 34.8125 6.390625 38.0625 11.5625 
Q 41.3125 16.75 41.453125 27.875 
z
" id="Roboto-Regular-30"/>
       <path d="M 5.125 57.421875 
Q 5.125 63.8125 9.203125 67.96875 
Q 13.28125 72.125 19.671875 72.125 
Q 26.171875 72.125 30.203125 67.9375 
Q 34.234375 63.765625 34.234375 57.125 
L 34.234375 53.65625 
Q 34.234375 47.21875 30.15625 43.140625 
Q 26.078125 39.0625 19.78125 39.0625 
Q 13.421875 39.0625 9.265625 43.140625 
Q 5.125 47.21875 5.125 54 
z
M 11.859375 53.65625 
Q 11.859375 49.859375 14 47.390625 
Q 16.15625 44.921875 19.78125 44.921875 
Q 23.25 44.921875 25.359375 47.3125 
Q 27.484375 49.703125 27.484375 53.859375 
L 27.484375 57.421875 
Q 27.484375 61.234375 25.390625 63.71875 
Q 23.296875 66.21875 19.671875 66.21875 
Q 16.0625 66.21875 13.953125 63.71875 
Q 11.859375 61.234375 11.859375 57.234375 
z
M 39.75 17.4375 
Q 39.75 23.828125 43.828125 27.953125 
Q 47.90625 32.078125 54.296875 32.078125 
Q 60.6875 32.078125 64.78125 27.96875 
Q 68.890625 23.875 68.890625 17.09375 
L 68.890625 13.625 
Q 68.890625 7.234375 64.8125 3.09375 
Q 60.75 -1.03125 54.390625 -1.03125 
Q 48.046875 -1.03125 43.890625 3.046875 
Q 39.75 7.125 39.75 13.921875 
z
M 46.484375 13.625 
Q 46.484375 9.765625 48.625 7.296875 
Q 50.78125 4.828125 54.390625 4.828125 
Q 57.90625 4.828125 60 7.25 
Q 62.109375 9.671875 62.109375 13.8125 
L 62.109375 17.4375 
Q 62.109375 21.296875 59.984375 23.734375 
Q 57.859375 26.171875 54.296875 26.171875 
Q 50.828125 26.171875 48.65625 23.75 
Q 46.484375 21.34375 46.484375 17.234375 
z
M 21.828125 5.375 
L 16.703125 8.59375 
L 51.421875 64.15625 
L 56.546875 60.9375 
z
" id="Roboto-Regular-25"/>
      </defs>
      <g style="fill:#808080;" transform="translate(23.903125 219.665141)scale(0.1 -0.1)">
       <use xlink:href="#Roboto-Regular-30"/>
       <use x="56.152344" xlink:href="#Roboto-Regular-25"/>
      </g>
     </g>
    </g>
    <g id="ytick_2">
     <g id="line2d_6">
      <path clip-path="url(#p8e11efc75a)" d="M 48.84375 198.585619 
L 411.12 198.585619 
" style="fill:none;stroke:#bfbfbf;stroke-linecap:square;stroke-width:0.75;"/>
     </g>
     <g id="line2d_7"/>
     <g id="text_5">
      <!-- 10% -->
      <defs>
       <path d="M 35.59375 0 
L 26.515625 0 
L 26.515625 60.203125 
L 8.296875 53.515625 
L 8.296875 61.71875 
L 34.1875 71.4375 
L 35.59375 71.4375 
z
" id="Roboto-Regular-31"/>
      </defs>
      <g style="fill:#808080;" transform="translate(18.2875 202.335619)scale(0.1 -0.1)">
       <use xlink:href="#Roboto-Regular-31"/>
       <use x="56.152344" xlink:href="#Roboto-Regular-30"/>
       <use x="112.304688" xlink:href="#Roboto-Regular-25"/>
      </g>
     </g>
    </g>
    <g id="ytick_3">
     <g id="line2d_8">
      <path clip-path="url(#p8e11efc75a)" d="M 48.84375 181.256098 
L 411.12 181.256098 
" style="fill:none;stroke:#bfbfbf;stroke-linecap:square;stroke-width:0.75;"/>
     </g>
     <g id="line2d_9"/>
     <g id="text_6">
      <!-- 20% -->
      <defs>
       <path d="M 52.484375 0 
L 5.90625 0 
L 5.90625 6.5 
L 30.515625 33.84375 
Q 35.984375 40.046875 38.0625 43.921875 
Q 40.140625 47.796875 40.140625 51.953125 
Q 40.140625 57.515625 36.765625 61.078125 
Q 33.40625 64.65625 27.78125 64.65625 
Q 21.046875 64.65625 17.3125 60.8125 
Q 13.578125 56.984375 13.578125 50.140625 
L 4.546875 50.140625 
Q 4.546875 59.96875 10.859375 66.015625 
Q 17.1875 72.078125 27.78125 72.078125 
Q 37.703125 72.078125 43.453125 66.875 
Q 49.21875 61.671875 49.21875 53.03125 
Q 49.21875 42.53125 35.84375 28.03125 
L 16.796875 7.375 
L 52.484375 7.375 
z
" id="Roboto-Regular-32"/>
      </defs>
      <g style="fill:#808080;" transform="translate(18.2875 185.006098)scale(0.1 -0.1)">
       <use xlink:href="#Roboto-Regular-32"/>
       <use x="56.152344" xlink:href="#Roboto-Regular-30"/>
       <use x="112.304688" xlink:href="#Roboto-Regular-25"/>
      </g>
     </g>
    </g>
    <g id="ytick_4">
     <g id="line2d_10">
      <path clip-path="url(#p8e11efc75a)" d="M 48.84375 163.926576 
L 411.12 163.926576 
" style="fill:none;stroke:#bfbfbf;stroke-linecap:square;stroke-width:0.75;"/>
     </g>
     <g id="line2d_11"/>
     <g id="text_7">
      <!-- 30% -->
      <defs>
       <path d="M 19.046875 39.9375 
L 25.828125 39.9375 
Q 32.234375 40.046875 35.890625 43.3125 
Q 39.546875 46.578125 39.546875 52.15625 
Q 39.546875 64.65625 27.09375 64.65625 
Q 21.234375 64.65625 17.75 61.296875 
Q 14.265625 57.953125 14.265625 52.4375 
L 5.21875 52.4375 
Q 5.21875 60.890625 11.390625 66.484375 
Q 17.578125 72.078125 27.09375 72.078125 
Q 37.15625 72.078125 42.859375 66.75 
Q 48.578125 61.421875 48.578125 51.953125 
Q 48.578125 47.3125 45.578125 42.96875 
Q 42.578125 38.625 37.40625 36.46875 
Q 43.265625 34.625 46.453125 30.328125 
Q 49.65625 26.03125 49.65625 19.828125 
Q 49.65625 10.25 43.40625 4.625 
Q 37.15625 -0.984375 27.140625 -0.984375 
Q 17.140625 -0.984375 10.859375 4.4375 
Q 4.59375 9.859375 4.59375 18.75 
L 13.671875 18.75 
Q 13.671875 13.140625 17.328125 9.765625 
Q 21 6.390625 27.15625 6.390625 
Q 33.6875 6.390625 37.15625 9.8125 
Q 40.625 13.234375 40.625 19.625 
Q 40.625 25.828125 36.8125 29.140625 
Q 33.015625 32.46875 25.828125 32.5625 
L 19.046875 32.5625 
z
" id="Roboto-Regular-33"/>
      </defs>
      <g style="fill:#808080;" transform="translate(18.2875 167.676576)scale(0.1 -0.1)">
       <use xlink:href="#Roboto-Regular-33"/>
       <use x="56.152344" xlink:href="#Roboto-Regular-30"/>
       <use x="112.304688" xlink:href="#Roboto-Regular-25"/>
      </g>
     </g>
    </g>
    <g id="ytick_5">
     <g id="line2d_12">
      <path clip-path="url(#p8e11efc75a)" d="M 48.84375 146.597055 
L 411.12 146.597055 
" style="fill:none;stroke:#bfbfbf;stroke-linecap:square;stroke-width:0.75;"/>
     </g>
     <g id="line2d_13"/>
     <g id="text_8">
      <!-- 40% -->
      <defs>
       <path d="M 44.046875 23.875 
L 53.90625 23.875 
L 53.90625 16.5 
L 44.046875 16.5 
L 44.046875 0 
L 34.96875 0 
L 34.96875 16.5 
L 2.59375 16.5 
L 2.59375 21.828125 
L 34.421875 71.09375 
L 44.046875 71.09375 
z
M 12.84375 23.875 
L 34.96875 23.875 
L 34.96875 58.734375 
L 33.890625 56.78125 
z
" id="Roboto-Regular-34"/>
      </defs>
      <g style="fill:#808080;" transform="translate(18.2875 150.347055)scale(0.1 -0.1)">
       <use xlink:href="#Roboto-Regular-34"/>
       <use x="56.152344" xlink:href="#Roboto-Regular-30"/>
       <use x="112.304688" xlink:href="#Roboto-Regular-25"/>
      </g>
     </g>
    </g>
    <g id="ytick_6">
     <g id="line2d_14">
      <path clip-path="url(#p8e11efc75a)" d="M 48.84375 129.267533 
L 411.12 129.267533 
" style="fill:none;stroke:#bfbfbf;stroke-linecap:square;stroke-width:0.75;"/>
     </g>
     <g id="line2d_15"/>
     <g id="text_9">
      <!-- 50% -->
      <defs>
       <path d="M 10.0625 35.640625 
L 13.671875 71.09375 
L 50.09375 71.09375 
L 50.09375 62.75 
L 21.34375 62.75 
L 19.1875 43.359375 
Q 24.421875 46.4375 31.0625 46.4375 
Q 40.765625 46.4375 46.484375 40.015625 
Q 52.203125 33.59375 52.203125 22.65625 
Q 52.203125 11.671875 46.265625 5.34375 
Q 40.328125 -0.984375 29.6875 -0.984375 
Q 20.265625 -0.984375 14.296875 4.234375 
Q 8.34375 9.46875 7.515625 18.703125 
L 16.0625 18.703125 
Q 16.890625 12.59375 20.40625 9.484375 
Q 23.921875 6.390625 29.6875 6.390625 
Q 35.984375 6.390625 39.578125 10.6875 
Q 43.171875 14.984375 43.171875 22.5625 
Q 43.171875 29.6875 39.28125 34 
Q 35.40625 38.328125 28.953125 38.328125 
Q 23.046875 38.328125 19.671875 35.75 
L 17.28125 33.796875 
z
" id="Roboto-Regular-35"/>
      </defs>
      <g style="fill:#808080;" transform="translate(18.2875 133.017533)scale(0.1 -0.1)">
       <use xlink:href="#Roboto-Regular-35"/>
       <use x="56.152344" xlink:href="#Roboto-Regular-30"/>
       <use x="112.304688" xlink:href="#Roboto-Regular-25"/>
      </g>
     </g>
    </g>
    <g id="ytick_7">
     <g id="line2d_16">
      <path clip-path="url(#p8e11efc75a)" d="M 48.84375 111.938012 
L 411.12 111.938012 
" style="fill:none;stroke:#bfbfbf;stroke-linecap:square;stroke-width:0.75;"/>
     </g>
     <g id="line2d_17"/>
     <g id="text_10">
      <!-- 60% -->
      <defs>
       <path d="M 41.359375 71.140625 
L 41.359375 63.484375 
L 39.703125 63.484375 
Q 29.15625 63.28125 22.90625 57.21875 
Q 16.65625 51.171875 15.671875 40.1875 
Q 21.296875 46.625 31 46.625 
Q 40.28125 46.625 45.828125 40.078125 
Q 51.375 33.546875 51.375 23.1875 
Q 51.375 12.203125 45.390625 5.609375 
Q 39.40625 -0.984375 29.34375 -0.984375 
Q 19.140625 -0.984375 12.796875 6.859375 
Q 6.453125 14.703125 6.453125 27.046875 
L 6.453125 30.515625 
Q 6.453125 50.140625 14.8125 60.515625 
Q 23.1875 70.90625 39.75 71.140625 
z
M 29.5 39.109375 
Q 24.859375 39.109375 20.953125 36.328125 
Q 17.046875 33.546875 15.53125 29.34375 
L 15.53125 26.03125 
Q 15.53125 17.234375 19.484375 11.859375 
Q 23.4375 6.5 29.34375 6.5 
Q 35.453125 6.5 38.9375 10.984375 
Q 42.4375 15.484375 42.4375 22.75 
Q 42.4375 30.078125 38.890625 34.59375 
Q 35.359375 39.109375 29.5 39.109375 
z
" id="Roboto-Regular-36"/>
      </defs>
      <g style="fill:#808080;" transform="translate(18.2875 115.688012)scale(0.1 -0.1)">
       <use xlink:href="#Roboto-Regular-36"/>
       <use x="56.152344" xlink:href="#Roboto-Regular-30"/>
       <use x="112.304688" xlink:href="#Roboto-Regular-25"/>
      </g>
     </g>
    </g>
    <g id="ytick_8">
     <g id="line2d_18">
      <path clip-path="url(#p8e11efc75a)" d="M 48.84375 94.60849 
L 411.12 94.60849 
" style="fill:none;stroke:#bfbfbf;stroke-linecap:square;stroke-width:0.75;"/>
     </g>
     <g id="line2d_19"/>
     <g id="text_11">
      <!-- 70% -->
      <defs>
       <path d="M 51.8125 66.015625 
L 22.359375 0 
L 12.890625 0 
L 42.234375 63.671875 
L 3.765625 63.671875 
L 3.765625 71.09375 
L 51.8125 71.09375 
z
" id="Roboto-Regular-37"/>
      </defs>
      <g style="fill:#808080;" transform="translate(18.2875 98.35849)scale(0.1 -0.1)">
       <use xlink:href="#Roboto-Regular-37"/>
       <use x="56.152344" xlink:href="#Roboto-Regular-30"/>
       <use x="112.304688" xlink:href="#Roboto-Regular-25"/>
      </g>
     </g>
    </g>
    <g id="ytick_9">
     <g id="line2d_20">
      <path clip-path="url(#p8e11efc75a)" d="M 48.84375 77.278969 
L 411.12 77.278969 
" style="fill:none;stroke:#bfbfbf;stroke-linecap:square;stroke-width:0.75;"/>
     </g>
     <g id="line2d_21"/>
     <g id="text_12">
      <!-- 80% -->
      <defs>
       <path d="M 49.03125 52.546875 
Q 49.03125 47.21875 46.21875 43.0625 
Q 43.40625 38.921875 38.625 36.578125 
Q 44.1875 34.1875 47.4375 29.59375 
Q 50.6875 25 50.6875 19.1875 
Q 50.6875 9.96875 44.453125 4.484375 
Q 38.234375 -0.984375 28.078125 -0.984375 
Q 17.828125 -0.984375 11.640625 4.515625 
Q 5.46875 10.015625 5.46875 19.1875 
Q 5.46875 24.953125 8.609375 29.59375 
Q 11.765625 34.234375 17.328125 36.625 
Q 12.59375 38.96875 9.859375 43.109375 
Q 7.125 47.265625 7.125 52.546875 
Q 7.125 61.53125 12.890625 66.796875 
Q 18.65625 72.078125 28.078125 72.078125 
Q 37.453125 72.078125 43.234375 66.796875 
Q 49.03125 61.53125 49.03125 52.546875 
z
M 41.65625 19.390625 
Q 41.65625 25.34375 37.859375 29.09375 
Q 34.078125 32.859375 27.96875 32.859375 
Q 21.875 32.859375 18.1875 29.140625 
Q 14.5 25.4375 14.5 19.375 
Q 14.5 13.328125 18.09375 9.859375 
Q 21.6875 6.390625 28.078125 6.390625 
Q 34.421875 6.390625 38.03125 9.875 
Q 41.65625 13.375 41.65625 19.390625 
z
M 28.078125 64.65625 
Q 22.75 64.65625 19.453125 61.359375 
Q 16.15625 58.0625 16.15625 52.390625 
Q 16.15625 46.96875 19.40625 43.625 
Q 22.65625 40.28125 28.078125 40.28125 
Q 33.5 40.28125 36.734375 43.625 
Q 39.984375 46.96875 39.984375 52.390625 
Q 39.984375 57.8125 36.609375 61.234375 
Q 33.25 64.65625 28.078125 64.65625 
z
" id="Roboto-Regular-38"/>
      </defs>
      <g style="fill:#808080;" transform="translate(18.2875 81.028969)scale(0.1 -0.1)">
       <use xlink:href="#Roboto-Regular-38"/>
       <use x="56.152344" xlink:href="#Roboto-Regular-30"/>
       <use x="112.304688" xlink:href="#Roboto-Regular-25"/>
      </g>
     </g>
    </g>
    <g id="ytick_10">
     <g id="line2d_22">
      <path clip-path="url(#p8e11efc75a)" d="M 48.84375 59.949447 
L 411.12 59.949447 
" style="fill:none;stroke:#bfbfbf;stroke-linecap:square;stroke-width:0.75;"/>
     </g>
     <g id="line2d_23"/>
     <g id="text_13">
      <!-- 90% -->
      <defs>
       <path d="M 40.53125 31.25 
Q 37.703125 27.875 33.765625 25.828125 
Q 29.828125 23.78125 25.140625 23.78125 
Q 19 23.78125 14.421875 26.796875 
Q 9.859375 29.828125 7.375 35.328125 
Q 4.890625 40.828125 4.890625 47.46875 
Q 4.890625 54.59375 7.59375 60.296875 
Q 10.296875 66.015625 15.28125 69.046875 
Q 20.265625 72.078125 26.90625 72.078125 
Q 37.453125 72.078125 43.53125 64.1875 
Q 49.609375 56.296875 49.609375 42.671875 
L 49.609375 40.046875 
Q 49.609375 19.28125 41.40625 9.734375 
Q 33.203125 0.203125 16.65625 -0.046875 
L 14.890625 -0.046875 
L 14.890625 7.5625 
L 16.796875 7.5625 
Q 27.984375 7.765625 33.984375 13.40625 
Q 39.984375 19.046875 40.53125 31.25 
z
M 26.609375 31.25 
Q 31.15625 31.25 34.984375 34.03125 
Q 38.8125 36.8125 40.578125 40.921875 
L 40.578125 44.53125 
Q 40.578125 53.421875 36.71875 58.984375 
Q 32.859375 64.546875 26.953125 64.546875 
Q 21 64.546875 17.375 59.984375 
Q 13.765625 55.421875 13.765625 47.953125 
Q 13.765625 40.671875 17.25 35.953125 
Q 20.75 31.25 26.609375 31.25 
z
" id="Roboto-Regular-39"/>
      </defs>
      <g style="fill:#808080;" transform="translate(18.2875 63.699447)scale(0.1 -0.1)">
       <use xlink:href="#Roboto-Regular-39"/>
       <use x="56.152344" xlink:href="#Roboto-Regular-30"/>
       <use x="112.304688" xlink:href="#Roboto-Regular-25"/>
      </g>
     </g>
    </g>
    <g id="ytick_11">
     <g id="line2d_24">
      <path clip-path="url(#p8e11efc75a)" d="M 48.84375 42.619926 
L 411.12 42.619926 
" style="fill:none;stroke:#bfbfbf;stroke-linecap:square;stroke-width:0.75;"/>
     </g>
     <g id="line2d_25"/>
     <g id="text_14">
      <!-- 100% -->
      <g style="fill:#808080;" transform="translate(12.671875 46.369926)scale(0.1 -0.1)">
       <use xlink:href="#Roboto-Regular-31"/>
       <use x="56.152344" xlink:href="#Roboto-Regular-30"/>
       <use x="112.304688" xlink:href="#Roboto-Regular-30"/>
       <use x="168.457031" xlink:href="#Roboto-Regular-25"/>
      </g>
     </g>
    </g>
   </g>
   <g id="patch_3">
    <path clip-path="url(#p8e11efc75a)" d="M 79.033437 215.915141 
L 139.412812 215.915141 
L 139.412812 94.883562 
L 79.033437 94.883562 
z
" style="fill:#0072bd;"/>
   </g>
   <g id="patch_4">
    <path clip-path="url(#p8e11efc75a)" d="M 199.792187 215.915141 
L 260.171562 215.915141 
L 260.171562 177.405093 
L 199.792187 177.405093 
z
" style="fill:#0072bd;"/>
   </g>
   <g id="patch_5">
    <path clip-path="url(#p8e11efc75a)" d="M 320.550937 215.915141 
L 380.930312 215.915141 
L 380.930312 202.161552 
L 320.550937 202.161552 
z
" style="fill:#0072bd;"/>
   </g>
   <g id="patch_6">
    <path d="M 48.84375 215.915141 
L 411.12 215.915141 
" style="fill:none;stroke:#bfbfbf;stroke-linecap:square;stroke-linejoin:miter;stroke-width:1.5;"/>
   </g>
   <g id="text_15">
    <!--   -->
    <g transform="translate(48.84375 22.619926)scale(0.12 -0.12)">
     <use xlink:href="#Roboto-Regular-20"/>
    </g>
   </g>
   <g id="LineCollection_1">
    <path clip-path="url(#p8e11efc75a)" d="M 109.223125 105.648831 
L 109.223125 86.106719 
" style="fill:none;stroke:#ffffff;stroke-width:2;"/>
    <path clip-path="url(#p8e11efc75a)" d="M 229.981875 185.653993 
L 229.981875 167.99151 
" style="fill:none;stroke:#ffffff;stroke-width:2;"/>
    <path clip-path="url(#p8e11efc75a)" d="M 350.740625 206.920006 
L 350.740625 195.294859 
" style="fill:none;stroke:#ffffff;stroke-width:2;"/>
   </g>
   <g id="line2d_26">
    <defs>
     <path d="M 2.5 0 
L -2.5 -0 
" id="mfd9903d720" style="stroke:#ffffff;stroke-width:2;"/>
    </defs>
    <g clip-path="url(#p8e11efc75a)">
     <use style="fill:#ffffff;stroke:#ffffff;stroke-width:2;" x="109.223125" xlink:href="#mfd9903d720" y="105.648831"/>
     <use style="fill:#ffffff;stroke:#ffffff;stroke-width:2;" x="229.981875" xlink:href="#mfd9903d720" y="185.653993"/>
     <use style="fill:#ffffff;stroke:#ffffff;stroke-width:2;" x="350.740625" xlink:href="#mfd9903d720" y="206.920006"/>
    </g>
   </g>
   <g id="line2d_27">
    <g clip-path="url(#p8e11efc75a)">
     <use style="fill:#ffffff;stroke:#ffffff;stroke-width:2;" x="109.223125" xlink:href="#mfd9903d720" y="86.106719"/>
     <use style="fill:#ffffff;stroke:#ffffff;stroke-width:2;" x="229.981875" xlink:href="#mfd9903d720" y="167.99151"/>
     <use style="fill:#ffffff;stroke:#ffffff;stroke-width:2;" x="350.740625" xlink:href="#mfd9903d720" y="195.294859"/>
    </g>
   </g>
   <g id="LineCollection_2">
    <path clip-path="url(#p8e11efc75a)" d="M 109.223125 105.648831 
L 109.223125 86.106719 
" style="fill:none;stroke:#808080;"/>
    <path clip-path="url(#p8e11efc75a)" d="M 229.981875 185.653993 
L 229.981875 167.99151 
" style="fill:none;stroke:#808080;"/>
    <path clip-path="url(#p8e11efc75a)" d="M 350.740625 206.920006 
L 350.740625 195.294859 
" style="fill:none;stroke:#808080;"/>
   </g>
   <g id="line2d_28">
    <defs>
     <path d="M 2 0 
L -2 -0 
" id="m1e30102db8" style="stroke:#808080;"/>
    </defs>
    <g clip-path="url(#p8e11efc75a)">
     <use style="fill:#808080;stroke:#808080;" x="109.223125" xlink:href="#m1e30102db8" y="105.648831"/>
     <use style="fill:#808080;stroke:#808080;" x="229.981875" xlink:href="#m1e30102db8" y="185.653993"/>
     <use style="fill:#808080;stroke:#808080;" x="350.740625" xlink:href="#m1e30102db8" y="206.920006"/>
    </g>
   </g>
   <g id="line2d_29">
    <g clip-path="url(#p8e11efc75a)">
     <use style="fill:#808080;stroke:#808080;" x="109.223125" xlink:href="#m1e30102db8" y="86.106719"/>
     <use style="fill:#808080;stroke:#808080;" x="229.981875" xlink:href="#m1e30102db8" y="167.99151"/>
     <use style="fill:#808080;stroke:#808080;" x="350.740625" xlink:href="#m1e30102db8" y="195.294859"/>
    </g>
   </g>
  </g>
  <g id="text_16">
   <!-- How do developers obtain the skills they need?  (N=252) -->
   <defs>
    <path d="M 62.890625 0 
L 53.46875 0 
L 53.46875 32.859375 
L 17.625 32.859375 
L 17.625 0 
L 8.25 0 
L 8.25 71.09375 
L 17.625 71.09375 
L 17.625 40.53125 
L 53.46875 40.53125 
L 53.46875 71.09375 
L 62.890625 71.09375 
z
" id="Roboto-Regular-48"/>
    <path d="M 51.5625 25.828125 
Q 51.5625 13.71875 46 6.359375 
Q 40.4375 -0.984375 31.0625 -0.984375 
Q 21.046875 -0.984375 15.578125 6.109375 
L 15.140625 0 
L 6.84375 0 
L 6.84375 75 
L 15.875 75 
L 15.875 47.015625 
Q 21.34375 53.8125 30.953125 53.8125 
Q 40.578125 53.8125 46.0625 46.53125 
Q 51.5625 39.265625 51.5625 26.609375 
z
M 42.53125 26.859375 
Q 42.53125 36.078125 38.96875 41.109375 
Q 35.40625 46.140625 28.71875 46.140625 
Q 19.78125 46.140625 15.875 37.84375 
L 15.875 14.984375 
Q 20.015625 6.6875 28.8125 6.6875 
Q 35.296875 6.6875 38.90625 11.71875 
Q 42.53125 16.75 42.53125 26.859375 
z
" id="Roboto-Regular-62"/>
    <path d="M 21.578125 24.46875 
L 15.921875 18.5625 
L 15.921875 0 
L 6.890625 0 
L 6.890625 75 
L 15.921875 75 
L 15.921875 29.640625 
L 20.75 35.453125 
L 37.203125 52.828125 
L 48.1875 52.828125 
L 27.640625 30.765625 
L 50.59375 0 
L 39.984375 0 
z
" id="Roboto-Regular-6b"/>
    <path d="M 24.125 13.234375 
L 36.421875 52.828125 
L 46.09375 52.828125 
L 24.859375 -8.15625 
Q 19.921875 -21.34375 9.1875 -21.34375 
L 7.46875 -21.1875 
L 4.109375 -20.5625 
L 4.109375 -13.234375 
L 6.546875 -13.421875 
Q 11.140625 -13.421875 13.703125 -11.5625 
Q 16.265625 -9.71875 17.921875 -4.78125 
L 19.921875 0.59375 
L 1.078125 52.828125 
L 10.9375 52.828125 
z
" id="Roboto-Regular-79"/>
    <path d="M 17.4375 20.015625 
Q 17.53125 25.828125 18.75 29.1875 
Q 19.96875 32.5625 23.734375 36.671875 
L 30.125 43.265625 
Q 34.234375 47.90625 34.234375 53.21875 
Q 34.234375 58.34375 31.546875 61.25 
Q 28.859375 64.15625 23.734375 64.15625 
Q 18.75 64.15625 15.71875 61.515625 
Q 12.703125 58.890625 12.703125 54.4375 
L 3.65625 54.4375 
Q 3.765625 62.359375 9.296875 67.21875 
Q 14.84375 72.078125 23.734375 72.078125 
Q 32.953125 72.078125 38.109375 67.109375 
Q 43.265625 62.15625 43.265625 53.515625 
Q 43.265625 44.96875 35.359375 36.671875 
L 30.03125 31.390625 
Q 26.46875 27.4375 26.46875 20.015625 
z
M 17.046875 4.546875 
Q 17.046875 6.734375 18.390625 8.21875 
Q 19.734375 9.71875 22.359375 9.71875 
Q 25 9.71875 26.359375 8.21875 
Q 27.734375 6.734375 27.734375 4.53125 
Q 27.734375 2.34375 26.359375 0.90625 
Q 25 -0.53125 22.359375 -0.53125 
Q 19.734375 -0.53125 18.390625 0.90625 
Q 17.046875 2.34375 17.046875 4.546875 
z
" id="Roboto-Regular-3f"/>
    <path d="M 6.5 28.859375 
Q 6.5 39.890625 9.453125 50.046875 
Q 12.40625 60.203125 18.265625 68.5 
Q 24.125 76.8125 30.421875 80.21875 
L 32.28125 74.265625 
Q 25.140625 68.796875 20.578125 57.5625 
Q 16.015625 46.34375 15.578125 32.421875 
L 15.53125 28.265625 
Q 15.53125 9.421875 22.40625 -4.4375 
Q 26.5625 -12.75 32.28125 -17.4375 
L 30.421875 -22.953125 
Q 23.921875 -19.34375 18.015625 -10.84375 
Q 6.5 5.765625 6.5 28.859375 
z
" id="Roboto-Regular-28"/>
    <path d="M 62.890625 0 
L 53.46875 0 
L 17.671875 54.78125 
L 17.671875 0 
L 8.25 0 
L 8.25 71.09375 
L 17.671875 71.09375 
L 53.5625 16.0625 
L 53.5625 71.09375 
L 62.890625 71.09375 
z
" id="Roboto-Regular-4e"/>
    <path d="M 48.140625 39.75 
L 7.421875 39.75 
L 7.421875 47.609375 
L 48.140625 47.609375 
z
M 48.140625 19.484375 
L 7.421875 19.484375 
L 7.421875 27.296875 
L 48.140625 27.296875 
z
" id="Roboto-Regular-3d"/>
    <path d="M 27.6875 28.375 
Q 27.6875 17.484375 24.828125 7.5 
Q 21.96875 -2.484375 16.078125 -10.9375 
Q 10.203125 -19.390625 3.765625 -22.953125 
L 1.859375 -17.4375 
Q 9.375 -11.671875 13.9375 0.453125 
Q 18.5 12.59375 18.609375 27.390625 
L 18.609375 28.953125 
Q 18.609375 39.203125 16.453125 48.015625 
Q 14.3125 56.84375 10.46875 63.8125 
Q 6.640625 70.796875 1.859375 74.703125 
L 3.765625 80.21875 
Q 10.203125 76.65625 16.03125 68.3125 
Q 21.875 59.96875 24.78125 49.90625 
Q 27.6875 39.84375 27.6875 28.375 
z
" id="Roboto-Regular-29"/>
   </defs>
   <g style="fill:#808080;" transform="translate(12.96 20.306102)scale(0.12 -0.12)">
    <use xlink:href="#Roboto-Regular-48"/>
    <use x="71.289062" xlink:href="#Roboto-Regular-6f"/>
    <use x="128.320312" xlink:href="#Roboto-Regular-77"/>
    <use x="203.466797" xlink:href="#Roboto-Regular-20"/>
    <use x="228.222656" xlink:href="#Roboto-Regular-64"/>
    <use x="284.619141" xlink:href="#Roboto-Regular-6f"/>
    <use x="341.650391" xlink:href="#Roboto-Regular-20"/>
    <use x="366.40625" xlink:href="#Roboto-Regular-64"/>
    <use x="422.802734" xlink:href="#Roboto-Regular-65"/>
    <use x="475.78125" xlink:href="#Roboto-Regular-76"/>
    <use x="524.21875" xlink:href="#Roboto-Regular-65"/>
    <use x="577.197266" xlink:href="#Roboto-Regular-6c"/>
    <use x="601.464844" xlink:href="#Roboto-Regular-6f"/>
    <use x="658.496094" xlink:href="#Roboto-Regular-70"/>
    <use x="714.599609" xlink:href="#Roboto-Regular-65"/>
    <use x="767.578125" xlink:href="#Roboto-Regular-72"/>
    <use x="801.416016" xlink:href="#Roboto-Regular-73"/>
    <use x="852.978516" xlink:href="#Roboto-Regular-20"/>
    <use x="877.734375" xlink:href="#Roboto-Regular-6f"/>
    <use x="934.765625" xlink:href="#Roboto-Regular-62"/>
    <use x="990.869141" xlink:href="#Roboto-Regular-74"/>
    <use x="1023.535156" xlink:href="#Roboto-Regular-61"/>
    <use x="1077.929688" xlink:href="#Roboto-Regular-69"/>
    <use x="1102.197266" xlink:href="#Roboto-Regular-6e"/>
    <use x="1157.373047" xlink:href="#Roboto-Regular-20"/>
    <use x="1182.128906" xlink:href="#Roboto-Regular-74"/>
    <use x="1214.794922" xlink:href="#Roboto-Regular-68"/>
    <use x="1269.873047" xlink:href="#Roboto-Regular-65"/>
    <use x="1322.851562" xlink:href="#Roboto-Regular-20"/>
    <use x="1347.607422" xlink:href="#Roboto-Regular-73"/>
    <use x="1399.169922" xlink:href="#Roboto-Regular-6b"/>
    <use x="1449.853516" xlink:href="#Roboto-Regular-69"/>
    <use x="1474.121094" xlink:href="#Roboto-Regular-6c"/>
    <use x="1498.388672" xlink:href="#Roboto-Regular-6c"/>
    <use x="1522.65625" xlink:href="#Roboto-Regular-73"/>
    <use x="1574.21875" xlink:href="#Roboto-Regular-20"/>
    <use x="1598.974609" xlink:href="#Roboto-Regular-74"/>
    <use x="1631.640625" xlink:href="#Roboto-Regular-68"/>
    <use x="1686.71875" xlink:href="#Roboto-Regular-65"/>
    <use x="1739.697266" xlink:href="#Roboto-Regular-79"/>
    <use x="1787.011719" xlink:href="#Roboto-Regular-20"/>
    <use x="1811.767578" xlink:href="#Roboto-Regular-6e"/>
    <use x="1866.943359" xlink:href="#Roboto-Regular-65"/>
    <use x="1919.921875" xlink:href="#Roboto-Regular-65"/>
    <use x="1972.900391" xlink:href="#Roboto-Regular-64"/>
    <use x="2029.296875" xlink:href="#Roboto-Regular-3f"/>
    <use x="2076.513672" xlink:href="#Roboto-Regular-20"/>
    <use x="2101.269531" xlink:href="#Roboto-Regular-20"/>
    <use x="2126.025391" xlink:href="#Roboto-Regular-28"/>
    <use x="2160.205078" xlink:href="#Roboto-Regular-4e"/>
    <use x="2231.494141" xlink:href="#Roboto-Regular-3d"/>
    <use x="2286.376953" xlink:href="#Roboto-Regular-32"/>
    <use x="2342.529297" xlink:href="#Roboto-Regular-35"/>
    <use x="2398.681641" xlink:href="#Roboto-Regular-32"/>
    <use x="2454.833984" xlink:href="#Roboto-Regular-29"/>
   </g>
  </g>
 </g>
 <defs>
  <clipPath id="p8e11efc75a">
   <rect height="173.295215" width="362.27625" x="48.84375" y="42.619926"/>
  </clipPath>
 </defs>
</svg>
