<?xml version="1.0" encoding="utf-8" standalone="no"?>
<!DOCTYPE svg PUBLIC "-//W3C//DTD SVG 1.1//EN"
  "http://www.w3.org/Graphics/SVG/1.1/DTD/svg11.dtd">
<!-- Created with matplotlib (http://matplotlib.org/) -->
<svg height="266pt" version="1.1" viewBox="0 0 432 266" width="432pt" xmlns="http://www.w3.org/2000/svg" xmlns:xlink="http://www.w3.org/1999/xlink">
 <defs>
  <style type="text/css">
*{stroke-linecap:butt;stroke-linejoin:round;}
  </style>
 </defs>
 <g id="figure_1">
  <g id="patch_1">
   <path d="M 0 266.996292 
L 432 266.996292 
L 432 0 
L 0 0 
z
" style="fill:#ffffff;"/>
  </g>
  <g id="axes_1">
   <g id="patch_2">
    <path d="M 39.5265 201.546826 
L 411.12 201.546826 
L 411.12 42.619926 
L 39.5265 42.619926 
z
" style="fill:#ffffff;"/>
   </g>
   <g id="matplotlib.axis_1">
    <g id="xtick_1">
     <g id="line2d_1"/>
     <g id="text_1">
      <!-- Pathology -->
      <defs>
       <path d="M 17.625 27.828125 
L 17.625 0 
L 8.25 0 
L 8.25 71.09375 
L 34.46875 71.09375 
Q 46.140625 71.09375 52.75 65.140625 
Q 59.375 59.1875 59.375 49.359375 
Q 59.375 39.015625 52.90625 33.421875 
Q 46.4375 27.828125 34.375 27.828125 
z
M 17.625 35.5 
L 34.46875 35.5 
Q 42 35.5 46 39.03125 
Q 50 42.578125 50 49.265625 
Q 50 55.609375 46 59.421875 
Q 42 63.234375 35.015625 63.375 
L 17.625 63.375 
z
" id="Roboto-Regular-50"/>
       <path d="M 39.453125 0 
Q 38.671875 1.5625 38.1875 5.5625 
Q 31.890625 -0.984375 23.140625 -0.984375 
Q 15.328125 -0.984375 10.328125 3.4375 
Q 5.328125 7.859375 5.328125 14.65625 
Q 5.328125 22.90625 11.59375 27.46875 
Q 17.875 32.03125 29.25 32.03125 
L 38.03125 32.03125 
L 38.03125 36.1875 
Q 38.03125 40.921875 35.203125 43.71875 
Q 32.375 46.53125 26.859375 46.53125 
Q 22.015625 46.53125 18.75 44.09375 
Q 15.484375 41.65625 15.484375 38.1875 
L 6.390625 38.1875 
Q 6.390625 42.140625 9.203125 45.828125 
Q 12.015625 49.515625 16.8125 51.65625 
Q 21.625 53.8125 27.390625 53.8125 
Q 36.53125 53.8125 41.703125 49.234375 
Q 46.875 44.671875 47.078125 36.671875 
L 47.078125 12.359375 
Q 47.078125 5.078125 48.921875 0.78125 
L 48.921875 0 
z
M 24.46875 6.890625 
Q 28.71875 6.890625 32.515625 9.078125 
Q 36.328125 11.28125 38.03125 14.796875 
L 38.03125 25.640625 
L 30.953125 25.640625 
Q 14.359375 25.640625 14.359375 15.921875 
Q 14.359375 11.671875 17.1875 9.28125 
Q 20.015625 6.890625 24.46875 6.890625 
z
" id="Roboto-Regular-61"/>
       <path d="M 19.09375 65.625 
L 19.09375 52.828125 
L 28.953125 52.828125 
L 28.953125 45.84375 
L 19.09375 45.84375 
L 19.09375 13.09375 
Q 19.09375 9.90625 20.40625 8.3125 
Q 21.734375 6.734375 24.90625 6.734375 
Q 26.46875 6.734375 29.203125 7.328125 
L 29.203125 0 
Q 25.640625 -0.984375 22.265625 -0.984375 
Q 16.21875 -0.984375 13.140625 2.671875 
Q 10.0625 6.34375 10.0625 13.09375 
L 10.0625 45.84375 
L 0.4375 45.84375 
L 0.4375 52.828125 
L 10.0625 52.828125 
L 10.0625 65.625 
z
" id="Roboto-Regular-74"/>
       <path d="M 15.875 46.4375 
Q 21.875 53.8125 31.5 53.8125 
Q 48.25 53.8125 48.390625 34.90625 
L 48.390625 0 
L 39.359375 0 
L 39.359375 34.96875 
Q 39.3125 40.671875 36.75 43.40625 
Q 34.1875 46.140625 28.765625 46.140625 
Q 24.359375 46.140625 21.03125 43.796875 
Q 17.71875 41.453125 15.875 37.640625 
L 15.875 0 
L 6.84375 0 
L 6.84375 75 
L 15.875 75 
z
" id="Roboto-Regular-68"/>
       <path d="M 4.4375 26.90625 
Q 4.4375 34.671875 7.484375 40.875 
Q 10.546875 47.078125 15.984375 50.4375 
Q 21.4375 53.8125 28.421875 53.8125 
Q 39.203125 53.8125 45.875 46.34375 
Q 52.546875 38.875 52.546875 26.46875 
L 52.546875 25.828125 
Q 52.546875 18.109375 49.578125 11.984375 
Q 46.625 5.859375 41.125 2.4375 
Q 35.640625 -0.984375 28.515625 -0.984375 
Q 17.78125 -0.984375 11.109375 6.484375 
Q 4.4375 13.96875 4.4375 26.265625 
z
M 13.53125 25.828125 
Q 13.53125 17.046875 17.609375 11.71875 
Q 21.6875 6.390625 28.515625 6.390625 
Q 35.40625 6.390625 39.453125 11.78125 
Q 43.5 17.1875 43.5 26.90625 
Q 43.5 35.59375 39.375 40.984375 
Q 35.25 46.390625 28.421875 46.390625 
Q 21.734375 46.390625 17.625 41.0625 
Q 13.53125 35.75 13.53125 25.828125 
z
" id="Roboto-Regular-6f"/>
       <path d="M 16.65625 0 
L 7.625 0 
L 7.625 75 
L 16.65625 75 
z
" id="Roboto-Regular-6c"/>
       <path d="M 4.6875 26.859375 
Q 4.6875 39.203125 10.390625 46.5 
Q 16.109375 53.8125 25.53125 53.8125 
Q 35.203125 53.8125 40.625 46.96875 
L 41.0625 52.828125 
L 49.3125 52.828125 
L 49.3125 1.265625 
Q 49.3125 -8.984375 43.234375 -14.890625 
Q 37.15625 -20.796875 26.90625 -20.796875 
Q 21.1875 -20.796875 15.71875 -18.359375 
Q 10.25 -15.921875 7.375 -11.671875 
L 12.0625 -6.25 
Q 17.875 -13.421875 26.265625 -13.421875 
Q 32.859375 -13.421875 36.546875 -9.703125 
Q 40.234375 -6 40.234375 0.734375 
L 40.234375 5.28125 
Q 34.8125 -0.984375 25.4375 -0.984375 
Q 16.15625 -0.984375 10.421875 6.484375 
Q 4.6875 13.96875 4.6875 26.859375 
z
M 13.765625 25.828125 
Q 13.765625 16.890625 17.421875 11.78125 
Q 21.09375 6.6875 27.6875 6.6875 
Q 36.234375 6.6875 40.234375 14.453125 
L 40.234375 38.578125 
Q 36.078125 46.140625 27.78125 46.140625 
Q 21.1875 46.140625 17.46875 41.015625 
Q 13.765625 35.890625 13.765625 25.828125 
z
" id="Roboto-Regular-67"/>
       <path d="M 24.125 13.234375 
L 36.421875 52.828125 
L 46.09375 52.828125 
L 24.859375 -8.15625 
Q 19.921875 -21.34375 9.1875 -21.34375 
L 7.46875 -21.1875 
L 4.109375 -20.5625 
L 4.109375 -13.234375 
L 6.546875 -13.421875 
Q 11.140625 -13.421875 13.703125 -11.5625 
Q 16.265625 -9.71875 17.921875 -4.78125 
L 19.921875 0.59375 
L 1.078125 52.828125 
L 10.9375 52.828125 
z
" id="Roboto-Regular-79"/>
      </defs>
      <g style="fill:#808080;" transform="translate(16.058613 249.274233)rotate(-42.5)scale(0.1 -0.1)">
       <use xlink:href="#Roboto-Regular-50"/>
       <use x="63.085938" xlink:href="#Roboto-Regular-61"/>
       <use x="117.480469" xlink:href="#Roboto-Regular-74"/>
       <use x="150.146484" xlink:href="#Roboto-Regular-68"/>
       <use x="205.224609" xlink:href="#Roboto-Regular-6f"/>
       <use x="262.255859" xlink:href="#Roboto-Regular-6c"/>
       <use x="286.523438" xlink:href="#Roboto-Regular-6f"/>
       <use x="343.554688" xlink:href="#Roboto-Regular-67"/>
       <use x="399.658203" xlink:href="#Roboto-Regular-79"/>
      </g>
     </g>
    </g>
    <g id="xtick_2">
     <g id="line2d_2"/>
     <g id="text_2">
      <!-- Biochemistry -->
      <defs>
       <path d="M 8.25 0 
L 8.25 71.09375 
L 31.5 71.09375 
Q 43.0625 71.09375 48.890625 66.3125 
Q 54.734375 61.53125 54.734375 52.15625 
Q 54.734375 47.171875 51.90625 43.328125 
Q 49.078125 39.5 44.1875 37.40625 
Q 49.953125 35.796875 53.296875 31.28125 
Q 56.640625 26.765625 56.640625 20.515625 
Q 56.640625 10.9375 50.4375 5.46875 
Q 44.234375 0 32.90625 0 
z
M 17.625 33.25 
L 17.625 7.671875 
L 33.109375 7.671875 
Q 39.65625 7.671875 43.4375 11.0625 
Q 47.21875 14.453125 47.21875 20.40625 
Q 47.21875 33.25 33.25 33.25 
z
M 17.625 40.765625 
L 31.78125 40.765625 
Q 37.9375 40.765625 41.625 43.84375 
Q 45.3125 46.921875 45.3125 52.203125 
Q 45.3125 58.0625 41.890625 60.71875 
Q 38.484375 63.375 31.5 63.375 
L 17.625 63.375 
z
" id="Roboto-Regular-42"/>
       <path d="M 16.65625 0 
L 7.625 0 
L 7.625 52.828125 
L 16.65625 52.828125 
z
M 6.890625 66.84375 
Q 6.890625 69.046875 8.234375 70.5625 
Q 9.578125 72.078125 12.203125 72.078125 
Q 14.84375 72.078125 16.203125 70.5625 
Q 17.578125 69.046875 17.578125 66.84375 
Q 17.578125 64.65625 16.203125 63.1875 
Q 14.84375 61.71875 12.203125 61.71875 
Q 9.578125 61.71875 8.234375 63.1875 
Q 6.890625 64.65625 6.890625 66.84375 
z
" id="Roboto-Regular-69"/>
       <path d="M 28.03125 6.390625 
Q 32.859375 6.390625 36.46875 9.3125 
Q 40.09375 12.25 40.484375 16.65625 
L 49.03125 16.65625 
Q 48.78125 12.109375 45.890625 8 
Q 43.015625 3.90625 38.203125 1.453125 
Q 33.40625 -0.984375 28.03125 -0.984375 
Q 17.234375 -0.984375 10.859375 6.21875 
Q 4.5 13.421875 4.5 25.921875 
L 4.5 27.4375 
Q 4.5 35.15625 7.328125 41.15625 
Q 10.15625 47.171875 15.453125 50.484375 
Q 20.75 53.8125 27.984375 53.8125 
Q 36.859375 53.8125 42.75 48.484375 
Q 48.640625 43.171875 49.03125 34.671875 
L 40.484375 34.671875 
Q 40.09375 39.796875 36.59375 43.09375 
Q 33.109375 46.390625 27.984375 46.390625 
Q 21.09375 46.390625 17.3125 41.421875 
Q 13.53125 36.46875 13.53125 27.09375 
L 13.53125 25.390625 
Q 13.53125 16.265625 17.28125 11.328125 
Q 21.046875 6.390625 28.03125 6.390625 
z
" id="Roboto-Regular-63"/>
       <path d="M 28.765625 -0.984375 
Q 18.015625 -0.984375 11.28125 6.078125 
Q 4.546875 13.140625 4.546875 24.953125 
L 4.546875 26.609375 
Q 4.546875 34.46875 7.546875 40.640625 
Q 10.546875 46.828125 15.9375 50.3125 
Q 21.34375 53.8125 27.640625 53.8125 
Q 37.9375 53.8125 43.640625 47.015625 
Q 49.359375 40.234375 49.359375 27.59375 
L 49.359375 23.828125 
L 13.578125 23.828125 
Q 13.765625 16.015625 18.140625 11.203125 
Q 22.515625 6.390625 29.25 6.390625 
Q 34.03125 6.390625 37.34375 8.34375 
Q 40.671875 10.296875 43.171875 13.53125 
L 48.6875 9.234375 
Q 42.046875 -0.984375 28.765625 -0.984375 
z
M 27.640625 46.390625 
Q 22.171875 46.390625 18.453125 42.40625 
Q 14.75 38.421875 13.875 31.25 
L 40.328125 31.25 
L 40.328125 31.9375 
Q 39.9375 38.8125 36.609375 42.59375 
Q 33.296875 46.390625 27.640625 46.390625 
z
" id="Roboto-Regular-65"/>
       <path d="M 15.328125 52.828125 
L 15.578125 46.96875 
Q 21.390625 53.8125 31.25 53.8125 
Q 42.328125 53.8125 46.34375 45.3125 
Q 48.96875 49.125 53.1875 51.46875 
Q 57.421875 53.8125 63.1875 53.8125 
Q 80.5625 53.8125 80.859375 35.40625 
L 80.859375 0 
L 71.828125 0 
L 71.828125 34.859375 
Q 71.828125 40.53125 69.234375 43.328125 
Q 66.65625 46.140625 60.546875 46.140625 
Q 55.515625 46.140625 52.1875 43.140625 
Q 48.875 40.140625 48.34375 35.0625 
L 48.34375 0 
L 39.265625 0 
L 39.265625 34.625 
Q 39.265625 46.140625 27.984375 46.140625 
Q 19.09375 46.140625 15.828125 38.578125 
L 15.828125 0 
L 6.78125 0 
L 6.78125 52.828125 
z
" id="Roboto-Regular-6d"/>
       <path d="M 37.59375 14.015625 
Q 37.59375 17.671875 34.828125 19.703125 
Q 32.078125 21.734375 25.21875 23.1875 
Q 18.359375 24.65625 14.328125 26.703125 
Q 10.296875 28.765625 8.375 31.59375 
Q 6.453125 34.421875 6.453125 38.328125 
Q 6.453125 44.828125 11.9375 49.3125 
Q 17.4375 53.8125 25.984375 53.8125 
Q 34.96875 53.8125 40.546875 49.171875 
Q 46.140625 44.53125 46.140625 37.3125 
L 37.0625 37.3125 
Q 37.0625 41.015625 33.90625 43.703125 
Q 30.765625 46.390625 25.984375 46.390625 
Q 21.046875 46.390625 18.265625 44.234375 
Q 15.484375 42.09375 15.484375 38.625 
Q 15.484375 35.359375 18.0625 33.6875 
Q 20.65625 32.03125 27.421875 30.515625 
Q 34.1875 29 38.375 26.90625 
Q 42.578125 24.8125 44.59375 21.84375 
Q 46.625 18.890625 46.625 14.65625 
Q 46.625 7.5625 40.953125 3.28125 
Q 35.296875 -0.984375 26.265625 -0.984375 
Q 19.921875 -0.984375 15.03125 1.265625 
Q 10.15625 3.515625 7.390625 7.546875 
Q 4.640625 11.578125 4.640625 16.265625 
L 13.671875 16.265625 
Q 13.921875 11.71875 17.3125 9.046875 
Q 20.703125 6.390625 26.265625 6.390625 
Q 31.390625 6.390625 34.484375 8.46875 
Q 37.59375 10.546875 37.59375 14.015625 
z
" id="Roboto-Regular-73"/>
       <path d="M 32.375 44.734375 
Q 30.328125 45.0625 27.9375 45.0625 
Q 19.046875 45.0625 15.875 37.5 
L 15.875 0 
L 6.84375 0 
L 6.84375 52.828125 
L 15.625 52.828125 
L 15.765625 46.734375 
Q 20.21875 53.8125 28.375 53.8125 
Q 31 53.8125 32.375 53.125 
z
" id="Roboto-Regular-72"/>
      </defs>
      <g style="fill:#808080;" transform="translate(28.017954 258.345087)rotate(-42.5)scale(0.1 -0.1)">
       <use xlink:href="#Roboto-Regular-42"/>
       <use x="62.255859" xlink:href="#Roboto-Regular-69"/>
       <use x="86.523438" xlink:href="#Roboto-Regular-6f"/>
       <use x="143.554688" xlink:href="#Roboto-Regular-63"/>
       <use x="195.898438" xlink:href="#Roboto-Regular-68"/>
       <use x="250.976562" xlink:href="#Roboto-Regular-65"/>
       <use x="303.955078" xlink:href="#Roboto-Regular-6d"/>
       <use x="391.601562" xlink:href="#Roboto-Regular-69"/>
       <use x="415.869141" xlink:href="#Roboto-Regular-73"/>
       <use x="467.431641" xlink:href="#Roboto-Regular-74"/>
       <use x="500.097656" xlink:href="#Roboto-Regular-72"/>
       <use x="533.935547" xlink:href="#Roboto-Regular-79"/>
      </g>
     </g>
    </g>
    <g id="xtick_3">
     <g id="line2d_3"/>
     <g id="text_3">
      <!-- Clinical Med -->
      <defs>
       <path d="M 60.546875 22.5625 
Q 59.234375 11.28125 52.21875 5.140625 
Q 45.21875 -0.984375 33.59375 -0.984375 
Q 21 -0.984375 13.40625 8.046875 
Q 5.8125 17.09375 5.8125 32.234375 
L 5.8125 39.0625 
Q 5.8125 48.96875 9.34375 56.484375 
Q 12.890625 64.015625 19.375 68.046875 
Q 25.875 72.078125 34.421875 72.078125 
Q 45.75 72.078125 52.578125 65.75 
Q 59.421875 59.421875 60.546875 48.25 
L 51.125 48.25 
Q 49.90625 56.734375 45.828125 60.546875 
Q 41.75 64.359375 34.421875 64.359375 
Q 25.4375 64.359375 20.328125 57.71875 
Q 15.234375 51.078125 15.234375 38.8125 
L 15.234375 31.9375 
Q 15.234375 20.359375 20.0625 13.515625 
Q 24.90625 6.6875 33.59375 6.6875 
Q 41.40625 6.6875 45.578125 10.21875 
Q 49.75 13.765625 51.125 22.5625 
z
" id="Roboto-Regular-43"/>
       <path d="M 15.375 52.828125 
L 15.671875 46.1875 
Q 21.734375 53.8125 31.5 53.8125 
Q 48.25 53.8125 48.390625 34.90625 
L 48.390625 0 
L 39.359375 0 
L 39.359375 34.96875 
Q 39.3125 40.671875 36.75 43.40625 
Q 34.1875 46.140625 28.765625 46.140625 
Q 24.359375 46.140625 21.03125 43.796875 
Q 17.71875 41.453125 15.875 37.640625 
L 15.875 0 
L 6.84375 0 
L 6.84375 52.828125 
z
" id="Roboto-Regular-6e"/>
       <path id="Roboto-Regular-20"/>
       <path d="M 20.359375 71.09375 
L 43.609375 13.09375 
L 66.84375 71.09375 
L 79 71.09375 
L 79 0 
L 69.625 0 
L 69.625 27.6875 
L 70.515625 57.5625 
L 47.171875 0 
L 39.984375 0 
L 16.703125 57.421875 
L 17.625 27.6875 
L 17.625 0 
L 8.25 0 
L 8.25 71.09375 
z
" id="Roboto-Regular-4d"/>
       <path d="M 4.640625 26.859375 
Q 4.640625 39.015625 10.390625 46.40625 
Q 16.15625 53.8125 25.484375 53.8125 
Q 34.765625 53.8125 40.1875 47.46875 
L 40.1875 75 
L 49.21875 75 
L 49.21875 0 
L 40.921875 0 
L 40.484375 5.671875 
Q 35.0625 -0.984375 25.390625 -0.984375 
Q 16.21875 -0.984375 10.421875 6.53125 
Q 4.640625 14.0625 4.640625 26.171875 
z
M 13.671875 25.828125 
Q 13.671875 16.84375 17.375 11.765625 
Q 21.09375 6.6875 27.640625 6.6875 
Q 36.234375 6.6875 40.1875 14.40625 
L 40.1875 38.671875 
Q 36.140625 46.140625 27.734375 46.140625 
Q 21.09375 46.140625 17.375 41.015625 
Q 13.671875 35.890625 13.671875 25.828125 
z
" id="Roboto-Regular-64"/>
      </defs>
      <g style="fill:#808080;" transform="translate(52.581832 255.929852)rotate(-42.5)scale(0.1 -0.1)">
       <use xlink:href="#Roboto-Regular-43"/>
       <use x="65.087891" xlink:href="#Roboto-Regular-6c"/>
       <use x="89.355469" xlink:href="#Roboto-Regular-69"/>
       <use x="113.623047" xlink:href="#Roboto-Regular-6e"/>
       <use x="168.798828" xlink:href="#Roboto-Regular-69"/>
       <use x="193.066406" xlink:href="#Roboto-Regular-63"/>
       <use x="245.410156" xlink:href="#Roboto-Regular-61"/>
       <use x="299.804688" xlink:href="#Roboto-Regular-6c"/>
       <use x="324.072266" xlink:href="#Roboto-Regular-20"/>
       <use x="348.828125" xlink:href="#Roboto-Regular-4d"/>
       <use x="436.132812" xlink:href="#Roboto-Regular-65"/>
       <use x="489.111328" xlink:href="#Roboto-Regular-64"/>
      </g>
     </g>
    </g>
    <g id="xtick_4">
     <g id="line2d_4"/>
     <g id="text_4">
      <!-- NDCN -->
      <defs>
       <path d="M 62.890625 0 
L 53.46875 0 
L 17.671875 54.78125 
L 17.671875 0 
L 8.25 0 
L 8.25 71.09375 
L 17.671875 71.09375 
L 53.5625 16.0625 
L 53.5625 71.09375 
L 62.890625 71.09375 
z
" id="Roboto-Regular-4e"/>
       <path d="M 8.25 0 
L 8.25 71.09375 
L 28.328125 71.09375 
Q 37.59375 71.09375 44.71875 66.984375 
Q 51.859375 62.890625 55.734375 55.3125 
Q 59.625 47.75 59.671875 37.9375 
L 59.671875 33.40625 
Q 59.671875 23.34375 55.78125 15.765625 
Q 51.90625 8.203125 44.703125 4.140625 
Q 37.5 0.09375 27.9375 0 
z
M 17.625 63.375 
L 17.625 7.671875 
L 27.484375 7.671875 
Q 38.328125 7.671875 44.359375 14.40625 
Q 50.390625 21.140625 50.390625 33.59375 
L 50.390625 37.75 
Q 50.390625 49.859375 44.703125 56.5625 
Q 39.015625 63.28125 28.5625 63.375 
z
" id="Roboto-Regular-44"/>
      </defs>
      <g style="fill:#808080;" transform="translate(94.511496 237.537964)rotate(-42.5)scale(0.1 -0.1)">
       <use xlink:href="#Roboto-Regular-4e"/>
       <use x="71.289062" xlink:href="#Roboto-Regular-44"/>
       <use x="136.865234" xlink:href="#Roboto-Regular-43"/>
       <use x="201.953125" xlink:href="#Roboto-Regular-4e"/>
      </g>
     </g>
    </g>
    <g id="xtick_5">
     <g id="line2d_5"/>
     <g id="text_5">
      <!-- Oncology -->
      <defs>
       <path d="M 62.9375 33.25 
Q 62.9375 22.796875 59.421875 15.015625 
Q 55.90625 7.234375 49.453125 3.125 
Q 43.015625 -0.984375 34.421875 -0.984375 
Q 26.03125 -0.984375 19.53125 3.140625 
Q 13.03125 7.28125 9.4375 14.921875 
Q 5.859375 22.5625 5.765625 32.625 
L 5.765625 37.75 
Q 5.765625 48 9.328125 55.859375 
Q 12.890625 63.71875 19.40625 67.890625 
Q 25.921875 72.078125 34.328125 72.078125 
Q 42.875 72.078125 49.390625 67.9375 
Q 55.90625 63.8125 59.421875 55.96875 
Q 62.9375 48.140625 62.9375 37.75 
z
M 53.609375 37.84375 
Q 53.609375 50.484375 48.53125 57.25 
Q 43.453125 64.015625 34.328125 64.015625 
Q 25.4375 64.015625 20.328125 57.25 
Q 15.234375 50.484375 15.09375 38.484375 
L 15.09375 33.25 
Q 15.09375 21 20.234375 13.984375 
Q 25.390625 6.984375 34.421875 6.984375 
Q 43.5 6.984375 48.484375 13.59375 
Q 53.46875 20.21875 53.609375 32.5625 
z
" id="Roboto-Regular-4f"/>
      </defs>
      <g style="fill:#808080;" transform="translate(105.628178 247.317132)rotate(-42.5)scale(0.1 -0.1)">
       <use xlink:href="#Roboto-Regular-4f"/>
       <use x="68.75" xlink:href="#Roboto-Regular-6e"/>
       <use x="123.925781" xlink:href="#Roboto-Regular-63"/>
       <use x="176.269531" xlink:href="#Roboto-Regular-6f"/>
       <use x="233.300781" xlink:href="#Roboto-Regular-6c"/>
       <use x="257.568359" xlink:href="#Roboto-Regular-6f"/>
       <use x="314.599609" xlink:href="#Roboto-Regular-67"/>
       <use x="370.703125" xlink:href="#Roboto-Regular-79"/>
      </g>
     </g>
    </g>
    <g id="xtick_6">
     <g id="line2d_6"/>
     <g id="text_6">
      <!-- NDORMS -->
      <defs>
       <path d="M 34.328125 28.765625 
L 17.625 28.765625 
L 17.625 0 
L 8.203125 0 
L 8.203125 71.09375 
L 31.734375 71.09375 
Q 43.75 71.09375 50.21875 65.625 
Q 56.6875 60.15625 56.6875 49.703125 
Q 56.6875 43.0625 53.09375 38.125 
Q 49.515625 33.203125 43.109375 30.765625 
L 59.8125 0.59375 
L 59.8125 0 
L 49.75 0 
z
M 17.625 36.421875 
L 32.03125 36.421875 
Q 39.015625 36.421875 43.140625 40.03125 
Q 47.265625 43.65625 47.265625 49.703125 
Q 47.265625 56.296875 43.328125 59.8125 
Q 39.40625 63.328125 31.984375 63.375 
L 17.625 63.375 
z
" id="Roboto-Regular-52"/>
       <path d="M 29.203125 31.6875 
Q 17.140625 35.15625 11.640625 40.203125 
Q 6.15625 45.265625 6.15625 52.6875 
Q 6.15625 61.078125 12.859375 66.578125 
Q 19.578125 72.078125 30.328125 72.078125 
Q 37.640625 72.078125 43.375 69.234375 
Q 49.125 66.40625 52.265625 61.421875 
Q 55.421875 56.453125 55.421875 50.53125 
L 46 50.53125 
Q 46 56.984375 41.890625 60.671875 
Q 37.796875 64.359375 30.328125 64.359375 
Q 23.390625 64.359375 19.5 61.296875 
Q 15.625 58.25 15.625 52.828125 
Q 15.625 48.484375 19.3125 45.484375 
Q 23 42.484375 31.859375 39.984375 
Q 40.71875 37.5 45.71875 34.5 
Q 50.734375 31.5 53.140625 27.484375 
Q 55.5625 23.484375 55.5625 18.0625 
Q 55.5625 9.421875 48.828125 4.21875 
Q 42.09375 -0.984375 30.8125 -0.984375 
Q 23.484375 -0.984375 17.140625 1.828125 
Q 10.796875 4.640625 7.34375 9.515625 
Q 3.90625 14.40625 3.90625 20.609375 
L 13.328125 20.609375 
Q 13.328125 14.15625 18.09375 10.421875 
Q 22.859375 6.6875 30.8125 6.6875 
Q 38.234375 6.6875 42.1875 9.71875 
Q 46.140625 12.75 46.140625 17.96875 
Q 46.140625 23.1875 42.46875 26.046875 
Q 38.8125 28.90625 29.203125 31.6875 
z
" id="Roboto-Regular-53"/>
      </defs>
      <g style="fill:#808080;" transform="translate(127.863872 247.035285)rotate(-42.5)scale(0.1 -0.1)">
       <use xlink:href="#Roboto-Regular-4e"/>
       <use x="71.289062" xlink:href="#Roboto-Regular-44"/>
       <use x="136.865234" xlink:href="#Roboto-Regular-4f"/>
       <use x="205.615234" xlink:href="#Roboto-Regular-52"/>
       <use x="267.1875" xlink:href="#Roboto-Regular-4d"/>
       <use x="354.492188" xlink:href="#Roboto-Regular-53"/>
      </g>
     </g>
    </g>
    <g id="xtick_7">
     <g id="line2d_7"/>
     <g id="text_7">
      <!-- Big Data Inst -->
      <defs>
       <path d="M 18.3125 0 
L 8.9375 0 
L 8.9375 71.09375 
L 18.3125 71.09375 
z
" id="Roboto-Regular-49"/>
      </defs>
      <g style="fill:#808080;" transform="translate(138.488734 257.263266)rotate(-42.5)scale(0.1 -0.1)">
       <use xlink:href="#Roboto-Regular-42"/>
       <use x="62.255859" xlink:href="#Roboto-Regular-69"/>
       <use x="86.523438" xlink:href="#Roboto-Regular-67"/>
       <use x="142.626953" xlink:href="#Roboto-Regular-20"/>
       <use x="167.382812" xlink:href="#Roboto-Regular-44"/>
       <use x="232.958984" xlink:href="#Roboto-Regular-61"/>
       <use x="287.353516" xlink:href="#Roboto-Regular-74"/>
       <use x="320.019531" xlink:href="#Roboto-Regular-61"/>
       <use x="374.414062" xlink:href="#Roboto-Regular-20"/>
       <use x="399.169922" xlink:href="#Roboto-Regular-49"/>
       <use x="426.367188" xlink:href="#Roboto-Regular-6e"/>
       <use x="481.542969" xlink:href="#Roboto-Regular-73"/>
       <use x="533.105469" xlink:href="#Roboto-Regular-74"/>
      </g>
     </g>
    </g>
    <g id="xtick_8">
     <g id="line2d_8"/>
     <g id="text_8">
      <!-- NDWRH -->
      <defs>
       <path d="M 23.578125 22.40625 
L 24.953125 13.03125 
L 26.953125 21.484375 
L 41.015625 71.09375 
L 48.921875 71.09375 
L 62.640625 21.484375 
L 64.59375 12.890625 
L 66.109375 22.46875 
L 77.15625 71.09375 
L 86.578125 71.09375 
L 69.34375 0 
L 60.796875 0 
L 46.140625 51.8125 
L 45.015625 57.234375 
L 43.890625 51.8125 
L 28.71875 0 
L 20.171875 0 
L 2.984375 71.09375 
L 12.359375 71.09375 
z
" id="Roboto-Regular-57"/>
       <path d="M 62.890625 0 
L 53.46875 0 
L 53.46875 32.859375 
L 17.625 32.859375 
L 17.625 0 
L 8.25 0 
L 8.25 71.09375 
L 17.625 71.09375 
L 17.625 40.53125 
L 53.46875 40.53125 
L 53.46875 71.09375 
L 62.890625 71.09375 
z
" id="Roboto-Regular-48"/>
      </defs>
      <g style="fill:#808080;" transform="translate(175.663428 243.294204)rotate(-42.5)scale(0.1 -0.1)">
       <use xlink:href="#Roboto-Regular-4e"/>
       <use x="71.289062" xlink:href="#Roboto-Regular-44"/>
       <use x="136.865234" xlink:href="#Roboto-Regular-57"/>
       <use x="225.585938" xlink:href="#Roboto-Regular-52"/>
       <use x="287.158203" xlink:href="#Roboto-Regular-48"/>
      </g>
     </g>
    </g>
    <g id="xtick_9">
     <g id="line2d_9"/>
     <g id="text_9">
      <!-- Molecular Med -->
      <defs>
       <path d="M 39.453125 5.21875 
Q 34.1875 -0.984375 23.96875 -0.984375 
Q 15.53125 -0.984375 11.109375 3.921875 
Q 6.6875 8.84375 6.640625 18.453125 
L 6.640625 52.828125 
L 15.671875 52.828125 
L 15.671875 18.703125 
Q 15.671875 6.6875 25.4375 6.6875 
Q 35.796875 6.6875 39.203125 14.40625 
L 39.203125 52.828125 
L 48.25 52.828125 
L 48.25 0 
L 39.65625 0 
z
" id="Roboto-Regular-75"/>
      </defs>
      <g style="fill:#808080;" transform="translate(175.06947 263.868037)rotate(-42.5)scale(0.1 -0.1)">
       <use xlink:href="#Roboto-Regular-4d"/>
       <use x="87.304688" xlink:href="#Roboto-Regular-6f"/>
       <use x="144.335938" xlink:href="#Roboto-Regular-6c"/>
       <use x="168.603516" xlink:href="#Roboto-Regular-65"/>
       <use x="221.582031" xlink:href="#Roboto-Regular-63"/>
       <use x="273.925781" xlink:href="#Roboto-Regular-75"/>
       <use x="329.052734" xlink:href="#Roboto-Regular-6c"/>
       <use x="353.320312" xlink:href="#Roboto-Regular-61"/>
       <use x="407.714844" xlink:href="#Roboto-Regular-72"/>
       <use x="441.552734" xlink:href="#Roboto-Regular-20"/>
       <use x="466.308594" xlink:href="#Roboto-Regular-4d"/>
       <use x="553.613281" xlink:href="#Roboto-Regular-65"/>
       <use x="606.591797" xlink:href="#Roboto-Regular-64"/>
      </g>
     </g>
    </g>
    <g id="xtick_10">
     <g id="line2d_10"/>
     <g id="text_10">
      <!-- WTCHG -->
      <defs>
       <path d="M 57.375 63.375 
L 34.515625 63.375 
L 34.515625 0 
L 25.203125 0 
L 25.203125 63.375 
L 2.390625 63.375 
L 2.390625 71.09375 
L 57.375 71.09375 
z
" id="Roboto-Regular-54"/>
       <path d="M 60.75 9.328125 
Q 57.125 4.15625 50.65625 1.578125 
Q 44.1875 -0.984375 35.59375 -0.984375 
Q 26.90625 -0.984375 20.15625 3.09375 
Q 13.421875 7.171875 9.734375 14.6875 
Q 6.0625 22.21875 5.953125 32.125 
L 5.953125 38.328125 
Q 5.953125 54.390625 13.453125 63.234375 
Q 20.953125 72.078125 34.515625 72.078125 
Q 45.65625 72.078125 52.4375 66.375 
Q 59.234375 60.6875 60.75 50.25 
L 51.375 50.25 
Q 48.734375 64.359375 34.578125 64.359375 
Q 25.140625 64.359375 20.28125 57.734375 
Q 15.4375 51.125 15.375 38.578125 
L 15.375 32.765625 
Q 15.375 20.796875 20.84375 13.734375 
Q 26.3125 6.6875 35.640625 6.6875 
Q 40.921875 6.6875 44.875 7.859375 
Q 48.828125 9.03125 51.421875 11.8125 
L 51.421875 27.78125 
L 34.96875 27.78125 
L 34.96875 35.40625 
L 60.75 35.40625 
z
" id="Roboto-Regular-47"/>
      </defs>
      <g style="fill:#808080;" transform="translate(219.791573 242.917351)rotate(-42.5)scale(0.1 -0.1)">
       <use xlink:href="#Roboto-Regular-57"/>
       <use x="88.720703" xlink:href="#Roboto-Regular-54"/>
       <use x="148.388672" xlink:href="#Roboto-Regular-43"/>
       <use x="213.476562" xlink:href="#Roboto-Regular-48"/>
       <use x="284.765625" xlink:href="#Roboto-Regular-47"/>
      </g>
     </g>
    </g>
    <g id="xtick_11">
     <g id="line2d_11"/>
     <g id="text_11">
      <!-- SGC -->
      <g style="fill:#808080;" transform="translate(253.472947 232.083629)rotate(-42.5)scale(0.1 -0.1)">
       <use xlink:href="#Roboto-Regular-53"/>
       <use x="59.326172" xlink:href="#Roboto-Regular-47"/>
       <use x="127.441406" xlink:href="#Roboto-Regular-43"/>
      </g>
     </g>
    </g>
    <g id="xtick_12">
     <g id="line2d_12"/>
     <g id="text_12">
      <!-- DPAG -->
      <defs>
       <path d="M 47.515625 18.5625 
L 17.71875 18.5625 
L 11.03125 0 
L 1.375 0 
L 28.515625 71.09375 
L 36.71875 71.09375 
L 63.921875 0 
L 54.296875 0 
z
M 20.5625 26.265625 
L 44.734375 26.265625 
L 32.625 59.515625 
z
" id="Roboto-Regular-41"/>
      </defs>
      <g style="fill:#808080;" transform="translate(270.208463 236.777925)rotate(-42.5)scale(0.1 -0.1)">
       <use xlink:href="#Roboto-Regular-44"/>
       <use x="65.576172" xlink:href="#Roboto-Regular-50"/>
       <use x="128.662109" xlink:href="#Roboto-Regular-41"/>
       <use x="193.896484" xlink:href="#Roboto-Regular-47"/>
      </g>
     </g>
    </g>
    <g id="xtick_13">
     <g id="line2d_13"/>
     <g id="text_13">
      <!-- Psychiatry -->
      <g style="fill:#808080;" transform="translate(277.262055 250.280229)rotate(-42.5)scale(0.1 -0.1)">
       <use xlink:href="#Roboto-Regular-50"/>
       <use x="63.085938" xlink:href="#Roboto-Regular-73"/>
       <use x="114.648438" xlink:href="#Roboto-Regular-79"/>
       <use x="161.962891" xlink:href="#Roboto-Regular-63"/>
       <use x="214.306641" xlink:href="#Roboto-Regular-68"/>
       <use x="269.384766" xlink:href="#Roboto-Regular-69"/>
       <use x="293.652344" xlink:href="#Roboto-Regular-61"/>
       <use x="348.046875" xlink:href="#Roboto-Regular-74"/>
       <use x="380.712891" xlink:href="#Roboto-Regular-72"/>
       <use x="414.550781" xlink:href="#Roboto-Regular-79"/>
      </g>
     </g>
    </g>
    <g id="xtick_14">
     <g id="line2d_14"/>
     <g id="text_14">
      <!-- Brain Activity -->
      <defs>
       <path d="M 24.265625 12.25 
L 37.359375 52.828125 
L 46.578125 52.828125 
L 27.640625 0 
L 20.75 0 
L 1.609375 52.828125 
L 10.84375 52.828125 
z
" id="Roboto-Regular-76"/>
      </defs>
      <g style="fill:#808080;" transform="translate(290.273168 258.31128)rotate(-42.5)scale(0.1 -0.1)">
       <use xlink:href="#Roboto-Regular-42"/>
       <use x="62.255859" xlink:href="#Roboto-Regular-72"/>
       <use x="96.09375" xlink:href="#Roboto-Regular-61"/>
       <use x="150.488281" xlink:href="#Roboto-Regular-69"/>
       <use x="174.755859" xlink:href="#Roboto-Regular-6e"/>
       <use x="229.931641" xlink:href="#Roboto-Regular-20"/>
       <use x="254.6875" xlink:href="#Roboto-Regular-41"/>
       <use x="319.921875" xlink:href="#Roboto-Regular-63"/>
       <use x="372.265625" xlink:href="#Roboto-Regular-74"/>
       <use x="404.931641" xlink:href="#Roboto-Regular-69"/>
       <use x="429.199219" xlink:href="#Roboto-Regular-76"/>
       <use x="477.636719" xlink:href="#Roboto-Regular-69"/>
       <use x="501.904297" xlink:href="#Roboto-Regular-74"/>
       <use x="534.570312" xlink:href="#Roboto-Regular-79"/>
      </g>
     </g>
    </g>
    <g id="xtick_15">
     <g id="line2d_15"/>
     <g id="text_15">
      <!-- CNBC -->
      <g style="fill:#808080;" transform="translate(335.657067 236.894042)rotate(-42.5)scale(0.1 -0.1)">
       <use xlink:href="#Roboto-Regular-43"/>
       <use x="65.087891" xlink:href="#Roboto-Regular-4e"/>
       <use x="136.376953" xlink:href="#Roboto-Regular-42"/>
       <use x="198.632812" xlink:href="#Roboto-Regular-43"/>
      </g>
     </g>
    </g>
    <g id="xtick_16">
     <g id="line2d_16"/>
     <g id="text_16">
      <!-- Pharmacology -->
      <g style="fill:#808080;" transform="translate(329.518003 262.485188)rotate(-42.5)scale(0.1 -0.1)">
       <use xlink:href="#Roboto-Regular-50"/>
       <use x="63.085938" xlink:href="#Roboto-Regular-68"/>
       <use x="118.164062" xlink:href="#Roboto-Regular-61"/>
       <use x="172.558594" xlink:href="#Roboto-Regular-72"/>
       <use x="206.396484" xlink:href="#Roboto-Regular-6d"/>
       <use x="294.042969" xlink:href="#Roboto-Regular-61"/>
       <use x="348.4375" xlink:href="#Roboto-Regular-63"/>
       <use x="400.78125" xlink:href="#Roboto-Regular-6f"/>
       <use x="457.8125" xlink:href="#Roboto-Regular-6c"/>
       <use x="482.080078" xlink:href="#Roboto-Regular-6f"/>
       <use x="539.111328" xlink:href="#Roboto-Regular-67"/>
       <use x="595.214844" xlink:href="#Roboto-Regular-79"/>
      </g>
     </g>
    </g>
    <g id="xtick_17">
     <g id="line2d_17"/>
     <g id="text_17">
      <!-- IBME -->
      <defs>
       <path d="M 48.4375 32.859375 
L 17.625 32.859375 
L 17.625 7.671875 
L 53.421875 7.671875 
L 53.421875 0 
L 8.25 0 
L 8.25 71.09375 
L 52.9375 71.09375 
L 52.9375 63.375 
L 17.625 63.375 
L 17.625 40.53125 
L 48.4375 40.53125 
z
" id="Roboto-Regular-45"/>
      </defs>
      <g style="fill:#808080;" transform="translate(381.594997 234.858827)rotate(-42.5)scale(0.1 -0.1)">
       <use xlink:href="#Roboto-Regular-49"/>
       <use x="27.197266" xlink:href="#Roboto-Regular-42"/>
       <use x="89.453125" xlink:href="#Roboto-Regular-4d"/>
       <use x="176.757812" xlink:href="#Roboto-Regular-45"/>
      </g>
     </g>
    </g>
   </g>
   <g id="matplotlib.axis_2">
    <g id="ytick_1">
     <g id="line2d_18">
      <path clip-path="url(#pd0b1ff8f30)" d="M 39.5265 201.546826 
L 411.12 201.546826 
" style="fill:none;stroke:#bfbfbf;stroke-linecap:square;stroke-width:0.75;"/>
     </g>
     <g id="line2d_19"/>
     <g id="text_18">
      <!-- 0 -->
      <defs>
       <path d="M 50.484375 30.328125 
Q 50.484375 14.453125 45.0625 6.734375 
Q 39.65625 -0.984375 28.125 -0.984375 
Q 16.75 -0.984375 11.28125 6.5625 
Q 5.8125 14.109375 5.609375 29.109375 
L 5.609375 41.15625 
Q 5.609375 56.84375 11.03125 64.453125 
Q 16.453125 72.078125 28.03125 72.078125 
Q 39.5 72.078125 44.921875 64.71875 
Q 50.34375 57.375 50.484375 42.046875 
z
M 41.453125 42.671875 
Q 41.453125 54.15625 38.234375 59.40625 
Q 35.015625 64.65625 28.03125 64.65625 
Q 21.09375 64.65625 17.921875 59.421875 
Q 14.75 54.203125 14.65625 43.359375 
L 14.65625 28.90625 
Q 14.65625 17.390625 18 11.890625 
Q 21.34375 6.390625 28.125 6.390625 
Q 34.8125 6.390625 38.0625 11.5625 
Q 41.3125 16.75 41.453125 27.875 
z
" id="Roboto-Regular-30"/>
      </defs>
      <g style="fill:#808080;" transform="translate(21.910875 205.296826)scale(0.1 -0.1)">
       <use xlink:href="#Roboto-Regular-30"/>
      </g>
     </g>
    </g>
    <g id="ytick_2">
     <g id="line2d_20">
      <path clip-path="url(#pd0b1ff8f30)" d="M 39.5265 163.707088 
L 411.12 163.707088 
" style="fill:none;stroke:#bfbfbf;stroke-linecap:square;stroke-width:0.75;"/>
     </g>
     <g id="line2d_21"/>
     <g id="text_19">
      <!-- 5 -->
      <defs>
       <path d="M 10.0625 35.640625 
L 13.671875 71.09375 
L 50.09375 71.09375 
L 50.09375 62.75 
L 21.34375 62.75 
L 19.1875 43.359375 
Q 24.421875 46.4375 31.0625 46.4375 
Q 40.765625 46.4375 46.484375 40.015625 
Q 52.203125 33.59375 52.203125 22.65625 
Q 52.203125 11.671875 46.265625 5.34375 
Q 40.328125 -0.984375 29.6875 -0.984375 
Q 20.265625 -0.984375 14.296875 4.234375 
Q 8.34375 9.46875 7.515625 18.703125 
L 16.0625 18.703125 
Q 16.890625 12.59375 20.40625 9.484375 
Q 23.921875 6.390625 29.6875 6.390625 
Q 35.984375 6.390625 39.578125 10.6875 
Q 43.171875 14.984375 43.171875 22.5625 
Q 43.171875 29.6875 39.28125 34 
Q 35.40625 38.328125 28.953125 38.328125 
Q 23.046875 38.328125 19.671875 35.75 
L 17.28125 33.796875 
z
" id="Roboto-Regular-35"/>
      </defs>
      <g style="fill:#808080;" transform="translate(21.910875 167.457088)scale(0.1 -0.1)">
       <use xlink:href="#Roboto-Regular-35"/>
      </g>
     </g>
    </g>
    <g id="ytick_3">
     <g id="line2d_22">
      <path clip-path="url(#pd0b1ff8f30)" d="M 39.5265 125.86735 
L 411.12 125.86735 
" style="fill:none;stroke:#bfbfbf;stroke-linecap:square;stroke-width:0.75;"/>
     </g>
     <g id="line2d_23"/>
     <g id="text_20">
      <!-- 10 -->
      <defs>
       <path d="M 35.59375 0 
L 26.515625 0 
L 26.515625 60.203125 
L 8.296875 53.515625 
L 8.296875 61.71875 
L 34.1875 71.4375 
L 35.59375 71.4375 
z
" id="Roboto-Regular-31"/>
      </defs>
      <g style="fill:#808080;" transform="translate(16.29525 129.61735)scale(0.1 -0.1)">
       <use xlink:href="#Roboto-Regular-31"/>
       <use x="56.152344" xlink:href="#Roboto-Regular-30"/>
      </g>
     </g>
    </g>
    <g id="ytick_4">
     <g id="line2d_24">
      <path clip-path="url(#pd0b1ff8f30)" d="M 39.5265 88.027612 
L 411.12 88.027612 
" style="fill:none;stroke:#bfbfbf;stroke-linecap:square;stroke-width:0.75;"/>
     </g>
     <g id="line2d_25"/>
     <g id="text_21">
      <!-- 15 -->
      <g style="fill:#808080;" transform="translate(16.29525 91.777612)scale(0.1 -0.1)">
       <use xlink:href="#Roboto-Regular-31"/>
       <use x="56.152344" xlink:href="#Roboto-Regular-35"/>
      </g>
     </g>
    </g>
    <g id="ytick_5">
     <g id="line2d_26">
      <path clip-path="url(#pd0b1ff8f30)" d="M 39.5265 50.187873 
L 411.12 50.187873 
" style="fill:none;stroke:#bfbfbf;stroke-linecap:square;stroke-width:0.75;"/>
     </g>
     <g id="line2d_27"/>
     <g id="text_22">
      <!-- 20 -->
      <defs>
       <path d="M 52.484375 0 
L 5.90625 0 
L 5.90625 6.5 
L 30.515625 33.84375 
Q 35.984375 40.046875 38.0625 43.921875 
Q 40.140625 47.796875 40.140625 51.953125 
Q 40.140625 57.515625 36.765625 61.078125 
Q 33.40625 64.65625 27.78125 64.65625 
Q 21.046875 64.65625 17.3125 60.8125 
Q 13.578125 56.984375 13.578125 50.140625 
L 4.546875 50.140625 
Q 4.546875 59.96875 10.859375 66.015625 
Q 17.1875 72.078125 27.78125 72.078125 
Q 37.703125 72.078125 43.453125 66.875 
Q 49.21875 61.671875 49.21875 53.03125 
Q 49.21875 42.53125 35.84375 28.03125 
L 16.796875 7.375 
L 52.484375 7.375 
z
" id="Roboto-Regular-32"/>
      </defs>
      <g style="fill:#808080;" transform="translate(16.29525 53.937873)scale(0.1 -0.1)">
       <use xlink:href="#Roboto-Regular-32"/>
       <use x="56.152344" xlink:href="#Roboto-Regular-30"/>
      </g>
     </g>
    </g>
   </g>
   <g id="patch_3">
    <path clip-path="url(#pd0b1ff8f30)" d="M 44.99111 201.546826 
L 55.920331 201.546826 
L 55.920331 42.619926 
L 44.99111 42.619926 
z
" style="fill:#0072bd;"/>
   </g>
   <g id="patch_4">
    <path clip-path="url(#pd0b1ff8f30)" d="M 66.849551 201.546826 
L 77.778772 201.546826 
L 77.778772 65.323769 
L 66.849551 65.323769 
z
" style="fill:#0072bd;"/>
   </g>
   <g id="patch_5">
    <path clip-path="url(#pd0b1ff8f30)" d="M 88.707993 201.546826 
L 99.637213 201.546826 
L 99.637213 95.595559 
L 88.707993 95.595559 
z
" style="fill:#0072bd;"/>
   </g>
   <g id="patch_6">
    <path clip-path="url(#pd0b1ff8f30)" d="M 110.566434 201.546826 
L 121.495654 201.546826 
L 121.495654 125.86735 
L 110.566434 125.86735 
z
" style="fill:#0072bd;"/>
   </g>
   <g id="patch_7">
    <path clip-path="url(#pd0b1ff8f30)" d="M 132.424875 201.546826 
L 143.354096 201.546826 
L 143.354096 133.435297 
L 132.424875 133.435297 
z
" style="fill:#0072bd;"/>
   </g>
   <g id="patch_8">
    <path clip-path="url(#pd0b1ff8f30)" d="M 154.283316 201.546826 
L 165.212537 201.546826 
L 165.212537 163.707088 
L 154.283316 163.707088 
z
" style="fill:#0072bd;"/>
   </g>
   <g id="patch_9">
    <path clip-path="url(#pd0b1ff8f30)" d="M 176.141757 201.546826 
L 187.070978 201.546826 
L 187.070978 171.275035 
L 176.141757 171.275035 
z
" style="fill:#0072bd;"/>
   </g>
   <g id="patch_10">
    <path clip-path="url(#pd0b1ff8f30)" d="M 198.000199 201.546826 
L 208.929419 201.546826 
L 208.929419 171.275035 
L 198.000199 171.275035 
z
" style="fill:#0072bd;"/>
   </g>
   <g id="patch_11">
    <path clip-path="url(#pd0b1ff8f30)" d="M 219.85864 201.546826 
L 230.78786 201.546826 
L 230.78786 178.842983 
L 219.85864 178.842983 
z
" style="fill:#0072bd;"/>
   </g>
   <g id="patch_12">
    <path clip-path="url(#pd0b1ff8f30)" d="M 241.717081 201.546826 
L 252.646301 201.546826 
L 252.646301 178.842983 
L 241.717081 178.842983 
z
" style="fill:#0072bd;"/>
   </g>
   <g id="patch_13">
    <path clip-path="url(#pd0b1ff8f30)" d="M 263.575522 201.546826 
L 274.504743 201.546826 
L 274.504743 178.842983 
L 263.575522 178.842983 
z
" style="fill:#0072bd;"/>
   </g>
   <g id="patch_14">
    <path clip-path="url(#pd0b1ff8f30)" d="M 285.433963 201.546826 
L 296.363184 201.546826 
L 296.363184 178.842983 
L 285.433963 178.842983 
z
" style="fill:#0072bd;"/>
   </g>
   <g id="patch_15">
    <path clip-path="url(#pd0b1ff8f30)" d="M 307.292404 201.546826 
L 318.221625 201.546826 
L 318.221625 186.410931 
L 307.292404 186.410931 
z
" style="fill:#0072bd;"/>
   </g>
   <g id="patch_16">
    <path clip-path="url(#pd0b1ff8f30)" d="M 329.150846 201.546826 
L 340.080066 201.546826 
L 340.080066 193.978878 
L 329.150846 193.978878 
z
" style="fill:#0072bd;"/>
   </g>
   <g id="patch_17">
    <path clip-path="url(#pd0b1ff8f30)" d="M 351.009287 201.546826 
L 361.938507 201.546826 
L 361.938507 193.978878 
L 351.009287 193.978878 
z
" style="fill:#0072bd;"/>
   </g>
   <g id="patch_18">
    <path clip-path="url(#pd0b1ff8f30)" d="M 372.867728 201.546826 
L 383.796949 201.546826 
L 383.796949 193.978878 
L 372.867728 193.978878 
z
" style="fill:#0072bd;"/>
   </g>
   <g id="patch_19">
    <path clip-path="url(#pd0b1ff8f30)" d="M 394.726169 201.546826 
L 405.65539 201.546826 
L 405.65539 193.978878 
L 394.726169 193.978878 
z
" style="fill:#0072bd;"/>
   </g>
   <g id="patch_20">
    <path d="M 39.5265 201.546826 
L 411.12 201.546826 
" style="fill:none;stroke:#bfbfbf;stroke-linecap:square;stroke-linejoin:miter;stroke-width:1.5;"/>
   </g>
   <g id="text_23">
    <!--   -->
    <g transform="translate(39.5265 22.619926)scale(0.12 -0.12)">
     <use xlink:href="#Roboto-Regular-20"/>
    </g>
   </g>
  </g>
  <g id="text_24">
   <!-- Responses from Medical Sciences departments  (N=103) -->
   <defs>
    <path d="M 51.46875 25.828125 
Q 51.46875 13.765625 45.953125 6.390625 
Q 40.4375 -0.984375 31 -0.984375 
Q 21.390625 -0.984375 15.875 5.125 
L 15.875 -20.3125 
L 6.84375 -20.3125 
L 6.84375 52.828125 
L 15.09375 52.828125 
L 15.53125 46.96875 
Q 21.046875 53.8125 30.859375 53.8125 
Q 40.375 53.8125 45.921875 46.625 
Q 51.46875 39.453125 51.46875 26.65625 
z
M 42.4375 26.859375 
Q 42.4375 35.796875 38.625 40.96875 
Q 34.8125 46.140625 28.171875 46.140625 
Q 19.96875 46.140625 15.875 38.875 
L 15.875 13.625 
Q 19.921875 6.390625 28.265625 6.390625 
Q 34.765625 6.390625 38.59375 11.546875 
Q 42.4375 16.703125 42.4375 26.859375 
z
" id="Roboto-Regular-70"/>
    <path d="M 11.28125 0 
L 11.28125 45.84375 
L 2.9375 45.84375 
L 2.9375 52.828125 
L 11.28125 52.828125 
L 11.28125 58.25 
Q 11.28125 66.75 15.8125 71.390625 
Q 20.359375 76.03125 28.65625 76.03125 
Q 31.78125 76.03125 34.859375 75.203125 
L 34.375 67.875 
Q 32.078125 68.3125 29.5 68.3125 
Q 25.09375 68.3125 22.703125 65.75 
Q 20.3125 63.1875 20.3125 58.40625 
L 20.3125 52.828125 
L 31.59375 52.828125 
L 31.59375 45.84375 
L 20.3125 45.84375 
L 20.3125 0 
z
" id="Roboto-Regular-66"/>
    <path d="M 6.5 28.859375 
Q 6.5 39.890625 9.453125 50.046875 
Q 12.40625 60.203125 18.265625 68.5 
Q 24.125 76.8125 30.421875 80.21875 
L 32.28125 74.265625 
Q 25.140625 68.796875 20.578125 57.5625 
Q 16.015625 46.34375 15.578125 32.421875 
L 15.53125 28.265625 
Q 15.53125 9.421875 22.40625 -4.4375 
Q 26.5625 -12.75 32.28125 -17.4375 
L 30.421875 -22.953125 
Q 23.921875 -19.34375 18.015625 -10.84375 
Q 6.5 5.765625 6.5 28.859375 
z
" id="Roboto-Regular-28"/>
    <path d="M 48.140625 39.75 
L 7.421875 39.75 
L 7.421875 47.609375 
L 48.140625 47.609375 
z
M 48.140625 19.484375 
L 7.421875 19.484375 
L 7.421875 27.296875 
L 48.140625 27.296875 
z
" id="Roboto-Regular-3d"/>
    <path d="M 19.046875 39.9375 
L 25.828125 39.9375 
Q 32.234375 40.046875 35.890625 43.3125 
Q 39.546875 46.578125 39.546875 52.15625 
Q 39.546875 64.65625 27.09375 64.65625 
Q 21.234375 64.65625 17.75 61.296875 
Q 14.265625 57.953125 14.265625 52.4375 
L 5.21875 52.4375 
Q 5.21875 60.890625 11.390625 66.484375 
Q 17.578125 72.078125 27.09375 72.078125 
Q 37.15625 72.078125 42.859375 66.75 
Q 48.578125 61.421875 48.578125 51.953125 
Q 48.578125 47.3125 45.578125 42.96875 
Q 42.578125 38.625 37.40625 36.46875 
Q 43.265625 34.625 46.453125 30.328125 
Q 49.65625 26.03125 49.65625 19.828125 
Q 49.65625 10.25 43.40625 4.625 
Q 37.15625 -0.984375 27.140625 -0.984375 
Q 17.140625 -0.984375 10.859375 4.4375 
Q 4.59375 9.859375 4.59375 18.75 
L 13.671875 18.75 
Q 13.671875 13.140625 17.328125 9.765625 
Q 21 6.390625 27.15625 6.390625 
Q 33.6875 6.390625 37.15625 9.8125 
Q 40.625 13.234375 40.625 19.625 
Q 40.625 25.828125 36.8125 29.140625 
Q 33.015625 32.46875 25.828125 32.5625 
L 19.046875 32.5625 
z
" id="Roboto-Regular-33"/>
    <path d="M 27.6875 28.375 
Q 27.6875 17.484375 24.828125 7.5 
Q 21.96875 -2.484375 16.078125 -10.9375 
Q 10.203125 -19.390625 3.765625 -22.953125 
L 1.859375 -17.4375 
Q 9.375 -11.671875 13.9375 0.453125 
Q 18.5 12.59375 18.609375 27.390625 
L 18.609375 28.953125 
Q 18.609375 39.203125 16.453125 48.015625 
Q 14.3125 56.84375 10.46875 63.8125 
Q 6.640625 70.796875 1.859375 74.703125 
L 3.765625 80.21875 
Q 10.203125 76.65625 16.03125 68.3125 
Q 21.875 59.96875 24.78125 49.90625 
Q 27.6875 39.84375 27.6875 28.375 
z
" id="Roboto-Regular-29"/>
   </defs>
   <g style="fill:#808080;" transform="translate(12.96 20.306102)scale(0.12 -0.12)">
    <use xlink:href="#Roboto-Regular-52"/>
    <use x="61.572266" xlink:href="#Roboto-Regular-65"/>
    <use x="114.550781" xlink:href="#Roboto-Regular-73"/>
    <use x="166.113281" xlink:href="#Roboto-Regular-70"/>
    <use x="222.216797" xlink:href="#Roboto-Regular-6f"/>
    <use x="279.248047" xlink:href="#Roboto-Regular-6e"/>
    <use x="334.423828" xlink:href="#Roboto-Regular-73"/>
    <use x="385.986328" xlink:href="#Roboto-Regular-65"/>
    <use x="438.964844" xlink:href="#Roboto-Regular-73"/>
    <use x="490.527344" xlink:href="#Roboto-Regular-20"/>
    <use x="515.283203" xlink:href="#Roboto-Regular-66"/>
    <use x="550" xlink:href="#Roboto-Regular-72"/>
    <use x="583.837891" xlink:href="#Roboto-Regular-6f"/>
    <use x="640.869141" xlink:href="#Roboto-Regular-6d"/>
    <use x="728.515625" xlink:href="#Roboto-Regular-20"/>
    <use x="753.271484" xlink:href="#Roboto-Regular-4d"/>
    <use x="840.576172" xlink:href="#Roboto-Regular-65"/>
    <use x="893.554688" xlink:href="#Roboto-Regular-64"/>
    <use x="949.951172" xlink:href="#Roboto-Regular-69"/>
    <use x="974.21875" xlink:href="#Roboto-Regular-63"/>
    <use x="1026.5625" xlink:href="#Roboto-Regular-61"/>
    <use x="1080.957031" xlink:href="#Roboto-Regular-6c"/>
    <use x="1105.224609" xlink:href="#Roboto-Regular-20"/>
    <use x="1129.980469" xlink:href="#Roboto-Regular-53"/>
    <use x="1189.306641" xlink:href="#Roboto-Regular-63"/>
    <use x="1241.650391" xlink:href="#Roboto-Regular-69"/>
    <use x="1265.917969" xlink:href="#Roboto-Regular-65"/>
    <use x="1318.896484" xlink:href="#Roboto-Regular-6e"/>
    <use x="1374.072266" xlink:href="#Roboto-Regular-63"/>
    <use x="1426.416016" xlink:href="#Roboto-Regular-65"/>
    <use x="1479.394531" xlink:href="#Roboto-Regular-73"/>
    <use x="1530.957031" xlink:href="#Roboto-Regular-20"/>
    <use x="1555.712891" xlink:href="#Roboto-Regular-64"/>
    <use x="1612.109375" xlink:href="#Roboto-Regular-65"/>
    <use x="1665.087891" xlink:href="#Roboto-Regular-70"/>
    <use x="1721.191406" xlink:href="#Roboto-Regular-61"/>
    <use x="1775.585938" xlink:href="#Roboto-Regular-72"/>
    <use x="1809.423828" xlink:href="#Roboto-Regular-74"/>
    <use x="1842.089844" xlink:href="#Roboto-Regular-6d"/>
    <use x="1929.736328" xlink:href="#Roboto-Regular-65"/>
    <use x="1982.714844" xlink:href="#Roboto-Regular-6e"/>
    <use x="2037.890625" xlink:href="#Roboto-Regular-74"/>
    <use x="2070.556641" xlink:href="#Roboto-Regular-73"/>
    <use x="2122.119141" xlink:href="#Roboto-Regular-20"/>
    <use x="2146.875" xlink:href="#Roboto-Regular-20"/>
    <use x="2171.630859" xlink:href="#Roboto-Regular-28"/>
    <use x="2205.810547" xlink:href="#Roboto-Regular-4e"/>
    <use x="2277.099609" xlink:href="#Roboto-Regular-3d"/>
    <use x="2331.982422" xlink:href="#Roboto-Regular-31"/>
    <use x="2388.134766" xlink:href="#Roboto-Regular-30"/>
    <use x="2444.287109" xlink:href="#Roboto-Regular-33"/>
    <use x="2500.439453" xlink:href="#Roboto-Regular-29"/>
   </g>
  </g>
 </g>
 <defs>
  <clipPath id="pd0b1ff8f30">
   <rect height="158.9269" width="371.5935" x="39.5265" y="42.619926"/>
  </clipPath>
 </defs>
</svg>
