<?xml version="1.0" encoding="utf-8" standalone="no"?>
<!DOCTYPE svg PUBLIC "-//W3C//DTD SVG 1.1//EN"
  "http://www.w3.org/Graphics/SVG/1.1/DTD/svg11.dtd">
<!-- Created with matplotlib (https://matplotlib.org/) -->
<svg height="266.996292pt" version="1.1" viewBox="0 0 432 266.996292" width="432pt" xmlns="http://www.w3.org/2000/svg" xmlns:xlink="http://www.w3.org/1999/xlink">
 <defs>
  <style type="text/css">
*{stroke-linecap:butt;stroke-linejoin:round;}
  </style>
 </defs>
 <g id="figure_1">
  <g id="patch_1">
   <path d="M 0 266.996292 
L 432 266.996292 
L 432 0 
L 0 0 
z
" style="fill:#ffffff;"/>
  </g>
  <g id="axes_1">
   <g id="patch_2">
    <path d="M 43.853526 196.295213 
L 412.56 196.295213 
L 412.56 45.259926 
L 43.853526 45.259926 
z
" style="fill:#ffffff;"/>
   </g>
   <g id="matplotlib.axis_1">
    <g id="xtick_1">
     <g id="line2d_1"/>
     <g id="text_1">
      <!-- Comp Sci -->
      <defs>
       <path d="M 51.171875 22.609375 
L 60.546875 22.609375 
Q 59.46875 12.5 52.921875 5.75 
Q 46.390625 -0.984375 33.59375 -0.984375 
Q 21.1875 -0.984375 13.59375 7.875 
Q 6 16.75 5.859375 31.453125 
L 5.859375 39.0625 
Q 5.859375 54 13.546875 63.03125 
Q 21.234375 72.078125 34.421875 72.078125 
Q 46.484375 72.078125 52.96875 65.4375 
Q 59.46875 58.796875 60.546875 48.296875 
L 51.171875 48.296875 
Q 50.09375 55.71875 46.375 60.03125 
Q 42.671875 64.359375 34.421875 64.359375 
Q 25 64.359375 20.109375 57.421875 
Q 15.234375 50.484375 15.234375 39.15625 
L 15.234375 31.984375 
Q 15.234375 21.484375 19.671875 14.078125 
Q 24.125 6.6875 33.59375 6.6875 
Q 42.578125 6.6875 46.265625 10.890625 
Q 49.953125 15.09375 51.171875 22.609375 
z
" id="Roboto-Regular-67"/>
       <path d="M 4.5 26.953125 
Q 4.5 38.421875 10.9375 46.109375 
Q 17.390625 53.8125 28.46875 53.8125 
Q 39.546875 53.8125 45.984375 46.265625 
Q 52.4375 38.71875 52.59375 27.4375 
L 52.59375 25.828125 
Q 52.59375 14.359375 46.125 6.6875 
Q 39.65625 -0.984375 28.5625 -0.984375 
Q 17.4375 -0.984375 10.96875 6.6875 
Q 4.5 14.359375 4.5 25.828125 
z
M 13.53125 25.828125 
Q 13.53125 17.96875 17.265625 12.203125 
Q 21 6.453125 28.5625 6.453125 
Q 35.9375 6.453125 39.6875 12.140625 
Q 43.453125 17.828125 43.5 25.6875 
L 43.5 26.953125 
Q 43.5 34.71875 39.734375 40.546875 
Q 35.984375 46.390625 28.46875 46.390625 
Q 21 46.390625 17.265625 40.546875 
Q 13.53125 34.71875 13.53125 26.953125 
z
" id="Roboto-Regular-111"/>
       <path d="M 28.03125 46.1875 
Q 19.140625 46.1875 15.875 38.71875 
L 15.875 0 
L 6.78125 0 
L 6.78125 52.828125 
L 15.375 52.828125 
L 15.625 47.078125 
Q 21.34375 53.8125 31.25 53.8125 
Q 36.328125 53.8125 40.296875 51.78125 
Q 44.28125 49.75 46.390625 45.3125 
Q 49.03125 49.125 53.25 51.46875 
Q 57.46875 53.8125 63.1875 53.8125 
Q 71.6875 53.8125 76.296875 49.265625 
Q 80.90625 44.734375 80.90625 34.71875 
L 80.90625 0 
L 71.828125 0 
L 71.828125 34.8125 
Q 71.828125 41.453125 68.765625 43.8125 
Q 65.71875 46.1875 60.546875 46.1875 
Q 55.078125 46.1875 51.953125 42.9375 
Q 48.828125 39.703125 48.34375 35.0625 
L 48.34375 0 
L 39.3125 0 
L 39.3125 34.765625 
Q 39.3125 40.96875 36.234375 43.578125 
Q 33.15625 46.1875 28.03125 46.1875 
z
" id="Roboto-Regular-109"/>
       <path d="M 31 -0.984375 
Q 21.484375 -0.984375 15.921875 5.125 
L 15.921875 -20.3125 
L 6.84375 -20.3125 
L 6.84375 52.828125 
L 15.140625 52.828125 
L 15.578125 47.015625 
Q 21.140625 53.8125 30.859375 53.8125 
Q 40.875 53.8125 46.1875 46.390625 
Q 51.515625 38.96875 51.515625 26.859375 
L 51.515625 25.828125 
Q 51.515625 14.265625 46.171875 6.640625 
Q 40.828125 -0.984375 31 -0.984375 
z
M 28.21875 46.1875 
Q 20.015625 46.1875 15.921875 38.921875 
L 15.921875 13.625 
Q 20.0625 6.453125 28.328125 6.453125 
Q 35.640625 6.453125 39.03125 12.203125 
Q 42.4375 17.96875 42.4375 25.828125 
L 42.4375 26.859375 
Q 42.4375 34.71875 39.03125 40.453125 
Q 35.640625 46.1875 28.21875 46.1875 
z
" id="Roboto-Regular-112"/>
       <path id="Roboto-Regular-32"/>
       <path d="M 46.140625 17.96875 
Q 46.140625 22.859375 42.84375 25.78125 
Q 39.546875 28.71875 29 31.8125 
Q 18.453125 34.90625 12.328125 39.71875 
Q 6.203125 44.53125 6.203125 52.734375 
Q 6.203125 61.03125 12.8125 66.546875 
Q 19.4375 72.078125 30.375 72.078125 
Q 42.390625 72.078125 48.90625 65.484375 
Q 55.421875 58.890625 55.421875 50.59375 
L 46.046875 50.59375 
Q 46.046875 56.546875 42.1875 60.453125 
Q 38.328125 64.359375 30.375 64.359375 
Q 22.859375 64.359375 19.234375 61.0625 
Q 15.625 57.765625 15.625 52.828125 
Q 15.625 48.390625 19.453125 45.4375 
Q 23.296875 42.484375 31.9375 40.046875 
Q 44.28125 36.578125 49.9375 31.46875 
Q 55.609375 26.375 55.609375 18.0625 
Q 55.609375 9.375 48.828125 4.1875 
Q 42.046875 -0.984375 30.8125 -0.984375 
Q 24.265625 -0.984375 18.09375 1.453125 
Q 11.921875 3.90625 7.9375 8.71875 
Q 3.953125 13.53125 3.953125 20.609375 
L 13.328125 20.609375 
Q 13.328125 13.328125 18.640625 10 
Q 23.96875 6.6875 30.8125 6.6875 
Q 38.1875 6.6875 42.15625 9.734375 
Q 46.140625 12.796875 46.140625 17.96875 
z
" id="Roboto-Regular-83"/>
       <path d="M 28.03125 6.453125 
Q 32.859375 6.453125 36.5 9.328125 
Q 40.140625 12.203125 40.484375 16.703125 
L 49.078125 16.703125 
Q 48.734375 9.625 42.578125 4.3125 
Q 36.421875 -0.984375 28.03125 -0.984375 
Q 16.109375 -0.984375 10.328125 6.875 
Q 4.546875 14.75 4.546875 25.390625 
L 4.546875 27.4375 
Q 4.546875 38.09375 10.328125 45.953125 
Q 16.109375 53.8125 28.03125 53.8125 
Q 37.3125 53.8125 43.015625 48.3125 
Q 48.734375 42.828125 49.078125 34.671875 
L 40.484375 34.671875 
Q 40.140625 39.546875 36.796875 42.96875 
Q 33.453125 46.390625 28.03125 46.390625 
Q 22.46875 46.390625 19.3125 43.546875 
Q 16.15625 40.71875 14.859375 36.375 
Q 13.578125 32.03125 13.578125 27.4375 
L 13.578125 25.390625 
Q 13.578125 20.75 14.84375 16.40625 
Q 16.109375 12.0625 19.25 9.25 
Q 22.40625 6.453125 28.03125 6.453125 
z
" id="Roboto-Regular-99"/>
       <path d="M 6.9375 66.84375 
Q 6.9375 69.046875 8.28125 70.5625 
Q 9.625 72.078125 12.25 72.078125 
Q 14.84375 72.078125 16.234375 70.5625 
Q 17.625 69.046875 17.625 66.84375 
Q 17.625 64.75 16.234375 63.25 
Q 14.84375 61.765625 12.25 61.765625 
Q 9.625 61.765625 8.28125 63.25 
Q 6.9375 64.75 6.9375 66.84375 
z
M 16.703125 52.828125 
L 16.703125 0 
L 7.625 0 
L 7.625 52.828125 
z
" id="Roboto-Regular-105"/>
      </defs>
      <g style="fill:#808080;" transform="translate(25.193182 242.660883)rotate(-42.5)scale(0.1 -0.1)">
       <use xlink:href="#Roboto-Regular-67"/>
       <use x="65.087891" xlink:href="#Roboto-Regular-111"/>
       <use x="122.119141" xlink:href="#Roboto-Regular-109"/>
       <use x="209.814453" xlink:href="#Roboto-Regular-112"/>
       <use x="265.966797" xlink:href="#Roboto-Regular-32"/>
       <use x="290.771484" xlink:href="#Roboto-Regular-83"/>
       <use x="350.146484" xlink:href="#Roboto-Regular-99"/>
       <use x="402.490234" xlink:href="#Roboto-Regular-105"/>
      </g>
     </g>
    </g>
    <g id="xtick_2">
     <g id="line2d_2"/>
     <g id="text_2">
      <!-- Maths -->
      <defs>
       <path d="M 43.65625 13.140625 
L 66.890625 71.09375 
L 79 71.09375 
L 79 0 
L 69.625 0 
L 69.625 27.734375 
L 70.5625 57.46875 
L 47.171875 0 
L 40.046875 0 
L 16.703125 57.5625 
L 17.625 27.734375 
L 17.625 0 
L 8.25 0 
L 8.25 71.09375 
L 20.359375 71.09375 
z
" id="Roboto-Regular-77"/>
       <path d="M 39.5 0 
Q 38.625 1.90625 38.234375 5.5625 
Q 35.6875 2.875 31.875 0.9375 
Q 28.078125 -0.984375 23.1875 -0.984375 
Q 15.09375 -0.984375 10.203125 3.5625 
Q 5.328125 8.109375 5.328125 14.703125 
Q 5.328125 23.1875 11.765625 27.609375 
Q 18.21875 32.03125 29.109375 32.03125 
L 38.03125 32.03125 
L 38.03125 36.234375 
Q 38.03125 40.921875 35.21875 43.71875 
Q 32.421875 46.53125 26.90625 46.53125 
Q 21.78125 46.53125 18.625 44.015625 
Q 15.484375 41.5 15.484375 38.1875 
L 6.453125 38.1875 
Q 6.453125 43.84375 12.15625 48.828125 
Q 17.875 53.8125 27.4375 53.8125 
Q 36.03125 53.8125 41.546875 49.40625 
Q 47.078125 45.015625 47.078125 36.140625 
L 47.078125 12.40625 
Q 47.078125 5.078125 48.921875 0.78125 
L 48.921875 0 
z
M 24.515625 6.9375 
Q 29.390625 6.9375 32.984375 9.375 
Q 36.578125 11.8125 38.03125 14.796875 
L 38.03125 25.6875 
L 29.640625 25.6875 
Q 14.40625 25.390625 14.40625 15.921875 
Q 14.40625 12.15625 16.9375 9.546875 
Q 19.484375 6.9375 24.515625 6.9375 
z
" id="Roboto-Regular-97"/>
       <path d="M 29.25 0 
Q 26.171875 -0.984375 22.265625 -0.984375 
Q 17.234375 -0.984375 13.671875 2.09375 
Q 10.109375 5.171875 10.109375 13.140625 
L 10.109375 45.90625 
L 0.4375 45.90625 
L 0.4375 52.828125 
L 10.109375 52.828125 
L 10.109375 65.671875 
L 19.140625 65.671875 
L 19.140625 52.828125 
L 29 52.828125 
L 29 45.90625 
L 19.140625 45.90625 
L 19.140625 13.09375 
Q 19.140625 9.03125 20.890625 7.90625 
Q 22.65625 6.78125 24.953125 6.78125 
Q 26.65625 6.78125 29.203125 7.375 
z
" id="Roboto-Regular-116"/>
       <path d="M 28.8125 46.1875 
Q 24.46875 46.1875 21.140625 43.84375 
Q 17.828125 41.5 15.921875 37.75 
L 15.921875 0 
L 6.890625 0 
L 6.890625 75 
L 15.921875 75 
L 15.921875 46.53125 
Q 21.921875 53.8125 31.5 53.8125 
Q 39.265625 53.8125 43.828125 49.46875 
Q 48.390625 45.125 48.4375 34.859375 
L 48.4375 0 
L 39.359375 0 
L 39.359375 34.71875 
Q 39.359375 40.921875 36.640625 43.546875 
Q 33.9375 46.1875 28.8125 46.1875 
z
" id="Roboto-Regular-104"/>
       <path d="M 37.640625 14.015625 
Q 37.640625 16.890625 35.515625 19.203125 
Q 33.40625 21.53125 25.734375 23.09375 
Q 16.890625 24.90625 11.671875 28.34375 
Q 6.453125 31.78125 6.453125 38.375 
Q 6.453125 44.625 11.796875 49.21875 
Q 17.140625 53.8125 26.03125 53.8125 
Q 35.5 53.8125 40.8125 48.96875 
Q 46.140625 44.140625 46.140625 37.3125 
L 37.109375 37.3125 
Q 37.109375 40.578125 34.21875 43.484375 
Q 31.34375 46.390625 26.03125 46.390625 
Q 20.40625 46.390625 17.96875 43.9375 
Q 15.53125 41.5 15.53125 38.625 
Q 15.53125 35.75 17.796875 33.953125 
Q 20.0625 32.171875 27.4375 30.515625 
Q 37.15625 28.328125 41.921875 24.75 
Q 46.6875 21.1875 46.6875 14.703125 
Q 46.6875 7.71875 41.09375 3.359375 
Q 35.5 -0.984375 26.265625 -0.984375 
Q 15.765625 -0.984375 10.203125 4.390625 
Q 4.640625 9.765625 4.640625 16.3125 
L 13.71875 16.3125 
Q 14.015625 10.6875 18.046875 8.5625 
Q 22.078125 6.453125 26.265625 6.453125 
Q 31.78125 6.453125 34.703125 8.59375 
Q 37.640625 10.75 37.640625 14.015625 
z
" id="Roboto-Regular-115"/>
      </defs>
      <g style="fill:#808080;" transform="translate(64.298731 232.816267)rotate(-42.5)scale(0.1 -0.1)">
       <use xlink:href="#Roboto-Regular-77"/>
       <use x="87.304688" xlink:href="#Roboto-Regular-97"/>
       <use x="141.699219" xlink:href="#Roboto-Regular-116"/>
       <use x="174.414062" xlink:href="#Roboto-Regular-104"/>
       <use x="229.492188" xlink:href="#Roboto-Regular-115"/>
      </g>
     </g>
    </g>
    <g id="xtick_3">
     <g id="line2d_3"/>
     <g id="text_3">
      <!-- Engineering -->
      <defs>
       <path d="M 8.25 0 
L 8.25 71.09375 
L 52.9375 71.09375 
L 52.9375 63.375 
L 17.671875 63.375 
L 17.671875 40.53125 
L 48.4375 40.53125 
L 48.4375 32.859375 
L 17.671875 32.859375 
L 17.671875 7.671875 
L 53.421875 7.671875 
L 53.421875 0 
z
" id="Roboto-Regular-69"/>
       <path d="M 28.8125 46.1875 
Q 24.46875 46.1875 21.140625 43.84375 
Q 17.828125 41.5 15.921875 37.75 
L 15.921875 0 
L 6.890625 0 
L 6.890625 52.828125 
L 15.4375 52.828125 
L 15.71875 46.234375 
Q 21.734375 53.8125 31.5 53.8125 
Q 39.265625 53.8125 43.828125 49.46875 
Q 48.390625 45.125 48.4375 34.859375 
L 48.4375 0 
L 39.359375 0 
L 39.359375 34.71875 
Q 39.359375 40.921875 36.640625 43.546875 
Q 33.9375 46.1875 28.8125 46.1875 
z
" id="Roboto-Regular-110"/>
       <path d="M 26.953125 -20.84375 
Q 22.859375 -20.84375 16.890625 -18.84375 
Q 10.9375 -16.84375 7.375 -11.671875 
L 12.109375 -6.296875 
Q 17.96875 -13.421875 26.265625 -13.421875 
Q 32.671875 -13.421875 36.46875 -9.828125 
Q 40.28125 -6.25 40.28125 0.6875 
L 40.28125 5.328125 
Q 34.90625 -0.984375 25.484375 -0.984375 
Q 15.96875 -0.984375 10.34375 6.640625 
Q 4.734375 14.265625 4.734375 25.828125 
L 4.734375 26.859375 
Q 4.734375 38.96875 10.328125 46.390625 
Q 15.921875 53.8125 25.59375 53.8125 
Q 35.296875 53.8125 40.671875 46.96875 
L 41.109375 52.828125 
L 49.3125 52.828125 
L 49.3125 1.125 
Q 49.3125 -9.375 43.0625 -15.109375 
Q 36.8125 -20.84375 26.953125 -20.84375 
z
M 13.765625 25.828125 
Q 13.765625 17.96875 17.0625 12.328125 
Q 20.359375 6.6875 27.6875 6.6875 
Q 36.28125 6.6875 40.28125 14.5 
L 40.28125 38.578125 
Q 38.578125 41.84375 35.546875 44.015625 
Q 32.515625 46.1875 27.78125 46.1875 
Q 20.40625 46.1875 17.078125 40.453125 
Q 13.765625 34.71875 13.765625 26.859375 
z
" id="Roboto-Regular-103"/>
       <path d="M 48.6875 9.234375 
Q 46.09375 5.328125 41.359375 2.171875 
Q 36.625 -0.984375 28.8125 -0.984375 
Q 17.78125 -0.984375 11.15625 6.1875 
Q 4.546875 13.375 4.546875 24.5625 
L 4.546875 26.609375 
Q 4.546875 35.25 7.84375 41.328125 
Q 11.140625 47.40625 16.40625 50.609375 
Q 21.6875 53.8125 27.640625 53.8125 
Q 38.96875 53.8125 44.15625 46.40625 
Q 49.359375 39.015625 49.359375 27.9375 
L 49.359375 23.875 
L 13.625 23.875 
Q 13.8125 16.609375 17.9375 11.5 
Q 22.078125 6.390625 29.296875 6.390625 
Q 34.078125 6.390625 37.390625 8.34375 
Q 40.71875 10.296875 43.21875 13.578125 
z
M 27.640625 46.390625 
Q 22.265625 46.390625 18.546875 42.484375 
Q 14.84375 38.578125 13.921875 31.25 
L 40.328125 31.25 
L 40.328125 31.9375 
Q 39.984375 37.203125 37.28125 41.796875 
Q 34.578125 46.390625 27.640625 46.390625 
z
" id="Roboto-Regular-101"/>
       <path d="M 27.984375 45.125 
Q 19.140625 45.125 15.921875 37.5 
L 15.921875 0 
L 6.890625 0 
L 6.890625 52.828125 
L 15.671875 52.828125 
L 15.875 46.78125 
Q 20.21875 53.8125 28.421875 53.8125 
Q 30.953125 53.8125 32.421875 53.125 
L 32.375 44.734375 
Q 30.375 45.125 27.984375 45.125 
z
" id="Roboto-Regular-114"/>
      </defs>
      <g style="fill:#808080;" transform="translate(74.762029 249.145383)rotate(-42.5)scale(0.1 -0.1)">
       <use xlink:href="#Roboto-Regular-69"/>
       <use x="56.835938" xlink:href="#Roboto-Regular-110"/>
       <use x="112.060547" xlink:href="#Roboto-Regular-103"/>
       <use x="168.212891" xlink:href="#Roboto-Regular-105"/>
       <use x="192.529297" xlink:href="#Roboto-Regular-110"/>
       <use x="247.753906" xlink:href="#Roboto-Regular-101"/>
       <use x="300.78125" xlink:href="#Roboto-Regular-101"/>
       <use x="353.808594" xlink:href="#Roboto-Regular-114"/>
       <use x="387.695312" xlink:href="#Roboto-Regular-105"/>
       <use x="412.011719" xlink:href="#Roboto-Regular-110"/>
       <use x="467.236328" xlink:href="#Roboto-Regular-103"/>
      </g>
     </g>
    </g>
    <g id="xtick_4">
     <g id="line2d_4"/>
     <g id="text_4">
      <!-- Physics -->
      <defs>
       <path d="M 17.671875 27.875 
L 17.671875 0 
L 8.25 0 
L 8.25 71.09375 
L 34.46875 71.09375 
Q 46.578125 71.09375 53 64.984375 
Q 59.421875 58.890625 59.421875 49.421875 
Q 59.421875 39.109375 53 33.484375 
Q 46.578125 27.875 34.46875 27.875 
z
M 17.671875 63.375 
L 17.671875 35.546875 
L 34.46875 35.546875 
Q 42.78125 35.546875 46.390625 39.40625 
Q 50 43.265625 50 49.3125 
Q 50 54.78125 46.390625 59.078125 
Q 42.78125 63.375 34.46875 63.375 
z
" id="Roboto-Regular-80"/>
       <path d="M 24.90625 -8.15625 
Q 20.21875 -20.5625 10.75 -21.296875 
L 9.234375 -21.34375 
Q 6.34375 -21.34375 4.15625 -20.5625 
L 4.109375 -13.234375 
L 6.546875 -13.421875 
Q 11.140625 -13.421875 13.71875 -11.546875 
Q 16.3125 -9.671875 17.96875 -4.78125 
L 19.921875 0.59375 
L 1.078125 52.828125 
L 10.9375 52.828125 
L 24.171875 13.28125 
L 36.421875 52.828125 
L 46.09375 52.828125 
z
" id="Roboto-Regular-121"/>
      </defs>
      <g style="fill:#808080;" transform="translate(116.216127 237.156934)rotate(-42.5)scale(0.1 -0.1)">
       <use xlink:href="#Roboto-Regular-80"/>
       <use x="63.085938" xlink:href="#Roboto-Regular-104"/>
       <use x="118.164062" xlink:href="#Roboto-Regular-121"/>
       <use x="165.478516" xlink:href="#Roboto-Regular-115"/>
       <use x="217.089844" xlink:href="#Roboto-Regular-105"/>
       <use x="241.40625" xlink:href="#Roboto-Regular-99"/>
       <use x="293.75" xlink:href="#Roboto-Regular-115"/>
      </g>
     </g>
    </g>
    <g id="xtick_5">
     <g id="line2d_5"/>
     <g id="text_5">
      <!-- Zoology -->
      <defs>
       <path d="M 4.890625 63.375 
L 4.890625 71.09375 
L 54.390625 71.09375 
L 54.390625 64.265625 
L 15.328125 7.671875 
L 55.953125 7.671875 
L 55.953125 0 
L 4.25 0 
L 4.25 7.03125 
L 43.21875 63.375 
z
" id="Roboto-Regular-90"/>
       <path d="M 16.703125 75 
L 16.703125 0 
L 7.625 0 
L 7.625 75 
z
" id="Roboto-Regular-108"/>
      </defs>
      <g style="fill:#808080;" transform="translate(143.588599 238.063703)rotate(-42.5)scale(0.1 -0.1)">
       <use xlink:href="#Roboto-Regular-90"/>
       <use x="59.912109" xlink:href="#Roboto-Regular-111"/>
       <use x="116.943359" xlink:href="#Roboto-Regular-111"/>
       <use x="173.974609" xlink:href="#Roboto-Regular-108"/>
       <use x="198.291016" xlink:href="#Roboto-Regular-111"/>
       <use x="255.322266" xlink:href="#Roboto-Regular-103"/>
       <use x="311.474609" xlink:href="#Roboto-Regular-121"/>
      </g>
     </g>
    </g>
    <g id="xtick_6">
     <g id="line2d_6"/>
     <g id="text_6">
      <!-- Statistics -->
      <g style="fill:#808080;" transform="translate(167.793633 241.936735)rotate(-42.5)scale(0.1 -0.1)">
       <use xlink:href="#Roboto-Regular-83"/>
       <use x="59.375" xlink:href="#Roboto-Regular-116"/>
       <use x="92.089844" xlink:href="#Roboto-Regular-97"/>
       <use x="146.484375" xlink:href="#Roboto-Regular-116"/>
       <use x="179.199219" xlink:href="#Roboto-Regular-105"/>
       <use x="203.515625" xlink:href="#Roboto-Regular-115"/>
       <use x="255.126953" xlink:href="#Roboto-Regular-116"/>
       <use x="287.841797" xlink:href="#Roboto-Regular-105"/>
       <use x="312.158203" xlink:href="#Roboto-Regular-99"/>
       <use x="364.501953" xlink:href="#Roboto-Regular-115"/>
      </g>
     </g>
    </g>
    <g id="xtick_7">
     <g id="line2d_7"/>
     <g id="text_7">
      <!-- Plant Sci -->
      <g style="fill:#808080;" transform="translate(198.038031 240.211868)rotate(-42.5)scale(0.1 -0.1)">
       <use xlink:href="#Roboto-Regular-80"/>
       <use x="63.085938" xlink:href="#Roboto-Regular-108"/>
       <use x="87.402344" xlink:href="#Roboto-Regular-97"/>
       <use x="141.796875" xlink:href="#Roboto-Regular-110"/>
       <use x="197.021484" xlink:href="#Roboto-Regular-116"/>
       <use x="229.736328" xlink:href="#Roboto-Regular-32"/>
       <use x="254.541016" xlink:href="#Roboto-Regular-83"/>
       <use x="313.916016" xlink:href="#Roboto-Regular-99"/>
       <use x="366.259766" xlink:href="#Roboto-Regular-105"/>
      </g>
     </g>
    </g>
    <g id="xtick_8">
     <g id="line2d_8"/>
     <g id="text_8">
      <!-- Earth Sci -->
      <g style="fill:#808080;" transform="translate(226.16506 240.427213)rotate(-42.5)scale(0.1 -0.1)">
       <use xlink:href="#Roboto-Regular-69"/>
       <use x="56.835938" xlink:href="#Roboto-Regular-97"/>
       <use x="111.230469" xlink:href="#Roboto-Regular-114"/>
       <use x="145.117188" xlink:href="#Roboto-Regular-116"/>
       <use x="177.832031" xlink:href="#Roboto-Regular-104"/>
       <use x="232.910156" xlink:href="#Roboto-Regular-32"/>
       <use x="257.714844" xlink:href="#Roboto-Regular-83"/>
       <use x="317.089844" xlink:href="#Roboto-Regular-99"/>
       <use x="369.433594" xlink:href="#Roboto-Regular-105"/>
      </g>
     </g>
    </g>
    <g id="xtick_9">
     <g id="line2d_9"/>
     <g id="text_9">
      <!-- Materials -->
      <g style="fill:#808080;" transform="translate(252.89011 241.927234)rotate(-42.5)scale(0.1 -0.1)">
       <use xlink:href="#Roboto-Regular-77"/>
       <use x="87.304688" xlink:href="#Roboto-Regular-97"/>
       <use x="141.699219" xlink:href="#Roboto-Regular-116"/>
       <use x="174.414062" xlink:href="#Roboto-Regular-101"/>
       <use x="227.441406" xlink:href="#Roboto-Regular-114"/>
       <use x="261.328125" xlink:href="#Roboto-Regular-105"/>
       <use x="285.644531" xlink:href="#Roboto-Regular-97"/>
       <use x="340.039062" xlink:href="#Roboto-Regular-108"/>
       <use x="364.355469" xlink:href="#Roboto-Regular-115"/>
      </g>
     </g>
    </g>
    <g id="xtick_10">
     <g id="line2d_10"/>
     <g id="text_10">
      <!-- Chemistry -->
      <g style="fill:#808080;" transform="translate(278.618134 244.277021)rotate(-42.5)scale(0.1 -0.1)">
       <use xlink:href="#Roboto-Regular-67"/>
       <use x="65.087891" xlink:href="#Roboto-Regular-104"/>
       <use x="120.166016" xlink:href="#Roboto-Regular-101"/>
       <use x="173.193359" xlink:href="#Roboto-Regular-109"/>
       <use x="260.888672" xlink:href="#Roboto-Regular-105"/>
       <use x="285.205078" xlink:href="#Roboto-Regular-115"/>
       <use x="336.816406" xlink:href="#Roboto-Regular-116"/>
       <use x="369.53125" xlink:href="#Roboto-Regular-114"/>
       <use x="403.417969" xlink:href="#Roboto-Regular-121"/>
      </g>
     </g>
    </g>
    <g id="xtick_11">
     <g id="line2d_11"/>
     <g id="text_11">
      <!-- e-Research -->
      <defs>
       <path d="M 25.6875 33.9375 
L 25.6875 26.515625 
L 1.859375 26.515625 
L 1.859375 33.9375 
z
" id="Roboto-Regular-45"/>
       <path d="M 49.8125 0 
L 34.375 28.8125 
L 17.671875 28.8125 
L 17.671875 0 
L 8.25 0 
L 8.25 71.09375 
L 31.78125 71.09375 
Q 43.75 71.09375 50.21875 65.625 
Q 56.6875 60.15625 56.6875 49.75 
Q 56.6875 43.109375 53.09375 38.15625 
Q 49.515625 33.203125 43.171875 30.765625 
L 59.859375 0.59375 
L 59.859375 0 
z
M 17.671875 63.375 
L 17.671875 36.46875 
L 32.078125 36.46875 
Q 39.65625 36.46875 43.484375 40.34375 
Q 47.3125 44.234375 47.3125 49.75 
Q 47.3125 55.90625 43.625 59.640625 
Q 39.9375 63.375 31.78125 63.375 
z
" id="Roboto-Regular-82"/>
      </defs>
      <g style="fill:#808080;" transform="translate(303.737852 247.311899)rotate(-42.5)scale(0.1 -0.1)">
       <use xlink:href="#Roboto-Regular-101"/>
       <use x="53.027344" xlink:href="#Roboto-Regular-45"/>
       <use x="80.664062" xlink:href="#Roboto-Regular-82"/>
       <use x="142.285156" xlink:href="#Roboto-Regular-101"/>
       <use x="195.3125" xlink:href="#Roboto-Regular-115"/>
       <use x="246.923828" xlink:href="#Roboto-Regular-101"/>
       <use x="299.951172" xlink:href="#Roboto-Regular-97"/>
       <use x="354.345703" xlink:href="#Roboto-Regular-114"/>
       <use x="388.232422" xlink:href="#Roboto-Regular-99"/>
       <use x="440.576172" xlink:href="#Roboto-Regular-104"/>
      </g>
     </g>
    </g>
    <g id="xtick_12">
     <g id="line2d_12"/>
     <g id="text_12">
      <!-- Begbroke -->
      <defs>
       <path d="M 56.640625 20.515625 
Q 56.640625 10.546875 50.21875 5.265625 
Q 43.796875 0 33.15625 0 
L 8.25 0 
L 8.25 71.09375 
L 31.546875 71.09375 
Q 42.484375 71.09375 48.609375 66.578125 
Q 54.734375 62.0625 54.734375 52.15625 
Q 54.734375 47.21875 51.921875 43.375 
Q 49.125 39.546875 44.234375 37.453125 
Q 50.25 35.796875 53.4375 31.15625 
Q 56.640625 26.515625 56.640625 20.515625 
z
M 17.671875 63.375 
L 17.671875 40.828125 
L 31.84375 40.828125 
Q 37.890625 40.828125 41.59375 43.84375 
Q 45.3125 46.875 45.3125 52.25 
Q 45.3125 63.140625 32.125 63.375 
z
M 47.265625 20.40625 
Q 47.265625 26.375 44.015625 29.8125 
Q 40.765625 33.25 33.59375 33.25 
L 17.671875 33.25 
L 17.671875 7.671875 
L 33.15625 7.671875 
Q 39.84375 7.671875 43.546875 11.109375 
Q 47.265625 14.546875 47.265625 20.40625 
z
" id="Roboto-Regular-66"/>
       <path d="M 51.609375 25.828125 
Q 51.609375 14.265625 46.234375 6.640625 
Q 40.875 -0.984375 31.0625 -0.984375 
Q 21.046875 -0.984375 15.625 6.109375 
L 15.140625 0 
L 6.84375 0 
L 6.84375 75 
L 15.921875 75 
L 15.921875 47.125 
Q 21.296875 53.8125 30.953125 53.8125 
Q 40.921875 53.8125 46.265625 46.390625 
Q 51.609375 38.96875 51.609375 26.859375 
z
M 28.71875 46.1875 
Q 23.78125 46.1875 20.703125 43.8125 
Q 17.625 41.453125 15.921875 37.984375 
L 15.921875 14.984375 
Q 17.671875 11.46875 20.796875 9.078125 
Q 23.921875 6.6875 28.8125 6.6875 
Q 36.140625 6.6875 39.328125 12.328125 
Q 42.53125 17.96875 42.53125 25.828125 
L 42.53125 26.859375 
Q 42.53125 34.71875 39.46875 40.453125 
Q 36.421875 46.1875 28.71875 46.1875 
z
" id="Roboto-Regular-98"/>
       <path d="M 39.984375 0 
L 21.6875 24.515625 
L 15.96875 18.609375 
L 15.96875 0 
L 6.890625 0 
L 6.890625 75 
L 15.96875 75 
L 15.96875 29.6875 
L 20.796875 35.453125 
L 37.203125 52.828125 
L 48.25 52.828125 
L 27.640625 30.8125 
L 50.640625 0 
z
" id="Roboto-Regular-107"/>
      </defs>
      <g style="fill:#808080;" transform="translate(337.47377 242.354756)rotate(-42.5)scale(0.1 -0.1)">
       <use xlink:href="#Roboto-Regular-66"/>
       <use x="62.304688" xlink:href="#Roboto-Regular-101"/>
       <use x="115.332031" xlink:href="#Roboto-Regular-103"/>
       <use x="171.484375" xlink:href="#Roboto-Regular-98"/>
       <use x="227.636719" xlink:href="#Roboto-Regular-114"/>
       <use x="261.523438" xlink:href="#Roboto-Regular-111"/>
       <use x="318.554688" xlink:href="#Roboto-Regular-107"/>
       <use x="369.238281" xlink:href="#Roboto-Regular-101"/>
      </g>
     </g>
    </g>
    <g id="xtick_13">
     <g id="line2d_13"/>
     <g id="text_13">
      <!-- IBME -->
      <defs>
       <path d="M 18.359375 71.09375 
L 18.359375 0 
L 8.9375 0 
L 8.9375 71.09375 
z
" id="Roboto-Regular-73"/>
      </defs>
      <g style="fill:#808080;" transform="translate(379.778591 229.611436)rotate(-42.5)scale(0.1 -0.1)">
       <use xlink:href="#Roboto-Regular-73"/>
       <use x="27.197266" xlink:href="#Roboto-Regular-66"/>
       <use x="89.501953" xlink:href="#Roboto-Regular-77"/>
       <use x="176.806641" xlink:href="#Roboto-Regular-69"/>
      </g>
     </g>
    </g>
   </g>
   <g id="matplotlib.axis_2">
    <g id="ytick_1">
     <g id="line2d_14">
      <path clip-path="url(#pa70c5f4935)" d="M 43.853526 196.295213 
L 412.56 196.295213 
" style="fill:none;stroke:#bfbfbf;stroke-linecap:square;stroke-width:0.75;"/>
     </g>
     <g id="line2d_15"/>
     <g id="text_14">
      <!-- 0 -->
      <defs>
       <path d="M 50.53125 30.375 
Q 50.53125 12.890625 44.5 5.953125 
Q 38.484375 -0.984375 28.125 -0.984375 
Q 18.0625 -0.984375 11.9375 5.75 
Q 5.8125 12.5 5.609375 29.25 
L 5.609375 41.21875 
Q 5.609375 58.640625 11.71875 65.359375 
Q 17.828125 72.078125 28.03125 72.078125 
Q 38.234375 72.078125 44.28125 65.546875 
Q 50.34375 59.03125 50.53125 42.328125 
z
M 41.453125 42.71875 
Q 41.453125 54.734375 38.03125 59.71875 
Q 34.625 64.703125 28.03125 64.703125 
Q 21.6875 64.703125 18.234375 59.859375 
Q 14.796875 55.03125 14.703125 43.40625 
L 14.703125 28.90625 
Q 14.703125 17 18.1875 11.71875 
Q 21.6875 6.453125 28.125 6.453125 
Q 34.71875 6.453125 38.0625 11.640625 
Q 41.40625 16.84375 41.453125 28.515625 
z
" id="Roboto-Regular-48"/>
      </defs>
      <g style="fill:#808080;" transform="translate(26.233214 200.045213)scale(0.1 -0.1)">
       <use xlink:href="#Roboto-Regular-48"/>
      </g>
     </g>
    </g>
    <g id="ytick_2">
     <g id="line2d_16">
      <path clip-path="url(#pa70c5f4935)" d="M 43.853526 168.325715 
L 412.56 168.325715 
" style="fill:none;stroke:#bfbfbf;stroke-linecap:square;stroke-width:0.75;"/>
     </g>
     <g id="line2d_17"/>
     <g id="text_15">
      <!-- 10 -->
      <defs>
       <path d="M 35.59375 71.484375 
L 35.59375 0 
L 26.5625 0 
L 26.5625 60.203125 
L 8.34375 53.5625 
L 8.34375 61.71875 
L 34.1875 71.484375 
z
" id="Roboto-Regular-49"/>
      </defs>
      <g style="fill:#808080;" transform="translate(20.612901 172.075715)scale(0.1 -0.1)">
       <use xlink:href="#Roboto-Regular-49"/>
       <use x="56.201172" xlink:href="#Roboto-Regular-48"/>
      </g>
     </g>
    </g>
    <g id="ytick_3">
     <g id="line2d_18">
      <path clip-path="url(#pa70c5f4935)" d="M 43.853526 140.356218 
L 412.56 140.356218 
" style="fill:none;stroke:#bfbfbf;stroke-linecap:square;stroke-width:0.75;"/>
     </g>
     <g id="line2d_19"/>
     <g id="text_16">
      <!-- 20 -->
      <defs>
       <path d="M 52.484375 7.421875 
L 52.484375 0 
L 5.953125 0 
L 5.953125 6.5 
L 30.078125 33.34375 
Q 36.03125 40.09375 38.109375 44.046875 
Q 40.1875 48 40.1875 52 
Q 40.1875 57.234375 36.9375 60.9375 
Q 33.6875 64.65625 27.78125 64.65625 
Q 20.65625 64.65625 17.140625 60.59375 
Q 13.625 56.546875 13.625 50.203125 
L 4.59375 50.203125 
Q 4.59375 59.1875 10.5 65.625 
Q 16.40625 72.078125 27.78125 72.078125 
Q 37.84375 72.078125 43.53125 66.84375 
Q 49.21875 61.625 49.21875 53.078125 
Q 49.21875 46.828125 45.359375 40.5 
Q 41.5 34.1875 35.890625 28.078125 
L 16.84375 7.421875 
z
" id="Roboto-Regular-50"/>
      </defs>
      <g style="fill:#808080;" transform="translate(20.612901 144.106218)scale(0.1 -0.1)">
       <use xlink:href="#Roboto-Regular-50"/>
       <use x="56.201172" xlink:href="#Roboto-Regular-48"/>
      </g>
     </g>
    </g>
    <g id="ytick_4">
     <g id="line2d_20">
      <path clip-path="url(#pa70c5f4935)" d="M 43.853526 112.38672 
L 412.56 112.38672 
" style="fill:none;stroke:#bfbfbf;stroke-linecap:square;stroke-width:0.75;"/>
     </g>
     <g id="line2d_21"/>
     <g id="text_17">
      <!-- 30 -->
      <defs>
       <path d="M 19.09375 32.5625 
L 19.09375 39.984375 
L 25.734375 39.984375 
Q 32.71875 40.046875 36.125 43.5 
Q 39.546875 46.96875 39.546875 52.15625 
Q 39.546875 64.65625 27.15625 64.65625 
Q 21.390625 64.65625 17.828125 61.359375 
Q 14.265625 58.0625 14.265625 52.484375 
L 5.21875 52.484375 
Q 5.21875 60.640625 11.25 66.359375 
Q 17.28125 72.078125 27.15625 72.078125 
Q 36.765625 72.078125 42.703125 66.96875 
Q 48.640625 61.859375 48.640625 51.953125 
Q 48.640625 48 45.96875 43.5 
Q 43.3125 39.015625 37.453125 36.53125 
Q 44.53125 34.234375 47.109375 29.4375 
Q 49.703125 24.65625 49.703125 19.828125 
Q 49.703125 9.859375 43.25 4.4375 
Q 36.8125 -0.984375 27.203125 -0.984375 
Q 17.921875 -0.984375 11.28125 4.171875 
Q 4.640625 9.328125 4.640625 18.796875 
L 13.671875 18.796875 
Q 13.671875 13.1875 17.3125 9.8125 
Q 20.953125 6.453125 27.203125 6.453125 
Q 33.40625 6.453125 37.015625 9.71875 
Q 40.625 12.984375 40.625 19.625 
Q 40.625 26.265625 36.515625 29.40625 
Q 32.421875 32.5625 25.53125 32.5625 
z
" id="Roboto-Regular-51"/>
      </defs>
      <g style="fill:#808080;" transform="translate(20.612901 116.13672)scale(0.1 -0.1)">
       <use xlink:href="#Roboto-Regular-51"/>
       <use x="56.201172" xlink:href="#Roboto-Regular-48"/>
      </g>
     </g>
    </g>
    <g id="ytick_5">
     <g id="line2d_22">
      <path clip-path="url(#pa70c5f4935)" d="M 43.853526 84.417222 
L 412.56 84.417222 
" style="fill:none;stroke:#bfbfbf;stroke-linecap:square;stroke-width:0.75;"/>
     </g>
     <g id="line2d_23"/>
     <g id="text_18">
      <!-- 40 -->
      <defs>
       <path d="M 2.59375 21.828125 
L 34.421875 71.09375 
L 44.046875 71.09375 
L 44.046875 23.921875 
L 53.953125 23.921875 
L 53.953125 16.5 
L 44.046875 16.5 
L 44.046875 0 
L 35.015625 0 
L 35.015625 16.5 
L 2.59375 16.5 
z
M 12.84375 23.921875 
L 35.015625 23.921875 
L 35.015625 58.84375 
L 33.890625 56.84375 
z
" id="Roboto-Regular-52"/>
      </defs>
      <g style="fill:#808080;" transform="translate(20.612901 88.167222)scale(0.1 -0.1)">
       <use xlink:href="#Roboto-Regular-52"/>
       <use x="56.201172" xlink:href="#Roboto-Regular-48"/>
      </g>
     </g>
    </g>
    <g id="ytick_6">
     <g id="line2d_24">
      <path clip-path="url(#pa70c5f4935)" d="M 43.853526 56.447725 
L 412.56 56.447725 
" style="fill:none;stroke:#bfbfbf;stroke-linecap:square;stroke-width:0.75;"/>
     </g>
     <g id="line2d_25"/>
     <g id="text_19">
      <!-- 50 -->
      <defs>
       <path d="M 17.328125 33.84375 
L 10.109375 35.6875 
L 13.671875 71.09375 
L 50.140625 71.09375 
L 50.140625 62.75 
L 21.34375 62.75 
L 19.1875 43.40625 
Q 24.5625 46.484375 31.0625 46.484375 
Q 40.875 46.484375 46.5625 40.015625 
Q 52.25 33.546875 52.25 22.65625 
Q 52.25 12.453125 46.671875 5.734375 
Q 41.109375 -0.984375 29.734375 -0.984375 
Q 21.09375 -0.984375 14.796875 3.875 
Q 8.5 8.734375 7.515625 18.703125 
L 16.109375 18.703125 
Q 17.828125 6.453125 29.734375 6.453125 
Q 36.140625 6.453125 39.65625 10.796875 
Q 43.171875 15.140625 43.171875 22.5625 
Q 43.171875 29.25 39.484375 33.8125 
Q 35.796875 38.375 28.953125 38.375 
Q 24.421875 38.375 22.078125 37.15625 
Q 19.734375 35.9375 17.328125 33.84375 
z
" id="Roboto-Regular-53"/>
      </defs>
      <g style="fill:#808080;" transform="translate(20.612901 60.197725)scale(0.1 -0.1)">
       <use xlink:href="#Roboto-Regular-53"/>
       <use x="56.201172" xlink:href="#Roboto-Regular-48"/>
      </g>
     </g>
    </g>
   </g>
   <g id="patch_3">
    <path clip-path="url(#pa70c5f4935)" d="M 50.944035 196.295213 
L 65.125054 196.295213 
L 65.125054 45.259926 
L 50.944035 45.259926 
z
" style="fill:#0072bd;"/>
   </g>
   <g id="patch_4">
    <path clip-path="url(#pa70c5f4935)" d="M 79.306072 196.295213 
L 93.48709 196.295213 
L 93.48709 76.026373 
L 79.306072 76.026373 
z
" style="fill:#0072bd;"/>
   </g>
   <g id="patch_5">
    <path clip-path="url(#pa70c5f4935)" d="M 107.668108 196.295213 
L 121.849126 196.295213 
L 121.849126 90.011122 
L 107.668108 90.011122 
z
" style="fill:#0072bd;"/>
   </g>
   <g id="patch_6">
    <path clip-path="url(#pa70c5f4935)" d="M 136.030145 196.295213 
L 150.211163 196.295213 
L 150.211163 101.198921 
L 136.030145 101.198921 
z
" style="fill:#0072bd;"/>
   </g>
   <g id="patch_7">
    <path clip-path="url(#pa70c5f4935)" d="M 164.392181 196.295213 
L 178.573199 196.295213 
L 178.573199 162.731816 
L 164.392181 162.731816 
z
" style="fill:#0072bd;"/>
   </g>
   <g id="patch_8">
    <path clip-path="url(#pa70c5f4935)" d="M 192.754218 196.295213 
L 206.935236 196.295213 
L 206.935236 165.528765 
L 192.754218 165.528765 
z
" style="fill:#0072bd;"/>
   </g>
   <g id="patch_9">
    <path clip-path="url(#pa70c5f4935)" d="M 221.116254 196.295213 
L 235.297272 196.295213 
L 235.297272 171.122665 
L 221.116254 171.122665 
z
" style="fill:#0072bd;"/>
   </g>
   <g id="patch_10">
    <path clip-path="url(#pa70c5f4935)" d="M 249.47829 196.295213 
L 263.659309 196.295213 
L 263.659309 173.919615 
L 249.47829 173.919615 
z
" style="fill:#0072bd;"/>
   </g>
   <g id="patch_11">
    <path clip-path="url(#pa70c5f4935)" d="M 277.840327 196.295213 
L 292.021345 196.295213 
L 292.021345 176.716564 
L 277.840327 176.716564 
z
" style="fill:#0072bd;"/>
   </g>
   <g id="patch_12">
    <path clip-path="url(#pa70c5f4935)" d="M 306.202363 196.295213 
L 320.383382 196.295213 
L 320.383382 182.310464 
L 306.202363 182.310464 
z
" style="fill:#0072bd;"/>
   </g>
   <g id="patch_13">
    <path clip-path="url(#pa70c5f4935)" d="M 334.5644 196.295213 
L 348.745418 196.295213 
L 348.745418 187.904363 
L 334.5644 187.904363 
z
" style="fill:#0072bd;"/>
   </g>
   <g id="patch_14">
    <path clip-path="url(#pa70c5f4935)" d="M 362.926436 196.295213 
L 377.107454 196.295213 
L 377.107454 193.498263 
L 362.926436 193.498263 
z
" style="fill:#0072bd;"/>
   </g>
   <g id="patch_15">
    <path clip-path="url(#pa70c5f4935)" d="M 391.288473 196.295213 
L 405.469491 196.295213 
L 405.469491 193.498263 
L 391.288473 193.498263 
z
" style="fill:#0072bd;"/>
   </g>
   <g id="patch_16">
    <path d="M 43.853526 196.295213 
L 412.56 196.295213 
" style="fill:none;stroke:#bfbfbf;stroke-linecap:square;stroke-linejoin:miter;stroke-width:1.5;"/>
   </g>
   <g id="text_20">
    <!--   -->
    <g transform="translate(43.853526 25.259926)scale(0.12 -0.12)">
     <use xlink:href="#Roboto-Regular-32"/>
    </g>
   </g>
  </g>
  <g id="text_21">
   <!-- Responses from MPLS departments  (N=226) -->
   <defs>
    <path d="M 31.59375 45.90625 
L 20.359375 45.90625 
L 20.359375 0 
L 11.328125 0 
L 11.328125 45.90625 
L 2.984375 45.90625 
L 2.984375 52.828125 
L 11.328125 52.828125 
L 11.328125 58.734375 
Q 11.421875 67.140625 16.03125 71.578125 
Q 20.65625 76.03125 28.65625 76.03125 
Q 31.640625 76.03125 34.90625 75.25 
L 34.421875 67.875 
Q 32.375 68.3125 29.546875 68.3125 
Q 20.515625 68.3125 20.359375 58.6875 
L 20.359375 52.828125 
L 31.59375 52.828125 
z
" id="Roboto-Regular-102"/>
    <path d="M 51.375 7.671875 
L 51.375 0 
L 8.25 0 
L 8.25 71.09375 
L 17.671875 71.09375 
L 17.671875 7.671875 
z
" id="Roboto-Regular-76"/>
    <path d="M 40.96875 0 
L 40.53125 5.671875 
Q 35.109375 -0.984375 25.4375 -0.984375 
Q 16.15625 -0.984375 10.4375 6.53125 
Q 4.734375 14.0625 4.640625 25.4375 
L 4.640625 26.859375 
Q 4.640625 38.96875 10.375 46.390625 
Q 16.109375 53.8125 25.53125 53.8125 
Q 34.859375 53.8125 40.1875 47.5625 
L 40.1875 75 
L 49.265625 75 
L 49.265625 0 
z
M 13.71875 25.828125 
Q 13.71875 17.96875 17.03125 12.328125 
Q 20.359375 6.6875 27.6875 6.6875 
Q 36.078125 6.6875 40.1875 14.359375 
L 40.1875 38.671875 
Q 36.140625 46.1875 27.78125 46.1875 
Q 20.40625 46.1875 17.0625 40.453125 
Q 13.71875 34.71875 13.71875 26.859375 
z
" id="Roboto-Regular-100"/>
    <path d="M 6.546875 28.90625 
Q 6.546875 43.0625 10.59375 53.65625 
Q 14.65625 64.265625 20.21875 70.953125 
Q 25.78125 77.640625 30.421875 80.21875 
L 32.328125 74.265625 
Q 26.5625 69.921875 21.0625 58.765625 
Q 15.578125 47.609375 15.578125 28.328125 
Q 15.578125 9.765625 21.0625 -1.515625 
Q 26.5625 -12.796875 32.328125 -17.484375 
L 30.421875 -22.953125 
Q 25.78125 -20.40625 20.21875 -13.71875 
Q 14.65625 -7.03125 10.59375 3.53125 
Q 6.546875 14.109375 6.546875 28.90625 
z
" id="Roboto-Regular-40"/>
    <path d="M 62.9375 71.09375 
L 62.9375 0 
L 53.46875 0 
L 17.671875 54.828125 
L 17.671875 0 
L 8.25 0 
L 8.25 71.09375 
L 17.671875 71.09375 
L 53.609375 16.109375 
L 53.609375 71.09375 
z
" id="Roboto-Regular-78"/>
    <path d="M 48.140625 47.609375 
L 48.140625 39.75 
L 7.421875 39.75 
L 7.421875 47.609375 
z
M 48.140625 27.34375 
L 48.140625 19.484375 
L 7.421875 19.484375 
L 7.421875 27.34375 
z
" id="Roboto-Regular-61"/>
    <path d="M 51.421875 23.1875 
Q 51.421875 13.09375 45.78125 6.046875 
Q 40.140625 -0.984375 29.34375 -0.984375 
Q 21.6875 -0.984375 16.609375 3.09375 
Q 11.53125 7.171875 9.015625 13.453125 
Q 6.5 19.734375 6.5 26.3125 
L 6.5 30.5625 
Q 6.5 40.578125 9.296875 49.90625 
Q 12.109375 59.234375 19.484375 65.203125 
Q 26.859375 71.1875 40.578125 71.1875 
L 41.359375 71.1875 
L 41.359375 63.53125 
Q 31.890625 63.53125 26.640625 60.203125 
Q 21.390625 56.890625 18.828125 51.59375 
Q 16.265625 46.296875 15.71875 40.234375 
Q 21.390625 46.625 31 46.625 
Q 38.09375 46.625 42.609375 43.203125 
Q 47.125 39.796875 49.265625 34.390625 
Q 51.421875 29 51.421875 23.1875 
z
M 15.578125 26.03125 
Q 15.578125 16.546875 19.796875 11.515625 
Q 24.03125 6.5 29.34375 6.5 
Q 35.59375 6.5 39.03125 11.0625 
Q 42.484375 15.625 42.484375 22.75 
Q 42.484375 29.109375 39.3125 34.125 
Q 36.140625 39.15625 29.546875 39.15625 
Q 24.8125 39.15625 20.953125 36.328125 
Q 17.09375 33.5 15.578125 29.4375 
z
" id="Roboto-Regular-54"/>
    <path d="M 27.6875 28.421875 
Q 27.6875 14.15625 23.625 3.5625 
Q 19.578125 -7.03125 13.984375 -13.71875 
Q 8.40625 -20.40625 3.8125 -22.953125 
L 1.90625 -17.484375 
Q 7.625 -13.140625 13.140625 -1.703125 
Q 18.65625 9.71875 18.65625 29 
Q 18.65625 41.359375 15.921875 50.5625 
Q 13.1875 59.765625 9.28125 65.8125 
Q 5.375 71.875 1.90625 74.703125 
L 3.8125 80.21875 
Q 8.40625 77.640625 13.984375 70.953125 
Q 19.578125 64.265625 23.625 53.6875 
Q 27.6875 43.109375 27.6875 28.421875 
z
" id="Roboto-Regular-41"/>
   </defs>
   <g style="fill:#808080;" transform="translate(12.96 20.306102)scale(0.12 -0.12)">
    <use xlink:href="#Roboto-Regular-82"/>
    <use x="61.621094" xlink:href="#Roboto-Regular-101"/>
    <use x="114.648438" xlink:href="#Roboto-Regular-115"/>
    <use x="166.259766" xlink:href="#Roboto-Regular-112"/>
    <use x="222.412109" xlink:href="#Roboto-Regular-111"/>
    <use x="279.443359" xlink:href="#Roboto-Regular-110"/>
    <use x="334.667969" xlink:href="#Roboto-Regular-115"/>
    <use x="386.279297" xlink:href="#Roboto-Regular-101"/>
    <use x="439.306641" xlink:href="#Roboto-Regular-115"/>
    <use x="490.917969" xlink:href="#Roboto-Regular-32"/>
    <use x="515.722656" xlink:href="#Roboto-Regular-102"/>
    <use x="550.488281" xlink:href="#Roboto-Regular-114"/>
    <use x="584.375" xlink:href="#Roboto-Regular-111"/>
    <use x="641.40625" xlink:href="#Roboto-Regular-109"/>
    <use x="729.101562" xlink:href="#Roboto-Regular-32"/>
    <use x="753.90625" xlink:href="#Roboto-Regular-77"/>
    <use x="841.210938" xlink:href="#Roboto-Regular-80"/>
    <use x="904.296875" xlink:href="#Roboto-Regular-76"/>
    <use x="958.154297" xlink:href="#Roboto-Regular-83"/>
    <use x="1017.529297" xlink:href="#Roboto-Regular-32"/>
    <use x="1042.333984" xlink:href="#Roboto-Regular-100"/>
    <use x="1098.730469" xlink:href="#Roboto-Regular-101"/>
    <use x="1151.757812" xlink:href="#Roboto-Regular-112"/>
    <use x="1207.910156" xlink:href="#Roboto-Regular-97"/>
    <use x="1262.304688" xlink:href="#Roboto-Regular-114"/>
    <use x="1296.191406" xlink:href="#Roboto-Regular-116"/>
    <use x="1328.90625" xlink:href="#Roboto-Regular-109"/>
    <use x="1416.601562" xlink:href="#Roboto-Regular-101"/>
    <use x="1469.628906" xlink:href="#Roboto-Regular-110"/>
    <use x="1524.853516" xlink:href="#Roboto-Regular-116"/>
    <use x="1557.568359" xlink:href="#Roboto-Regular-115"/>
    <use x="1609.179688" xlink:href="#Roboto-Regular-32"/>
    <use x="1633.984375" xlink:href="#Roboto-Regular-32"/>
    <use x="1658.789062" xlink:href="#Roboto-Regular-40"/>
    <use x="1693.017578" xlink:href="#Roboto-Regular-78"/>
    <use x="1764.355469" xlink:href="#Roboto-Regular-61"/>
    <use x="1819.238281" xlink:href="#Roboto-Regular-50"/>
    <use x="1875.439453" xlink:href="#Roboto-Regular-50"/>
    <use x="1931.640625" xlink:href="#Roboto-Regular-54"/>
    <use x="1987.841797" xlink:href="#Roboto-Regular-41"/>
   </g>
  </g>
 </g>
 <defs>
  <clipPath id="pa70c5f4935">
   <rect height="151.035287" width="368.706474" x="43.853526" y="45.259926"/>
  </clipPath>
 </defs>
</svg>
