<?xml version="1.0" encoding="utf-8" standalone="no"?>
<!DOCTYPE svg PUBLIC "-//W3C//DTD SVG 1.1//EN"
  "http://www.w3.org/Graphics/SVG/1.1/DTD/svg11.dtd">
<!-- Created with matplotlib (http://matplotlib.org/) -->
<svg height="266pt" version="1.1" viewBox="0 0 432 266" width="432pt" xmlns="http://www.w3.org/2000/svg" xmlns:xlink="http://www.w3.org/1999/xlink">
 <defs>
  <style type="text/css">
*{stroke-linecap:butt;stroke-linejoin:round;}
  </style>
 </defs>
 <g id="figure_1">
  <g id="patch_1">
   <path d="M 0 266.996292 
L 432 266.996292 
L 432 0 
L 0 0 
z
" style="fill:#ffffff;"/>
  </g>
  <g id="axes_1">
   <g id="patch_2">
    <path d="M 48.84375 231.993866 
L 411.12 231.993866 
L 411.12 42.619926 
L 48.84375 42.619926 
z
" style="fill:#ffffff;"/>
   </g>
   <g id="matplotlib.axis_1">
    <g id="xtick_1">
     <g id="line2d_1"/>
     <g id="text_1">
      <!-- Yes -->
      <defs>
       <path d="M 29.9375 35.40625 
L 48.484375 71.09375 
L 59.125 71.09375 
L 34.625 26.515625 
L 34.625 0 
L 25.25 0 
L 25.25 26.515625 
L 0.734375 71.09375 
L 11.46875 71.09375 
z
" id="Roboto-Regular-59"/>
       <path d="M 28.765625 -0.984375 
Q 18.015625 -0.984375 11.28125 6.078125 
Q 4.546875 13.140625 4.546875 24.953125 
L 4.546875 26.609375 
Q 4.546875 34.46875 7.546875 40.640625 
Q 10.546875 46.828125 15.9375 50.3125 
Q 21.34375 53.8125 27.640625 53.8125 
Q 37.9375 53.8125 43.640625 47.015625 
Q 49.359375 40.234375 49.359375 27.59375 
L 49.359375 23.828125 
L 13.578125 23.828125 
Q 13.765625 16.015625 18.140625 11.203125 
Q 22.515625 6.390625 29.25 6.390625 
Q 34.03125 6.390625 37.34375 8.34375 
Q 40.671875 10.296875 43.171875 13.53125 
L 48.6875 9.234375 
Q 42.046875 -0.984375 28.765625 -0.984375 
z
M 27.640625 46.390625 
Q 22.171875 46.390625 18.453125 42.40625 
Q 14.75 38.421875 13.875 31.25 
L 40.328125 31.25 
L 40.328125 31.9375 
Q 39.9375 38.8125 36.609375 42.59375 
Q 33.296875 46.390625 27.640625 46.390625 
z
" id="Roboto-Regular-65"/>
       <path d="M 37.59375 14.015625 
Q 37.59375 17.671875 34.828125 19.703125 
Q 32.078125 21.734375 25.21875 23.1875 
Q 18.359375 24.65625 14.328125 26.703125 
Q 10.296875 28.765625 8.375 31.59375 
Q 6.453125 34.421875 6.453125 38.328125 
Q 6.453125 44.828125 11.9375 49.3125 
Q 17.4375 53.8125 25.984375 53.8125 
Q 34.96875 53.8125 40.546875 49.171875 
Q 46.140625 44.53125 46.140625 37.3125 
L 37.0625 37.3125 
Q 37.0625 41.015625 33.90625 43.703125 
Q 30.765625 46.390625 25.984375 46.390625 
Q 21.046875 46.390625 18.265625 44.234375 
Q 15.484375 42.09375 15.484375 38.625 
Q 15.484375 35.359375 18.0625 33.6875 
Q 20.65625 32.03125 27.421875 30.515625 
Q 34.1875 29 38.375 26.90625 
Q 42.578125 24.8125 44.59375 21.84375 
Q 46.625 18.890625 46.625 14.65625 
Q 46.625 7.5625 40.953125 3.28125 
Q 35.296875 -0.984375 26.265625 -0.984375 
Q 19.921875 -0.984375 15.03125 1.265625 
Q 10.15625 3.515625 7.390625 7.546875 
Q 4.640625 11.578125 4.640625 16.265625 
L 13.671875 16.265625 
Q 13.921875 11.71875 17.3125 9.046875 
Q 20.703125 6.390625 26.265625 6.390625 
Q 31.390625 6.390625 34.484375 8.46875 
Q 37.59375 10.546875 37.59375 14.015625 
z
" id="Roboto-Regular-73"/>
      </defs>
      <g style="fill:#808080;" transform="translate(131.182344 251.493866)scale(0.1 -0.1)">
       <use xlink:href="#Roboto-Regular-59"/>
       <use x="60.058594" xlink:href="#Roboto-Regular-65"/>
       <use x="113.037109" xlink:href="#Roboto-Regular-73"/>
      </g>
     </g>
    </g>
    <g id="xtick_2">
     <g id="line2d_2"/>
     <g id="text_2">
      <!-- No -->
      <defs>
       <path d="M 62.890625 0 
L 53.46875 0 
L 17.671875 54.78125 
L 17.671875 0 
L 8.25 0 
L 8.25 71.09375 
L 17.671875 71.09375 
L 53.5625 16.0625 
L 53.5625 71.09375 
L 62.890625 71.09375 
z
" id="Roboto-Regular-4e"/>
       <path d="M 4.4375 26.90625 
Q 4.4375 34.671875 7.484375 40.875 
Q 10.546875 47.078125 15.984375 50.4375 
Q 21.4375 53.8125 28.421875 53.8125 
Q 39.203125 53.8125 45.875 46.34375 
Q 52.546875 38.875 52.546875 26.46875 
L 52.546875 25.828125 
Q 52.546875 18.109375 49.578125 11.984375 
Q 46.625 5.859375 41.125 2.4375 
Q 35.640625 -0.984375 28.515625 -0.984375 
Q 17.78125 -0.984375 11.109375 6.484375 
Q 4.4375 13.96875 4.4375 26.265625 
z
M 13.53125 25.828125 
Q 13.53125 17.046875 17.609375 11.71875 
Q 21.6875 6.390625 28.515625 6.390625 
Q 35.40625 6.390625 39.453125 11.78125 
Q 43.5 17.1875 43.5 26.90625 
Q 43.5 35.59375 39.375 40.984375 
Q 35.25 46.390625 28.421875 46.390625 
Q 21.734375 46.390625 17.625 41.0625 
Q 13.53125 35.75 13.53125 25.828125 
z
" id="Roboto-Regular-6f"/>
      </defs>
      <g style="fill:#808080;" transform="translate(314.134531 251.493866)scale(0.1 -0.1)">
       <use xlink:href="#Roboto-Regular-4e"/>
       <use x="71.289062" xlink:href="#Roboto-Regular-6f"/>
      </g>
     </g>
    </g>
   </g>
   <g id="matplotlib.axis_2">
    <g id="ytick_1">
     <g id="line2d_3">
      <path clip-path="url(#pd81ad42572)" d="M 48.84375 231.993866 
L 411.12 231.993866 
" style="fill:none;stroke:#bfbfbf;stroke-linecap:square;stroke-width:0.75;"/>
     </g>
     <g id="line2d_4"/>
     <g id="text_3">
      <!-- 0% -->
      <defs>
       <path d="M 50.484375 30.328125 
Q 50.484375 14.453125 45.0625 6.734375 
Q 39.65625 -0.984375 28.125 -0.984375 
Q 16.75 -0.984375 11.28125 6.5625 
Q 5.8125 14.109375 5.609375 29.109375 
L 5.609375 41.15625 
Q 5.609375 56.84375 11.03125 64.453125 
Q 16.453125 72.078125 28.03125 72.078125 
Q 39.5 72.078125 44.921875 64.71875 
Q 50.34375 57.375 50.484375 42.046875 
z
M 41.453125 42.671875 
Q 41.453125 54.15625 38.234375 59.40625 
Q 35.015625 64.65625 28.03125 64.65625 
Q 21.09375 64.65625 17.921875 59.421875 
Q 14.75 54.203125 14.65625 43.359375 
L 14.65625 28.90625 
Q 14.65625 17.390625 18 11.890625 
Q 21.34375 6.390625 28.125 6.390625 
Q 34.8125 6.390625 38.0625 11.5625 
Q 41.3125 16.75 41.453125 27.875 
z
" id="Roboto-Regular-30"/>
       <path d="M 5.125 57.421875 
Q 5.125 63.8125 9.203125 67.96875 
Q 13.28125 72.125 19.671875 72.125 
Q 26.171875 72.125 30.203125 67.9375 
Q 34.234375 63.765625 34.234375 57.125 
L 34.234375 53.65625 
Q 34.234375 47.21875 30.15625 43.140625 
Q 26.078125 39.0625 19.78125 39.0625 
Q 13.421875 39.0625 9.265625 43.140625 
Q 5.125 47.21875 5.125 54 
z
M 11.859375 53.65625 
Q 11.859375 49.859375 14 47.390625 
Q 16.15625 44.921875 19.78125 44.921875 
Q 23.25 44.921875 25.359375 47.3125 
Q 27.484375 49.703125 27.484375 53.859375 
L 27.484375 57.421875 
Q 27.484375 61.234375 25.390625 63.71875 
Q 23.296875 66.21875 19.671875 66.21875 
Q 16.0625 66.21875 13.953125 63.71875 
Q 11.859375 61.234375 11.859375 57.234375 
z
M 39.75 17.4375 
Q 39.75 23.828125 43.828125 27.953125 
Q 47.90625 32.078125 54.296875 32.078125 
Q 60.6875 32.078125 64.78125 27.96875 
Q 68.890625 23.875 68.890625 17.09375 
L 68.890625 13.625 
Q 68.890625 7.234375 64.8125 3.09375 
Q 60.75 -1.03125 54.390625 -1.03125 
Q 48.046875 -1.03125 43.890625 3.046875 
Q 39.75 7.125 39.75 13.921875 
z
M 46.484375 13.625 
Q 46.484375 9.765625 48.625 7.296875 
Q 50.78125 4.828125 54.390625 4.828125 
Q 57.90625 4.828125 60 7.25 
Q 62.109375 9.671875 62.109375 13.8125 
L 62.109375 17.4375 
Q 62.109375 21.296875 59.984375 23.734375 
Q 57.859375 26.171875 54.296875 26.171875 
Q 50.828125 26.171875 48.65625 23.75 
Q 46.484375 21.34375 46.484375 17.234375 
z
M 21.828125 5.375 
L 16.703125 8.59375 
L 51.421875 64.15625 
L 56.546875 60.9375 
z
" id="Roboto-Regular-25"/>
      </defs>
      <g style="fill:#808080;" transform="translate(23.903125 235.743866)scale(0.1 -0.1)">
       <use xlink:href="#Roboto-Regular-30"/>
       <use x="56.152344" xlink:href="#Roboto-Regular-25"/>
      </g>
     </g>
    </g>
    <g id="ytick_2">
     <g id="line2d_5">
      <path clip-path="url(#pd81ad42572)" d="M 48.84375 213.056472 
L 411.12 213.056472 
" style="fill:none;stroke:#bfbfbf;stroke-linecap:square;stroke-width:0.75;"/>
     </g>
     <g id="line2d_6"/>
     <g id="text_4">
      <!-- 10% -->
      <defs>
       <path d="M 35.59375 0 
L 26.515625 0 
L 26.515625 60.203125 
L 8.296875 53.515625 
L 8.296875 61.71875 
L 34.1875 71.4375 
L 35.59375 71.4375 
z
" id="Roboto-Regular-31"/>
      </defs>
      <g style="fill:#808080;" transform="translate(18.2875 216.806472)scale(0.1 -0.1)">
       <use xlink:href="#Roboto-Regular-31"/>
       <use x="56.152344" xlink:href="#Roboto-Regular-30"/>
       <use x="112.304688" xlink:href="#Roboto-Regular-25"/>
      </g>
     </g>
    </g>
    <g id="ytick_3">
     <g id="line2d_7">
      <path clip-path="url(#pd81ad42572)" d="M 48.84375 194.119078 
L 411.12 194.119078 
" style="fill:none;stroke:#bfbfbf;stroke-linecap:square;stroke-width:0.75;"/>
     </g>
     <g id="line2d_8"/>
     <g id="text_5">
      <!-- 20% -->
      <defs>
       <path d="M 52.484375 0 
L 5.90625 0 
L 5.90625 6.5 
L 30.515625 33.84375 
Q 35.984375 40.046875 38.0625 43.921875 
Q 40.140625 47.796875 40.140625 51.953125 
Q 40.140625 57.515625 36.765625 61.078125 
Q 33.40625 64.65625 27.78125 64.65625 
Q 21.046875 64.65625 17.3125 60.8125 
Q 13.578125 56.984375 13.578125 50.140625 
L 4.546875 50.140625 
Q 4.546875 59.96875 10.859375 66.015625 
Q 17.1875 72.078125 27.78125 72.078125 
Q 37.703125 72.078125 43.453125 66.875 
Q 49.21875 61.671875 49.21875 53.03125 
Q 49.21875 42.53125 35.84375 28.03125 
L 16.796875 7.375 
L 52.484375 7.375 
z
" id="Roboto-Regular-32"/>
      </defs>
      <g style="fill:#808080;" transform="translate(18.2875 197.869078)scale(0.1 -0.1)">
       <use xlink:href="#Roboto-Regular-32"/>
       <use x="56.152344" xlink:href="#Roboto-Regular-30"/>
       <use x="112.304688" xlink:href="#Roboto-Regular-25"/>
      </g>
     </g>
    </g>
    <g id="ytick_4">
     <g id="line2d_9">
      <path clip-path="url(#pd81ad42572)" d="M 48.84375 175.181684 
L 411.12 175.181684 
" style="fill:none;stroke:#bfbfbf;stroke-linecap:square;stroke-width:0.75;"/>
     </g>
     <g id="line2d_10"/>
     <g id="text_6">
      <!-- 30% -->
      <defs>
       <path d="M 19.046875 39.9375 
L 25.828125 39.9375 
Q 32.234375 40.046875 35.890625 43.3125 
Q 39.546875 46.578125 39.546875 52.15625 
Q 39.546875 64.65625 27.09375 64.65625 
Q 21.234375 64.65625 17.75 61.296875 
Q 14.265625 57.953125 14.265625 52.4375 
L 5.21875 52.4375 
Q 5.21875 60.890625 11.390625 66.484375 
Q 17.578125 72.078125 27.09375 72.078125 
Q 37.15625 72.078125 42.859375 66.75 
Q 48.578125 61.421875 48.578125 51.953125 
Q 48.578125 47.3125 45.578125 42.96875 
Q 42.578125 38.625 37.40625 36.46875 
Q 43.265625 34.625 46.453125 30.328125 
Q 49.65625 26.03125 49.65625 19.828125 
Q 49.65625 10.25 43.40625 4.625 
Q 37.15625 -0.984375 27.140625 -0.984375 
Q 17.140625 -0.984375 10.859375 4.4375 
Q 4.59375 9.859375 4.59375 18.75 
L 13.671875 18.75 
Q 13.671875 13.140625 17.328125 9.765625 
Q 21 6.390625 27.15625 6.390625 
Q 33.6875 6.390625 37.15625 9.8125 
Q 40.625 13.234375 40.625 19.625 
Q 40.625 25.828125 36.8125 29.140625 
Q 33.015625 32.46875 25.828125 32.5625 
L 19.046875 32.5625 
z
" id="Roboto-Regular-33"/>
      </defs>
      <g style="fill:#808080;" transform="translate(18.2875 178.931684)scale(0.1 -0.1)">
       <use xlink:href="#Roboto-Regular-33"/>
       <use x="56.152344" xlink:href="#Roboto-Regular-30"/>
       <use x="112.304688" xlink:href="#Roboto-Regular-25"/>
      </g>
     </g>
    </g>
    <g id="ytick_5">
     <g id="line2d_11">
      <path clip-path="url(#pd81ad42572)" d="M 48.84375 156.24429 
L 411.12 156.24429 
" style="fill:none;stroke:#bfbfbf;stroke-linecap:square;stroke-width:0.75;"/>
     </g>
     <g id="line2d_12"/>
     <g id="text_7">
      <!-- 40% -->
      <defs>
       <path d="M 44.046875 23.875 
L 53.90625 23.875 
L 53.90625 16.5 
L 44.046875 16.5 
L 44.046875 0 
L 34.96875 0 
L 34.96875 16.5 
L 2.59375 16.5 
L 2.59375 21.828125 
L 34.421875 71.09375 
L 44.046875 71.09375 
z
M 12.84375 23.875 
L 34.96875 23.875 
L 34.96875 58.734375 
L 33.890625 56.78125 
z
" id="Roboto-Regular-34"/>
      </defs>
      <g style="fill:#808080;" transform="translate(18.2875 159.99429)scale(0.1 -0.1)">
       <use xlink:href="#Roboto-Regular-34"/>
       <use x="56.152344" xlink:href="#Roboto-Regular-30"/>
       <use x="112.304688" xlink:href="#Roboto-Regular-25"/>
      </g>
     </g>
    </g>
    <g id="ytick_6">
     <g id="line2d_13">
      <path clip-path="url(#pd81ad42572)" d="M 48.84375 137.306896 
L 411.12 137.306896 
" style="fill:none;stroke:#bfbfbf;stroke-linecap:square;stroke-width:0.75;"/>
     </g>
     <g id="line2d_14"/>
     <g id="text_8">
      <!-- 50% -->
      <defs>
       <path d="M 10.0625 35.640625 
L 13.671875 71.09375 
L 50.09375 71.09375 
L 50.09375 62.75 
L 21.34375 62.75 
L 19.1875 43.359375 
Q 24.421875 46.4375 31.0625 46.4375 
Q 40.765625 46.4375 46.484375 40.015625 
Q 52.203125 33.59375 52.203125 22.65625 
Q 52.203125 11.671875 46.265625 5.34375 
Q 40.328125 -0.984375 29.6875 -0.984375 
Q 20.265625 -0.984375 14.296875 4.234375 
Q 8.34375 9.46875 7.515625 18.703125 
L 16.0625 18.703125 
Q 16.890625 12.59375 20.40625 9.484375 
Q 23.921875 6.390625 29.6875 6.390625 
Q 35.984375 6.390625 39.578125 10.6875 
Q 43.171875 14.984375 43.171875 22.5625 
Q 43.171875 29.6875 39.28125 34 
Q 35.40625 38.328125 28.953125 38.328125 
Q 23.046875 38.328125 19.671875 35.75 
L 17.28125 33.796875 
z
" id="Roboto-Regular-35"/>
      </defs>
      <g style="fill:#808080;" transform="translate(18.2875 141.056896)scale(0.1 -0.1)">
       <use xlink:href="#Roboto-Regular-35"/>
       <use x="56.152344" xlink:href="#Roboto-Regular-30"/>
       <use x="112.304688" xlink:href="#Roboto-Regular-25"/>
      </g>
     </g>
    </g>
    <g id="ytick_7">
     <g id="line2d_15">
      <path clip-path="url(#pd81ad42572)" d="M 48.84375 118.369502 
L 411.12 118.369502 
" style="fill:none;stroke:#bfbfbf;stroke-linecap:square;stroke-width:0.75;"/>
     </g>
     <g id="line2d_16"/>
     <g id="text_9">
      <!-- 60% -->
      <defs>
       <path d="M 41.359375 71.140625 
L 41.359375 63.484375 
L 39.703125 63.484375 
Q 29.15625 63.28125 22.90625 57.21875 
Q 16.65625 51.171875 15.671875 40.1875 
Q 21.296875 46.625 31 46.625 
Q 40.28125 46.625 45.828125 40.078125 
Q 51.375 33.546875 51.375 23.1875 
Q 51.375 12.203125 45.390625 5.609375 
Q 39.40625 -0.984375 29.34375 -0.984375 
Q 19.140625 -0.984375 12.796875 6.859375 
Q 6.453125 14.703125 6.453125 27.046875 
L 6.453125 30.515625 
Q 6.453125 50.140625 14.8125 60.515625 
Q 23.1875 70.90625 39.75 71.140625 
z
M 29.5 39.109375 
Q 24.859375 39.109375 20.953125 36.328125 
Q 17.046875 33.546875 15.53125 29.34375 
L 15.53125 26.03125 
Q 15.53125 17.234375 19.484375 11.859375 
Q 23.4375 6.5 29.34375 6.5 
Q 35.453125 6.5 38.9375 10.984375 
Q 42.4375 15.484375 42.4375 22.75 
Q 42.4375 30.078125 38.890625 34.59375 
Q 35.359375 39.109375 29.5 39.109375 
z
" id="Roboto-Regular-36"/>
      </defs>
      <g style="fill:#808080;" transform="translate(18.2875 122.119502)scale(0.1 -0.1)">
       <use xlink:href="#Roboto-Regular-36"/>
       <use x="56.152344" xlink:href="#Roboto-Regular-30"/>
       <use x="112.304688" xlink:href="#Roboto-Regular-25"/>
      </g>
     </g>
    </g>
    <g id="ytick_8">
     <g id="line2d_17">
      <path clip-path="url(#pd81ad42572)" d="M 48.84375 99.432108 
L 411.12 99.432108 
" style="fill:none;stroke:#bfbfbf;stroke-linecap:square;stroke-width:0.75;"/>
     </g>
     <g id="line2d_18"/>
     <g id="text_10">
      <!-- 70% -->
      <defs>
       <path d="M 51.8125 66.015625 
L 22.359375 0 
L 12.890625 0 
L 42.234375 63.671875 
L 3.765625 63.671875 
L 3.765625 71.09375 
L 51.8125 71.09375 
z
" id="Roboto-Regular-37"/>
      </defs>
      <g style="fill:#808080;" transform="translate(18.2875 103.182108)scale(0.1 -0.1)">
       <use xlink:href="#Roboto-Regular-37"/>
       <use x="56.152344" xlink:href="#Roboto-Regular-30"/>
       <use x="112.304688" xlink:href="#Roboto-Regular-25"/>
      </g>
     </g>
    </g>
    <g id="ytick_9">
     <g id="line2d_19">
      <path clip-path="url(#pd81ad42572)" d="M 48.84375 80.494714 
L 411.12 80.494714 
" style="fill:none;stroke:#bfbfbf;stroke-linecap:square;stroke-width:0.75;"/>
     </g>
     <g id="line2d_20"/>
     <g id="text_11">
      <!-- 80% -->
      <defs>
       <path d="M 49.03125 52.546875 
Q 49.03125 47.21875 46.21875 43.0625 
Q 43.40625 38.921875 38.625 36.578125 
Q 44.1875 34.1875 47.4375 29.59375 
Q 50.6875 25 50.6875 19.1875 
Q 50.6875 9.96875 44.453125 4.484375 
Q 38.234375 -0.984375 28.078125 -0.984375 
Q 17.828125 -0.984375 11.640625 4.515625 
Q 5.46875 10.015625 5.46875 19.1875 
Q 5.46875 24.953125 8.609375 29.59375 
Q 11.765625 34.234375 17.328125 36.625 
Q 12.59375 38.96875 9.859375 43.109375 
Q 7.125 47.265625 7.125 52.546875 
Q 7.125 61.53125 12.890625 66.796875 
Q 18.65625 72.078125 28.078125 72.078125 
Q 37.453125 72.078125 43.234375 66.796875 
Q 49.03125 61.53125 49.03125 52.546875 
z
M 41.65625 19.390625 
Q 41.65625 25.34375 37.859375 29.09375 
Q 34.078125 32.859375 27.96875 32.859375 
Q 21.875 32.859375 18.1875 29.140625 
Q 14.5 25.4375 14.5 19.375 
Q 14.5 13.328125 18.09375 9.859375 
Q 21.6875 6.390625 28.078125 6.390625 
Q 34.421875 6.390625 38.03125 9.875 
Q 41.65625 13.375 41.65625 19.390625 
z
M 28.078125 64.65625 
Q 22.75 64.65625 19.453125 61.359375 
Q 16.15625 58.0625 16.15625 52.390625 
Q 16.15625 46.96875 19.40625 43.625 
Q 22.65625 40.28125 28.078125 40.28125 
Q 33.5 40.28125 36.734375 43.625 
Q 39.984375 46.96875 39.984375 52.390625 
Q 39.984375 57.8125 36.609375 61.234375 
Q 33.25 64.65625 28.078125 64.65625 
z
" id="Roboto-Regular-38"/>
      </defs>
      <g style="fill:#808080;" transform="translate(18.2875 84.244714)scale(0.1 -0.1)">
       <use xlink:href="#Roboto-Regular-38"/>
       <use x="56.152344" xlink:href="#Roboto-Regular-30"/>
       <use x="112.304688" xlink:href="#Roboto-Regular-25"/>
      </g>
     </g>
    </g>
    <g id="ytick_10">
     <g id="line2d_21">
      <path clip-path="url(#pd81ad42572)" d="M 48.84375 61.55732 
L 411.12 61.55732 
" style="fill:none;stroke:#bfbfbf;stroke-linecap:square;stroke-width:0.75;"/>
     </g>
     <g id="line2d_22"/>
     <g id="text_12">
      <!-- 90% -->
      <defs>
       <path d="M 40.53125 31.25 
Q 37.703125 27.875 33.765625 25.828125 
Q 29.828125 23.78125 25.140625 23.78125 
Q 19 23.78125 14.421875 26.796875 
Q 9.859375 29.828125 7.375 35.328125 
Q 4.890625 40.828125 4.890625 47.46875 
Q 4.890625 54.59375 7.59375 60.296875 
Q 10.296875 66.015625 15.28125 69.046875 
Q 20.265625 72.078125 26.90625 72.078125 
Q 37.453125 72.078125 43.53125 64.1875 
Q 49.609375 56.296875 49.609375 42.671875 
L 49.609375 40.046875 
Q 49.609375 19.28125 41.40625 9.734375 
Q 33.203125 0.203125 16.65625 -0.046875 
L 14.890625 -0.046875 
L 14.890625 7.5625 
L 16.796875 7.5625 
Q 27.984375 7.765625 33.984375 13.40625 
Q 39.984375 19.046875 40.53125 31.25 
z
M 26.609375 31.25 
Q 31.15625 31.25 34.984375 34.03125 
Q 38.8125 36.8125 40.578125 40.921875 
L 40.578125 44.53125 
Q 40.578125 53.421875 36.71875 58.984375 
Q 32.859375 64.546875 26.953125 64.546875 
Q 21 64.546875 17.375 59.984375 
Q 13.765625 55.421875 13.765625 47.953125 
Q 13.765625 40.671875 17.25 35.953125 
Q 20.75 31.25 26.609375 31.25 
z
" id="Roboto-Regular-39"/>
      </defs>
      <g style="fill:#808080;" transform="translate(18.2875 65.30732)scale(0.1 -0.1)">
       <use xlink:href="#Roboto-Regular-39"/>
       <use x="56.152344" xlink:href="#Roboto-Regular-30"/>
       <use x="112.304688" xlink:href="#Roboto-Regular-25"/>
      </g>
     </g>
    </g>
    <g id="ytick_11">
     <g id="line2d_23">
      <path clip-path="url(#pd81ad42572)" d="M 48.84375 42.619926 
L 411.12 42.619926 
" style="fill:none;stroke:#bfbfbf;stroke-linecap:square;stroke-width:0.75;"/>
     </g>
     <g id="line2d_24"/>
     <g id="text_13">
      <!-- 100% -->
      <g style="fill:#808080;" transform="translate(12.671875 46.369926)scale(0.1 -0.1)">
       <use xlink:href="#Roboto-Regular-31"/>
       <use x="56.152344" xlink:href="#Roboto-Regular-30"/>
       <use x="112.304688" xlink:href="#Roboto-Regular-30"/>
       <use x="168.457031" xlink:href="#Roboto-Regular-25"/>
      </g>
     </g>
    </g>
   </g>
   <g id="patch_3">
    <path clip-path="url(#pd81ad42572)" d="M 94.128281 231.993866 
L 184.697344 231.993866 
L 184.697344 96.180232 
L 94.128281 96.180232 
z
" style="fill:#0072bd;"/>
   </g>
   <g id="patch_4">
    <path clip-path="url(#pd81ad42572)" d="M 275.266406 231.993866 
L 365.835469 231.993866 
L 365.835469 178.43356 
L 275.266406 178.43356 
z
" style="fill:#0072bd;"/>
   </g>
   <g id="patch_5">
    <path d="M 48.84375 231.993866 
L 411.12 231.993866 
" style="fill:none;stroke:#bfbfbf;stroke-linecap:square;stroke-linejoin:miter;stroke-width:1.5;"/>
   </g>
   <g id="text_14">
    <!--   -->
    <defs>
     <path id="Roboto-Regular-20"/>
    </defs>
    <g transform="translate(48.84375 22.619926)scale(0.12 -0.12)">
     <use xlink:href="#Roboto-Regular-20"/>
    </g>
   </g>
   <g id="LineCollection_1">
    <path clip-path="url(#pd81ad42572)" d="M 139.412812 114.329588 
L 139.412812 81.171572 
" style="fill:none;stroke:#ffffff;stroke-width:2;"/>
    <path clip-path="url(#pd81ad42572)" d="M 320.550937 193.44222 
L 320.550937 160.284203 
" style="fill:none;stroke:#ffffff;stroke-width:2;"/>
   </g>
   <g id="line2d_25">
    <defs>
     <path d="M 2.5 0 
L -2.5 -0 
" id="m56b851313e" style="stroke:#ffffff;stroke-width:2;"/>
    </defs>
    <g clip-path="url(#pd81ad42572)">
     <use style="fill:#ffffff;stroke:#ffffff;stroke-width:2;" x="139.412812" xlink:href="#m56b851313e" y="114.329588"/>
     <use style="fill:#ffffff;stroke:#ffffff;stroke-width:2;" x="320.550937" xlink:href="#m56b851313e" y="193.44222"/>
    </g>
   </g>
   <g id="line2d_26">
    <g clip-path="url(#pd81ad42572)">
     <use style="fill:#ffffff;stroke:#ffffff;stroke-width:2;" x="139.412812" xlink:href="#m56b851313e" y="81.171572"/>
     <use style="fill:#ffffff;stroke:#ffffff;stroke-width:2;" x="320.550937" xlink:href="#m56b851313e" y="160.284203"/>
    </g>
   </g>
   <g id="LineCollection_2">
    <path clip-path="url(#pd81ad42572)" d="M 139.412812 114.329588 
L 139.412812 81.171572 
" style="fill:none;stroke:#808080;"/>
    <path clip-path="url(#pd81ad42572)" d="M 320.550937 193.44222 
L 320.550937 160.284203 
" style="fill:none;stroke:#808080;"/>
   </g>
   <g id="line2d_27">
    <defs>
     <path d="M 2 0 
L -2 -0 
" id="m3af0073465" style="stroke:#808080;"/>
    </defs>
    <g clip-path="url(#pd81ad42572)">
     <use style="fill:#808080;stroke:#808080;" x="139.412812" xlink:href="#m3af0073465" y="114.329588"/>
     <use style="fill:#808080;stroke:#808080;" x="320.550937" xlink:href="#m3af0073465" y="193.44222"/>
    </g>
   </g>
   <g id="line2d_28">
    <g clip-path="url(#pd81ad42572)">
     <use style="fill:#808080;stroke:#808080;" x="139.412812" xlink:href="#m3af0073465" y="81.171572"/>
     <use style="fill:#808080;stroke:#808080;" x="320.550937" xlink:href="#m3af0073465" y="160.284203"/>
    </g>
   </g>
  </g>
  <g id="text_15">
   <!-- Would academics use an RSE service?  (N=99) -->
   <defs>
    <path d="M 23.578125 22.40625 
L 24.953125 13.03125 
L 26.953125 21.484375 
L 41.015625 71.09375 
L 48.921875 71.09375 
L 62.640625 21.484375 
L 64.59375 12.890625 
L 66.109375 22.46875 
L 77.15625 71.09375 
L 86.578125 71.09375 
L 69.34375 0 
L 60.796875 0 
L 46.140625 51.8125 
L 45.015625 57.234375 
L 43.890625 51.8125 
L 28.71875 0 
L 20.171875 0 
L 2.984375 71.09375 
L 12.359375 71.09375 
z
" id="Roboto-Regular-57"/>
    <path d="M 39.453125 5.21875 
Q 34.1875 -0.984375 23.96875 -0.984375 
Q 15.53125 -0.984375 11.109375 3.921875 
Q 6.6875 8.84375 6.640625 18.453125 
L 6.640625 52.828125 
L 15.671875 52.828125 
L 15.671875 18.703125 
Q 15.671875 6.6875 25.4375 6.6875 
Q 35.796875 6.6875 39.203125 14.40625 
L 39.203125 52.828125 
L 48.25 52.828125 
L 48.25 0 
L 39.65625 0 
z
" id="Roboto-Regular-75"/>
    <path d="M 16.65625 0 
L 7.625 0 
L 7.625 75 
L 16.65625 75 
z
" id="Roboto-Regular-6c"/>
    <path d="M 4.640625 26.859375 
Q 4.640625 39.015625 10.390625 46.40625 
Q 16.15625 53.8125 25.484375 53.8125 
Q 34.765625 53.8125 40.1875 47.46875 
L 40.1875 75 
L 49.21875 75 
L 49.21875 0 
L 40.921875 0 
L 40.484375 5.671875 
Q 35.0625 -0.984375 25.390625 -0.984375 
Q 16.21875 -0.984375 10.421875 6.53125 
Q 4.640625 14.0625 4.640625 26.171875 
z
M 13.671875 25.828125 
Q 13.671875 16.84375 17.375 11.765625 
Q 21.09375 6.6875 27.640625 6.6875 
Q 36.234375 6.6875 40.1875 14.40625 
L 40.1875 38.671875 
Q 36.140625 46.140625 27.734375 46.140625 
Q 21.09375 46.140625 17.375 41.015625 
Q 13.671875 35.890625 13.671875 25.828125 
z
" id="Roboto-Regular-64"/>
    <path d="M 39.453125 0 
Q 38.671875 1.5625 38.1875 5.5625 
Q 31.890625 -0.984375 23.140625 -0.984375 
Q 15.328125 -0.984375 10.328125 3.4375 
Q 5.328125 7.859375 5.328125 14.65625 
Q 5.328125 22.90625 11.59375 27.46875 
Q 17.875 32.03125 29.25 32.03125 
L 38.03125 32.03125 
L 38.03125 36.1875 
Q 38.03125 40.921875 35.203125 43.71875 
Q 32.375 46.53125 26.859375 46.53125 
Q 22.015625 46.53125 18.75 44.09375 
Q 15.484375 41.65625 15.484375 38.1875 
L 6.390625 38.1875 
Q 6.390625 42.140625 9.203125 45.828125 
Q 12.015625 49.515625 16.8125 51.65625 
Q 21.625 53.8125 27.390625 53.8125 
Q 36.53125 53.8125 41.703125 49.234375 
Q 46.875 44.671875 47.078125 36.671875 
L 47.078125 12.359375 
Q 47.078125 5.078125 48.921875 0.78125 
L 48.921875 0 
z
M 24.46875 6.890625 
Q 28.71875 6.890625 32.515625 9.078125 
Q 36.328125 11.28125 38.03125 14.796875 
L 38.03125 25.640625 
L 30.953125 25.640625 
Q 14.359375 25.640625 14.359375 15.921875 
Q 14.359375 11.671875 17.1875 9.28125 
Q 20.015625 6.890625 24.46875 6.890625 
z
" id="Roboto-Regular-61"/>
    <path d="M 28.03125 6.390625 
Q 32.859375 6.390625 36.46875 9.3125 
Q 40.09375 12.25 40.484375 16.65625 
L 49.03125 16.65625 
Q 48.78125 12.109375 45.890625 8 
Q 43.015625 3.90625 38.203125 1.453125 
Q 33.40625 -0.984375 28.03125 -0.984375 
Q 17.234375 -0.984375 10.859375 6.21875 
Q 4.5 13.421875 4.5 25.921875 
L 4.5 27.4375 
Q 4.5 35.15625 7.328125 41.15625 
Q 10.15625 47.171875 15.453125 50.484375 
Q 20.75 53.8125 27.984375 53.8125 
Q 36.859375 53.8125 42.75 48.484375 
Q 48.640625 43.171875 49.03125 34.671875 
L 40.484375 34.671875 
Q 40.09375 39.796875 36.59375 43.09375 
Q 33.109375 46.390625 27.984375 46.390625 
Q 21.09375 46.390625 17.3125 41.421875 
Q 13.53125 36.46875 13.53125 27.09375 
L 13.53125 25.390625 
Q 13.53125 16.265625 17.28125 11.328125 
Q 21.046875 6.390625 28.03125 6.390625 
z
" id="Roboto-Regular-63"/>
    <path d="M 15.328125 52.828125 
L 15.578125 46.96875 
Q 21.390625 53.8125 31.25 53.8125 
Q 42.328125 53.8125 46.34375 45.3125 
Q 48.96875 49.125 53.1875 51.46875 
Q 57.421875 53.8125 63.1875 53.8125 
Q 80.5625 53.8125 80.859375 35.40625 
L 80.859375 0 
L 71.828125 0 
L 71.828125 34.859375 
Q 71.828125 40.53125 69.234375 43.328125 
Q 66.65625 46.140625 60.546875 46.140625 
Q 55.515625 46.140625 52.1875 43.140625 
Q 48.875 40.140625 48.34375 35.0625 
L 48.34375 0 
L 39.265625 0 
L 39.265625 34.625 
Q 39.265625 46.140625 27.984375 46.140625 
Q 19.09375 46.140625 15.828125 38.578125 
L 15.828125 0 
L 6.78125 0 
L 6.78125 52.828125 
z
" id="Roboto-Regular-6d"/>
    <path d="M 16.65625 0 
L 7.625 0 
L 7.625 52.828125 
L 16.65625 52.828125 
z
M 6.890625 66.84375 
Q 6.890625 69.046875 8.234375 70.5625 
Q 9.578125 72.078125 12.203125 72.078125 
Q 14.84375 72.078125 16.203125 70.5625 
Q 17.578125 69.046875 17.578125 66.84375 
Q 17.578125 64.65625 16.203125 63.1875 
Q 14.84375 61.71875 12.203125 61.71875 
Q 9.578125 61.71875 8.234375 63.1875 
Q 6.890625 64.65625 6.890625 66.84375 
z
" id="Roboto-Regular-69"/>
    <path d="M 15.375 52.828125 
L 15.671875 46.1875 
Q 21.734375 53.8125 31.5 53.8125 
Q 48.25 53.8125 48.390625 34.90625 
L 48.390625 0 
L 39.359375 0 
L 39.359375 34.96875 
Q 39.3125 40.671875 36.75 43.40625 
Q 34.1875 46.140625 28.765625 46.140625 
Q 24.359375 46.140625 21.03125 43.796875 
Q 17.71875 41.453125 15.875 37.640625 
L 15.875 0 
L 6.84375 0 
L 6.84375 52.828125 
z
" id="Roboto-Regular-6e"/>
    <path d="M 34.328125 28.765625 
L 17.625 28.765625 
L 17.625 0 
L 8.203125 0 
L 8.203125 71.09375 
L 31.734375 71.09375 
Q 43.75 71.09375 50.21875 65.625 
Q 56.6875 60.15625 56.6875 49.703125 
Q 56.6875 43.0625 53.09375 38.125 
Q 49.515625 33.203125 43.109375 30.765625 
L 59.8125 0.59375 
L 59.8125 0 
L 49.75 0 
z
M 17.625 36.421875 
L 32.03125 36.421875 
Q 39.015625 36.421875 43.140625 40.03125 
Q 47.265625 43.65625 47.265625 49.703125 
Q 47.265625 56.296875 43.328125 59.8125 
Q 39.40625 63.328125 31.984375 63.375 
L 17.625 63.375 
z
" id="Roboto-Regular-52"/>
    <path d="M 29.203125 31.6875 
Q 17.140625 35.15625 11.640625 40.203125 
Q 6.15625 45.265625 6.15625 52.6875 
Q 6.15625 61.078125 12.859375 66.578125 
Q 19.578125 72.078125 30.328125 72.078125 
Q 37.640625 72.078125 43.375 69.234375 
Q 49.125 66.40625 52.265625 61.421875 
Q 55.421875 56.453125 55.421875 50.53125 
L 46 50.53125 
Q 46 56.984375 41.890625 60.671875 
Q 37.796875 64.359375 30.328125 64.359375 
Q 23.390625 64.359375 19.5 61.296875 
Q 15.625 58.25 15.625 52.828125 
Q 15.625 48.484375 19.3125 45.484375 
Q 23 42.484375 31.859375 39.984375 
Q 40.71875 37.5 45.71875 34.5 
Q 50.734375 31.5 53.140625 27.484375 
Q 55.5625 23.484375 55.5625 18.0625 
Q 55.5625 9.421875 48.828125 4.21875 
Q 42.09375 -0.984375 30.8125 -0.984375 
Q 23.484375 -0.984375 17.140625 1.828125 
Q 10.796875 4.640625 7.34375 9.515625 
Q 3.90625 14.40625 3.90625 20.609375 
L 13.328125 20.609375 
Q 13.328125 14.15625 18.09375 10.421875 
Q 22.859375 6.6875 30.8125 6.6875 
Q 38.234375 6.6875 42.1875 9.71875 
Q 46.140625 12.75 46.140625 17.96875 
Q 46.140625 23.1875 42.46875 26.046875 
Q 38.8125 28.90625 29.203125 31.6875 
z
" id="Roboto-Regular-53"/>
    <path d="M 48.4375 32.859375 
L 17.625 32.859375 
L 17.625 7.671875 
L 53.421875 7.671875 
L 53.421875 0 
L 8.25 0 
L 8.25 71.09375 
L 52.9375 71.09375 
L 52.9375 63.375 
L 17.625 63.375 
L 17.625 40.53125 
L 48.4375 40.53125 
z
" id="Roboto-Regular-45"/>
    <path d="M 32.375 44.734375 
Q 30.328125 45.0625 27.9375 45.0625 
Q 19.046875 45.0625 15.875 37.5 
L 15.875 0 
L 6.84375 0 
L 6.84375 52.828125 
L 15.625 52.828125 
L 15.765625 46.734375 
Q 20.21875 53.8125 28.375 53.8125 
Q 31 53.8125 32.375 53.125 
z
" id="Roboto-Regular-72"/>
    <path d="M 24.265625 12.25 
L 37.359375 52.828125 
L 46.578125 52.828125 
L 27.640625 0 
L 20.75 0 
L 1.609375 52.828125 
L 10.84375 52.828125 
z
" id="Roboto-Regular-76"/>
    <path d="M 17.4375 20.015625 
Q 17.53125 25.828125 18.75 29.1875 
Q 19.96875 32.5625 23.734375 36.671875 
L 30.125 43.265625 
Q 34.234375 47.90625 34.234375 53.21875 
Q 34.234375 58.34375 31.546875 61.25 
Q 28.859375 64.15625 23.734375 64.15625 
Q 18.75 64.15625 15.71875 61.515625 
Q 12.703125 58.890625 12.703125 54.4375 
L 3.65625 54.4375 
Q 3.765625 62.359375 9.296875 67.21875 
Q 14.84375 72.078125 23.734375 72.078125 
Q 32.953125 72.078125 38.109375 67.109375 
Q 43.265625 62.15625 43.265625 53.515625 
Q 43.265625 44.96875 35.359375 36.671875 
L 30.03125 31.390625 
Q 26.46875 27.4375 26.46875 20.015625 
z
M 17.046875 4.546875 
Q 17.046875 6.734375 18.390625 8.21875 
Q 19.734375 9.71875 22.359375 9.71875 
Q 25 9.71875 26.359375 8.21875 
Q 27.734375 6.734375 27.734375 4.53125 
Q 27.734375 2.34375 26.359375 0.90625 
Q 25 -0.53125 22.359375 -0.53125 
Q 19.734375 -0.53125 18.390625 0.90625 
Q 17.046875 2.34375 17.046875 4.546875 
z
" id="Roboto-Regular-3f"/>
    <path d="M 6.5 28.859375 
Q 6.5 39.890625 9.453125 50.046875 
Q 12.40625 60.203125 18.265625 68.5 
Q 24.125 76.8125 30.421875 80.21875 
L 32.28125 74.265625 
Q 25.140625 68.796875 20.578125 57.5625 
Q 16.015625 46.34375 15.578125 32.421875 
L 15.53125 28.265625 
Q 15.53125 9.421875 22.40625 -4.4375 
Q 26.5625 -12.75 32.28125 -17.4375 
L 30.421875 -22.953125 
Q 23.921875 -19.34375 18.015625 -10.84375 
Q 6.5 5.765625 6.5 28.859375 
z
" id="Roboto-Regular-28"/>
    <path d="M 48.140625 39.75 
L 7.421875 39.75 
L 7.421875 47.609375 
L 48.140625 47.609375 
z
M 48.140625 19.484375 
L 7.421875 19.484375 
L 7.421875 27.296875 
L 48.140625 27.296875 
z
" id="Roboto-Regular-3d"/>
    <path d="M 27.6875 28.375 
Q 27.6875 17.484375 24.828125 7.5 
Q 21.96875 -2.484375 16.078125 -10.9375 
Q 10.203125 -19.390625 3.765625 -22.953125 
L 1.859375 -17.4375 
Q 9.375 -11.671875 13.9375 0.453125 
Q 18.5 12.59375 18.609375 27.390625 
L 18.609375 28.953125 
Q 18.609375 39.203125 16.453125 48.015625 
Q 14.3125 56.84375 10.46875 63.8125 
Q 6.640625 70.796875 1.859375 74.703125 
L 3.765625 80.21875 
Q 10.203125 76.65625 16.03125 68.3125 
Q 21.875 59.96875 24.78125 49.90625 
Q 27.6875 39.84375 27.6875 28.375 
z
" id="Roboto-Regular-29"/>
   </defs>
   <g style="fill:#808080;" transform="translate(12.96 20.306102)scale(0.12 -0.12)">
    <use xlink:href="#Roboto-Regular-57"/>
    <use x="88.720703" xlink:href="#Roboto-Regular-6f"/>
    <use x="145.751953" xlink:href="#Roboto-Regular-75"/>
    <use x="200.878906" xlink:href="#Roboto-Regular-6c"/>
    <use x="225.146484" xlink:href="#Roboto-Regular-64"/>
    <use x="281.542969" xlink:href="#Roboto-Regular-20"/>
    <use x="306.298828" xlink:href="#Roboto-Regular-61"/>
    <use x="360.693359" xlink:href="#Roboto-Regular-63"/>
    <use x="413.037109" xlink:href="#Roboto-Regular-61"/>
    <use x="467.431641" xlink:href="#Roboto-Regular-64"/>
    <use x="523.828125" xlink:href="#Roboto-Regular-65"/>
    <use x="576.806641" xlink:href="#Roboto-Regular-6d"/>
    <use x="664.453125" xlink:href="#Roboto-Regular-69"/>
    <use x="688.720703" xlink:href="#Roboto-Regular-63"/>
    <use x="741.064453" xlink:href="#Roboto-Regular-73"/>
    <use x="792.626953" xlink:href="#Roboto-Regular-20"/>
    <use x="817.382812" xlink:href="#Roboto-Regular-75"/>
    <use x="872.509766" xlink:href="#Roboto-Regular-73"/>
    <use x="924.072266" xlink:href="#Roboto-Regular-65"/>
    <use x="977.050781" xlink:href="#Roboto-Regular-20"/>
    <use x="1001.806641" xlink:href="#Roboto-Regular-61"/>
    <use x="1056.201172" xlink:href="#Roboto-Regular-6e"/>
    <use x="1111.376953" xlink:href="#Roboto-Regular-20"/>
    <use x="1136.132812" xlink:href="#Roboto-Regular-52"/>
    <use x="1197.705078" xlink:href="#Roboto-Regular-53"/>
    <use x="1257.03125" xlink:href="#Roboto-Regular-45"/>
    <use x="1313.867188" xlink:href="#Roboto-Regular-20"/>
    <use x="1338.623047" xlink:href="#Roboto-Regular-73"/>
    <use x="1390.185547" xlink:href="#Roboto-Regular-65"/>
    <use x="1443.164062" xlink:href="#Roboto-Regular-72"/>
    <use x="1477.001953" xlink:href="#Roboto-Regular-76"/>
    <use x="1525.439453" xlink:href="#Roboto-Regular-69"/>
    <use x="1549.707031" xlink:href="#Roboto-Regular-63"/>
    <use x="1602.050781" xlink:href="#Roboto-Regular-65"/>
    <use x="1655.029297" xlink:href="#Roboto-Regular-3f"/>
    <use x="1702.246094" xlink:href="#Roboto-Regular-20"/>
    <use x="1727.001953" xlink:href="#Roboto-Regular-20"/>
    <use x="1751.757812" xlink:href="#Roboto-Regular-28"/>
    <use x="1785.9375" xlink:href="#Roboto-Regular-4e"/>
    <use x="1857.226562" xlink:href="#Roboto-Regular-3d"/>
    <use x="1912.109375" xlink:href="#Roboto-Regular-39"/>
    <use x="1968.261719" xlink:href="#Roboto-Regular-39"/>
    <use x="2024.414062" xlink:href="#Roboto-Regular-29"/>
   </g>
  </g>
 </g>
 <defs>
  <clipPath id="pd81ad42572">
   <rect height="189.37394" width="362.27625" x="48.84375" y="42.619926"/>
  </clipPath>
 </defs>
</svg>
