<?xml version="1.0" encoding="UTF-8" standalone="no"?>
<svg
   xmlns:dc="http://purl.org/dc/elements/1.1/"
   xmlns:cc="http://creativecommons.org/ns#"
   xmlns:rdf="http://www.w3.org/1999/02/22-rdf-syntax-ns#"
   xmlns:svg="http://www.w3.org/2000/svg"
   xmlns="http://www.w3.org/2000/svg"
   viewBox="0 0 597.09198 238.62801"
   height="238.62801"
   width="597.09198"
   xml:space="preserve"
   id="svg2"
   version="1.1"><metadata
     id="metadata8"><rdf:RDF><cc:Work
         rdf:about=""><dc:format>image/svg+xml</dc:format><dc:type
           rdf:resource="http://purl.org/dc/dcmitype/StillImage" /><dc:title></dc:title></cc:Work></rdf:RDF></metadata><defs
     id="defs6"><clipPath
       id="clipPath18"
       clipPathUnits="userSpaceOnUse"><path
         id="path16"
         d="M 0,178.971 H 447.819 V 0 H 0 Z" /></clipPath></defs><g
     transform="matrix(1.3333333,0,0,-1.3333333,0,238.628)"
     id="g10"><g
       id="g12"><g
         clip-path="url(#clipPath18)"
         id="g14"><g
           transform="translate(3.1172,76.459)"
           id="g20"><path
             id="path22"
             style="fill:#00a9a0;fill-opacity:1;fill-rule:nonzero;stroke:none"
             d="m 0,0 h 317.823 c 1.721,0 3.113,-1.385 3.113,-3.087 0,-1.706 -1.392,-3.087 -3.113,-3.087 H 0 c -1.721,0 -3.117,1.381 -3.117,3.087 C -3.117,-1.385 -1.721,0 0,0" /></g><g
           transform="translate(3.1172,178.9712)"
           id="g24"><path
             id="path26"
             style="fill:#00a9a0;fill-opacity:1;fill-rule:nonzero;stroke:none"
             d="m 0,0 h 317.823 c 1.721,0 3.113,-1.382 3.113,-3.085 0,-1.706 -1.392,-3.088 -3.113,-3.088 H 0 c -1.721,0 -3.117,1.382 -3.117,3.088 C -3.117,-1.382 -1.721,0 0,0" /></g><g
           transform="translate(322.106,155.52)"
           id="g28"><path
             id="path30"
             style="fill:#7d2560;fill-opacity:1;fill-rule:nonzero;stroke:none"
             d="m 0,0 c -6.945,4.847 -14.35,6.647 -22.041,6.514 -21.744,-0.38 -37.297,-17.463 -37.5,-37.382 -0.205,-20.193 15.027,-36.286 37.477,-37.317 7.683,-0.352 16.683,1.791 23.586,6.996 l -5.327,8.565 c -6.904,-5.911 -12.679,-7.44 -18.668,-6.129 -11.908,2.605 -20.052,14.944 -19.597,27.885 0.189,5.3 0.957,10.431 3.013,14.795 3.743,7.927 8.973,12.033 16.35,13.189 6.418,1.006 11.797,0.092 17.57,-5.111 z m -94.543,-5.052 c -1.58,0.092 8.418,0.17 8.418,-10.197 0,-10.879 -8.574,-10.923 -8.574,-10.923 h -12.656 v 21.131 z m -30.052,10.17 v -71.866 h 17.228 v 29.853 l 20.926,-30.274 h 22.035 l -23.832,32.178 c 0,0 18.092,0.78 19.238,17.266 1.141,16.488 -10.852,22.83 -25.912,22.83 z m -14.99,-4.795 c -1.586,0.906 -13.481,6.014 -22.662,6.014 -17.118,0 -28.464,-9.005 -28.139,-22.11 0.599,-24.214 39.54,-20.578 37.594,-35.84 -1.384,-10.847 -27.956,-8.451 -37.062,0.549 l -2.45,-10.596 c 14.858,-9.63 51.777,-10.567 54.154,13.846 2.406,24.673 -38.232,24.815 -38.232,36.953 0,5.859 5.426,8.502 14.645,8.256 12.034,-0.32 15.922,-5.486 18.424,-6.87 z m -85.859,-5.344 c 9.1,-0.787 8.778,-10.777 8.778,-10.777 -0.391,-9.992 -8.314,-10.42 -8.314,-10.42 h -12.919 v 21.197 z m -29.702,10.107 v -71.859 h 17.227 v 31.372 h 13.172 c 0.615,0 25.717,-1.081 25.303,19.789 0,0 1.883,20.277 -25.434,20.698 z m -65.745,-7.925 c 1.398,7.928 8.429,7.928 8.429,7.928 h 41.801 v -10.12 h -32.898 v -21.22 h 30.442 v -9.169 h -30.442 v -21.218 h 32.898 v -10.119 h -41.008 c -8.565,0 -9.234,8.269 -9.234,8.269 z" /></g><g
           transform="translate(1.4952,33.1797)"
           id="g32"><path
             id="path34"
             style="fill:#7d2560;fill-opacity:1;fill-rule:nonzero;stroke:none"
             d="M 0,0 V 21.36 H 13.26 V 19.32 H 2.28 v -7.53 h 9.36 V 9.75 H 2.28 V 2.04 H 13.26 V 0 Z" /></g><g
           transform="translate(28.2549,33.1797)"
           id="g36"><path
             id="path38"
             style="fill:#7d2560;fill-opacity:1;fill-rule:nonzero;stroke:none"
             d="m 0,0 v 9.09 c 0,2.61 -1.41,3.93 -3.63,3.93 -2.22,0 -3.66,-1.35 -3.66,-3.93 V 0 h -2.16 v 14.76 h 2.16 v -1.62 c 1.05,1.2 2.49,1.8 4.14,1.8 1.59,0 2.88,-0.48 3.78,-1.379 C 1.68,12.54 2.16,11.16 2.16,9.45 V 0 Z" /></g><g
           transform="translate(40.4351,46.2002)"
           id="g40"><path
             id="path42"
             style="fill:#7d2560;fill-opacity:1;fill-rule:nonzero;stroke:none"
             d="m 0,0 c -3.21,0 -3.69,-2.761 -3.69,-5.52 0,-2.76 0.48,-5.52 3.69,-5.52 3.21,0 3.66,2.76 3.66,5.52 C 3.66,-2.761 3.21,0 0,0 m -0.33,-19.801 c -2.22,0 -3.45,0.571 -5.01,1.981 l 1.41,1.38 c 1.08,-0.96 1.83,-1.47 3.54,-1.47 2.85,0 4.05,2.01 4.05,4.529 v 2.311 c -1.2,-1.531 -2.55,-1.92 -4.14,-1.92 -1.5,0 -2.79,0.54 -3.57,1.319 -1.47,1.471 -1.8,3.75 -1.8,6.151 0,2.4 0.33,4.679 1.8,6.15 0.78,0.779 2.1,1.29 3.6,1.29 1.62,0 2.94,-0.36 4.14,-1.92 v 1.739 h 2.13 v -15.21 c 0,-3.66 -2.28,-6.33 -6.15,-6.33" /></g><path
           id="path44"
           style="fill:#7d2560;fill-opacity:1;fill-rule:nonzero;stroke:none"
           d="m 51.355,47.939 h 2.16 v -14.76 h -2.16 z m -0.12,6.631 h 2.43 v -2.431 h -2.43 z" /><g
           transform="translate(68.0948,33.1797)"
           id="g46"><path
             id="path48"
             style="fill:#7d2560;fill-opacity:1;fill-rule:nonzero;stroke:none"
             d="m 0,0 v 9.09 c 0,2.61 -1.41,3.93 -3.63,3.93 -2.22,0 -3.66,-1.35 -3.66,-3.93 V 0 h -2.16 v 14.76 h 2.16 v -1.62 c 1.05,1.2 2.49,1.8 4.14,1.8 1.59,0 2.88,-0.48 3.78,-1.379 C 1.68,12.54 2.16,11.16 2.16,9.45 V 0 Z" /></g><g
           transform="translate(83.9043,44.0693)"
           id="g50"><path
             id="path52"
             style="fill:#7d2560;fill-opacity:1;fill-rule:nonzero;stroke:none"
             d="M 0,0 C -0.57,1.351 -1.89,2.221 -3.45,2.221 -5.01,2.221 -6.33,1.351 -6.899,0 -7.229,-0.81 -7.29,-1.26 -7.35,-2.46 h 7.8 C 0.391,-1.26 0.33,-0.81 0,0 m -7.35,-4.079 c 0,-3.24 1.53,-5.101 4.35,-5.101 1.71,0 2.7,0.51 3.87,1.68 l 1.47,-1.29 c -1.5,-1.5 -2.88,-2.279 -5.399,-2.279 -3.901,0 -6.451,2.339 -6.451,7.559 0,4.771 2.31,7.561 6.06,7.561 3.81,0 6.06,-2.761 6.06,-7.141 v -0.989 z" /></g><g
           transform="translate(99.5049,44.0693)"
           id="g54"><path
             id="path56"
             style="fill:#7d2560;fill-opacity:1;fill-rule:nonzero;stroke:none"
             d="M 0,0 C -0.57,1.351 -1.891,2.221 -3.45,2.221 -5.011,2.221 -6.33,1.351 -6.9,0 -7.23,-0.81 -7.29,-1.26 -7.351,-2.46 h 7.8 C 0.39,-1.26 0.33,-0.81 0,0 m -7.351,-4.079 c 0,-3.24 1.531,-5.101 4.351,-5.101 1.71,0 2.699,0.51 3.87,1.68 l 1.47,-1.29 c -1.5,-1.5 -2.88,-2.279 -5.401,-2.279 -3.899,0 -6.45,2.339 -6.45,7.559 0,4.771 2.311,7.561 6.061,7.561 3.809,0 6.059,-2.761 6.059,-7.141 v -0.989 z" /></g><g
           transform="translate(114.6543,45.1201)"
           id="g58"><path
             id="path60"
             style="fill:#7d2560;fill-opacity:1;fill-rule:nonzero;stroke:none"
             d="m 0,0 c -0.81,0.81 -1.41,1.08 -2.55,1.08 -2.16,0 -3.54,-1.71 -3.54,-3.96 v -9.06 H -8.25 V 2.819 h 2.16 V 1.02 C -5.28,2.25 -3.66,3 -1.95,3 -0.54,3 0.54,2.67 1.59,1.62 Z" /></g><path
           id="path62"
           style="fill:#7d2560;fill-opacity:1;fill-rule:nonzero;stroke:none"
           d="m 118.734,47.939 h 2.16 v -14.76 h -2.16 z m -0.12,6.631 h 2.43 v -2.431 h -2.43 z" /><g
           transform="translate(135.4747,33.1797)"
           id="g64"><path
             id="path66"
             style="fill:#7d2560;fill-opacity:1;fill-rule:nonzero;stroke:none"
             d="m 0,0 v 9.09 c 0,2.61 -1.41,3.93 -3.63,3.93 -2.221,0 -3.66,-1.35 -3.66,-3.93 V 0 h -2.16 v 14.76 h 2.16 v -1.62 c 1.05,1.2 2.489,1.8 4.14,1.8 1.589,0 2.879,-0.48 3.78,-1.379 C 1.68,12.54 2.16,11.16 2.16,9.45 V 0 Z" /></g><g
           transform="translate(147.6543,46.2002)"
           id="g68"><path
             id="path70"
             style="fill:#7d2560;fill-opacity:1;fill-rule:nonzero;stroke:none"
             d="m 0,0 c -3.211,0 -3.69,-2.761 -3.69,-5.52 0,-2.76 0.479,-5.52 3.69,-5.52 3.21,0 3.659,2.76 3.659,5.52 C 3.659,-2.761 3.21,0 0,0 m -0.33,-19.801 c -2.221,0 -3.45,0.571 -5.011,1.981 l 1.41,1.38 c 1.081,-0.96 1.831,-1.47 3.54,-1.47 2.851,0 4.05,2.01 4.05,4.529 v 2.311 c -1.199,-1.531 -2.55,-1.92 -4.139,-1.92 -1.5,0 -2.79,0.54 -3.571,1.319 -1.469,1.471 -1.799,3.75 -1.799,6.151 0,2.4 0.33,4.679 1.799,6.15 0.781,0.779 2.101,1.29 3.601,1.29 1.62,0 2.939,-0.36 4.14,-1.92 v 1.739 h 2.129 v -15.21 c 0,-3.66 -2.279,-6.33 -6.149,-6.33" /></g><g
           transform="translate(174.1143,39.9902)"
           id="g72"><path
             id="path74"
             style="fill:#7d2560;fill-opacity:1;fill-rule:nonzero;stroke:none"
             d="M 0,0 H -4.141 C -6.36,0 -7.44,-0.9 -7.44,-2.61 c 0,-1.71 1.049,-2.521 3.39,-2.521 1.26,0 2.369,0.09 3.3,0.99 C -0.24,-3.66 0,-2.82 0,-1.591 Z M 0,-6.811 V -5.4 c -1.2,-1.201 -2.28,-1.59 -4.261,-1.59 -2.04,0 -3.239,0.389 -4.17,1.349 -0.719,0.72 -1.109,1.83 -1.109,3 0,2.58 1.8,4.26 5.1,4.26 H 0 v 1.41 C 0,5.189 -1.08,6.27 -3.78,6.27 -5.67,6.27 -6.63,5.819 -7.5,4.59 L -8.971,5.939 C -7.65,7.649 -6.15,8.13 -3.75,8.13 0.21,8.13 2.16,6.42 2.16,3.21 V -6.811 Z" /></g><g
           transform="translate(190.6739,33.1797)"
           id="g76"><path
             id="path78"
             style="fill:#7d2560;fill-opacity:1;fill-rule:nonzero;stroke:none"
             d="m 0,0 v 9.09 c 0,2.61 -1.41,3.93 -3.63,3.93 -2.221,0 -3.66,-1.35 -3.66,-3.93 V 0 h -2.16 v 14.76 h 2.16 v -1.62 c 1.05,1.2 2.489,1.8 4.14,1.8 1.589,0 2.88,-0.48 3.78,-1.379 C 1.68,12.54 2.16,11.16 2.16,9.45 V 0 Z" /></g><g
           transform="translate(202.8829,46.2002)"
           id="g80"><path
             id="path82"
             style="fill:#7d2560;fill-opacity:1;fill-rule:nonzero;stroke:none"
             d="m 0,0 c -3.21,0 -3.72,-2.761 -3.72,-5.641 0,-2.879 0.51,-5.639 3.72,-5.639 3.21,0 3.69,2.76 3.69,5.639 C 3.69,-2.761 3.21,0 0,0 m 3.721,-13.02 v 1.769 c -1.2,-1.56 -2.58,-1.949 -4.2,-1.949 -1.5,0 -2.821,0.51 -3.601,1.29 -1.5,1.5 -1.8,3.96 -1.8,6.269 0,2.311 0.3,4.771 1.8,6.271 0.78,0.779 2.101,1.29 3.601,1.29 1.62,0 2.969,-0.36 4.169,-1.891 V 8.34 h 2.161 v -21.36 z" /></g><g
           transform="translate(229.1333,52.5)"
           id="g84"><path
             id="path86"
             style="fill:#7d2560;fill-opacity:1;fill-rule:nonzero;stroke:none"
             d="M 0,0 H -5.461 V -8.49 H 0 c 2.67,0 4.529,1.44 4.529,4.26 C 4.529,-1.41 2.67,0 0,0 m 0.209,-10.53 h -5.67 v -8.79 H -7.74 V 2.04 h 7.949 c 3.9,0 6.6,-2.431 6.6,-6.27 0,-3.84 -2.7,-6.3 -6.6,-6.3" /></g><g
           transform="translate(249.0533,33.1797)"
           id="g88"><path
             id="path90"
             style="fill:#7d2560;fill-opacity:1;fill-rule:nonzero;stroke:none"
             d="m 0,0 v 9.12 c 0,2.58 -1.381,3.9 -3.602,3.9 -2.218,0 -3.689,-1.35 -3.689,-3.9 V 0 h -2.16 v 21.36 h 2.16 v -8.22 c 1.08,1.23 2.49,1.8 4.141,1.8 3.33,0 5.31,-2.129 5.31,-5.46 L 2.16,0 Z" /></g><g
           transform="translate(259.8228,29.6093)"
           id="g92"><path
             id="path94"
             style="fill:#7d2560;fill-opacity:1;fill-rule:nonzero;stroke:none"
             d="M 0,0 C -0.301,-0.809 -0.631,-1.35 -1.051,-1.739 -1.83,-2.489 -2.881,-2.76 -3.932,-2.76 h -0.929 v 1.92 h 0.66 c 1.5,0 1.951,0.481 2.429,1.83 l 1.051,2.88 -5.31,14.46 h 2.34 l 4.05,-11.85 4.02,11.85 h 2.34 z" /></g><g
           transform="translate(273.9224,33)"
           id="g96"><path
             id="path98"
             style="fill:#7d2560;fill-opacity:1;fill-rule:nonzero;stroke:none"
             d="m 0,0 c -2.49,0 -4.439,0.569 -6.06,2.13 l 1.441,1.439 c 1.17,-1.229 2.76,-1.71 4.59,-1.71 C 2.4,1.859 3.9,2.73 3.9,4.47 3.9,5.76 3.15,6.48 1.44,6.63 l -2.43,0.21 c -2.879,0.24 -4.41,1.53 -4.41,3.96 0,2.7 2.281,4.32 5.429,4.32 2.102,0 3.991,-0.511 5.311,-1.591 L 3.93,12.12 C 2.881,12.93 1.529,13.29 0,13.29 c -2.16,0 -3.301,-0.931 -3.301,-2.431 0,-1.259 0.721,-2.009 2.58,-2.159 L 1.65,8.49 C 4.23,8.25 6,7.26 6,4.5 6,1.649 3.57,0 0,0" /></g><path
           id="path100"
           style="fill:#7d2560;fill-opacity:1;fill-rule:nonzero;stroke:none"
           d="m 283.852,47.939 h 2.16 v -14.76 h -2.16 z m -0.121,6.631 h 2.43 v -2.431 h -2.43 z" /><g
           transform="translate(296.8716,33)"
           id="g102"><path
             id="path104"
             style="fill:#7d2560;fill-opacity:1;fill-rule:nonzero;stroke:none"
             d="m 0,0 c -3.721,0 -6.541,2.52 -6.541,7.56 0,5.04 2.82,7.56 6.541,7.56 2.039,0 3.33,-0.54 4.859,-2.19 L 3.391,11.55 C 2.279,12.779 1.41,13.2 0,13.2 c -1.439,0 -2.641,-0.57 -3.42,-1.68 -0.689,-0.96 -0.961,-2.1 -0.961,-3.96 0,-1.86 0.272,-3 0.961,-3.96 C -2.641,2.489 -1.439,1.92 0,1.92 1.41,1.92 2.279,2.37 3.391,3.6 L 4.859,2.189 C 3.33,0.54 2.039,0 0,0" /></g><g
           transform="translate(313.5455,39.9902)"
           id="g106"><path
             id="path108"
             style="fill:#7d2560;fill-opacity:1;fill-rule:nonzero;stroke:none"
             d="m 0,0 h -4.141 c -2.22,0 -3.3,-0.9 -3.3,-2.61 0,-1.71 1.05,-2.521 3.39,-2.521 1.26,0 2.369,0.09 3.301,0.99 C -0.24,-3.66 0,-2.82 0,-1.591 Z M 0,-6.811 V -5.4 c -1.201,-1.201 -2.281,-1.59 -4.262,-1.59 -2.039,0 -3.238,0.389 -4.17,1.349 -0.718,0.72 -1.109,1.83 -1.109,3 0,2.58 1.801,4.26 5.1,4.26 H 0 v 1.41 C 0,5.189 -1.08,6.27 -3.781,6.27 -5.67,6.27 -6.631,5.819 -7.5,4.59 L -8.971,5.939 C -7.65,7.649 -6.15,8.13 -3.75,8.13 0.209,8.13 2.16,6.42 2.16,3.21 V -6.811 Z" /></g><g
           transform="translate(324.3443,33.1797)"
           id="g110"><path
             id="path112"
             style="fill:#7d2560;fill-opacity:1;fill-rule:nonzero;stroke:none"
             d="m 0,0 c -2.58,0 -3.75,1.68 -3.75,3.93 v 17.43 h 2.16 V 4.02 c 0,-1.44 0.481,-2.16 1.981,-2.16 h 1.17 l 0,-1.86 z" /></g><g
           transform="translate(342.315,33)"
           id="g114"><path
             id="path116"
             style="fill:#7d2560;fill-opacity:1;fill-rule:nonzero;stroke:none"
             d="M 0,0 C -3.211,0 -5.311,0.81 -7.32,2.819 L -5.76,4.38 C -3.99,2.609 -2.34,2.04 0.059,2.04 3.18,2.04 5.1,3.51 5.1,6 5.1,7.109 4.77,8.069 4.08,8.67 3.389,9.27 2.85,9.45 1.289,9.689 l -2.49,0.391 c -1.68,0.27 -3,0.81 -3.93,1.62 -1.08,0.96 -1.619,2.28 -1.619,3.989 0,3.631 2.609,6.031 6.84,6.031 2.73,0 4.529,-0.69 6.359,-2.34 L 4.98,17.91 C 3.66,19.109 2.25,19.74 0,19.74 c -2.85,0 -4.5,-1.591 -4.5,-3.96 0,-1.05 0.299,-1.89 0.959,-2.461 0.66,-0.569 1.769,-0.989 2.881,-1.17 L 1.68,11.79 c 2.009,-0.3 3,-0.721 3.9,-1.5 C 6.75,9.3 7.379,7.83 7.379,6.06 7.379,2.31 4.439,0 0,0" /></g><g
           transform="translate(359.5044,33)"
           id="g118"><path
             id="path120"
             style="fill:#7d2560;fill-opacity:1;fill-rule:nonzero;stroke:none"
             d="m 0,0 c -3.721,0 -6.541,2.52 -6.541,7.56 0,5.04 2.82,7.56 6.541,7.56 2.039,0 3.33,-0.54 4.859,-2.19 L 3.391,11.55 C 2.279,12.779 1.41,13.2 0,13.2 c -1.439,0 -2.641,-0.57 -3.42,-1.68 -0.689,-0.96 -0.961,-2.1 -0.961,-3.96 0,-1.86 0.272,-3 0.961,-3.96 C -2.641,2.489 -1.439,1.92 0,1.92 1.41,1.92 2.279,2.37 3.391,3.6 L 4.859,2.189 C 3.33,0.54 2.039,0 0,0" /></g><path
           id="path122"
           style="fill:#7d2560;fill-opacity:1;fill-rule:nonzero;stroke:none"
           d="m 368.174,47.939 h 2.16 v -14.76 h -2.16 z m -0.121,6.631 h 2.43 v -2.431 h -2.43 z" /><g
           transform="translate(384.1646,44.0693)"
           id="g124"><path
             id="path126"
             style="fill:#7d2560;fill-opacity:1;fill-rule:nonzero;stroke:none"
             d="M 0,0 C -0.57,1.351 -1.891,2.221 -3.451,2.221 -5.012,2.221 -6.33,1.351 -6.9,0 -7.23,-0.81 -7.291,-1.26 -7.352,-2.46 H 0.449 C 0.389,-1.26 0.33,-0.81 0,0 m -7.352,-4.079 c 0,-3.24 1.532,-5.101 4.352,-5.101 1.709,0 2.699,0.51 3.869,1.68 L 2.34,-8.79 c -1.5,-1.5 -2.881,-2.279 -5.4,-2.279 -3.901,0 -6.452,2.339 -6.452,7.559 0,4.771 2.311,7.561 6.061,7.561 3.81,0 6.06,-2.761 6.06,-7.141 v -0.989 z" /></g><g
           transform="translate(400.5142,33.1797)"
           id="g128"><path
             id="path130"
             style="fill:#7d2560;fill-opacity:1;fill-rule:nonzero;stroke:none"
             d="m 0,0 v 9.09 c 0,2.61 -1.41,3.93 -3.631,3.93 -2.221,0 -3.66,-1.35 -3.66,-3.93 V 0 h -2.16 v 14.76 h 2.16 v -1.62 c 1.051,1.2 2.49,1.8 4.141,1.8 1.59,0 2.878,-0.48 3.779,-1.379 C 1.68,12.54 2.16,11.16 2.16,9.45 V 0 Z" /></g><g
           transform="translate(413.3521,33)"
           id="g132"><path
             id="path134"
             style="fill:#7d2560;fill-opacity:1;fill-rule:nonzero;stroke:none"
             d="m 0,0 c -3.719,0 -6.539,2.52 -6.539,7.56 0,5.04 2.82,7.56 6.539,7.56 2.041,0 3.33,-0.54 4.861,-2.19 L 3.391,11.55 C 2.281,12.779 1.41,13.2 0,13.2 c -1.439,0 -2.639,-0.57 -3.42,-1.68 -0.689,-0.96 -0.959,-2.1 -0.959,-3.96 0,-1.86 0.27,-3 0.959,-3.96 C -2.639,2.489 -1.439,1.92 0,1.92 1.41,1.92 2.281,2.37 3.391,3.6 L 4.861,2.189 C 3.33,0.54 2.041,0 0,0" /></g><g
           transform="translate(430.2701,44.0693)"
           id="g136"><path
             id="path138"
             style="fill:#7d2560;fill-opacity:1;fill-rule:nonzero;stroke:none"
             d="M 0,0 C -0.57,1.351 -1.891,2.221 -3.451,2.221 -5.012,2.221 -6.33,1.351 -6.9,0 -7.23,-0.81 -7.291,-1.26 -7.352,-2.46 H 0.449 C 0.389,-1.26 0.33,-0.81 0,0 m -7.352,-4.079 c 0,-3.24 1.532,-5.101 4.352,-5.101 1.709,0 2.699,0.51 3.869,1.68 L 2.34,-8.79 c -1.5,-1.5 -2.881,-2.279 -5.401,-2.279 -3.9,0 -6.451,2.339 -6.451,7.559 0,4.771 2.311,7.561 6.061,7.561 3.81,0 6.06,-2.761 6.06,-7.141 v -0.989 z" /></g><g
           transform="translate(441.8189,33)"
           id="g140"><path
             id="path142"
             style="fill:#7d2560;fill-opacity:1;fill-rule:nonzero;stroke:none"
             d="m 0,0 c -2.49,0 -4.439,0.569 -6.061,2.13 l 1.442,1.439 c 1.17,-1.229 2.76,-1.71 4.59,-1.71 C 2.4,1.859 3.9,2.73 3.9,4.47 3.9,5.76 3.15,6.48 1.439,6.63 L -0.99,6.84 c -2.879,0.24 -4.41,1.53 -4.41,3.96 0,2.7 2.281,4.32 5.429,4.32 2.102,0 3.991,-0.511 5.311,-1.591 L 3.93,12.12 C 2.881,12.93 1.529,13.29 0,13.29 c -2.16,0 -3.301,-0.931 -3.301,-2.431 0,-1.259 0.721,-2.009 2.58,-2.159 L 1.65,8.49 C 4.23,8.25 6,7.26 6,4.5 6,1.649 3.57,0 0,0" /></g><g
           transform="translate(9.4756,19.5)"
           id="g144"><path
             id="path146"
             style="fill:#7d2560;fill-opacity:1;fill-rule:nonzero;stroke:none"
             d="M 0,0 H -5.7 V -7.83 H 0 c 2.49,0 4.26,1.29 4.26,3.899 C 4.26,-1.32 2.49,0 0,0 m 4.29,-19.32 -4.86,9.48 H -5.7 v -9.48 H -7.98 V 2.04 h 8.19 c 3.72,0 6.33,-2.25 6.33,-5.94 0,-3.12 -1.89,-5.161 -4.65,-5.73 l 5.07,-9.69 z" /></g><g
           transform="translate(29.1851,11.0693)"
           id="g148"><path
             id="path150"
             style="fill:#7d2560;fill-opacity:1;fill-rule:nonzero;stroke:none"
             d="M 0,0 C -0.57,1.351 -1.89,2.221 -3.45,2.221 -5.01,2.221 -6.33,1.351 -6.9,0 -7.23,-0.81 -7.29,-1.26 -7.35,-2.46 h 7.8 C 0.39,-1.26 0.33,-0.81 0,0 m -7.35,-4.079 c 0,-3.24 1.53,-5.101 4.35,-5.101 1.71,0 2.7,0.51 3.87,1.68 l 1.47,-1.29 c -1.5,-1.5 -2.88,-2.279 -5.4,-2.279 -3.9,0 -6.45,2.339 -6.45,7.559 0,4.771 2.31,7.561 6.06,7.561 3.81,0 6.06,-2.761 6.06,-7.141 v -0.989 z" /></g><g
           transform="translate(40.7349)"
           id="g152"><path
             id="path154"
             style="fill:#7d2560;fill-opacity:1;fill-rule:nonzero;stroke:none"
             d="m 0,0 c -2.49,0 -4.44,0.569 -6.06,2.13 l 1.44,1.439 c 1.17,-1.229 2.76,-1.71 4.59,-1.71 2.43,0 3.93,0.871 3.93,2.611 0,1.29 -0.75,2.01 -2.46,2.16 l -2.43,0.21 c -2.88,0.24 -4.41,1.53 -4.41,3.96 0,2.7 2.28,4.32 5.43,4.32 2.1,0 3.99,-0.511 5.31,-1.591 L 3.93,12.12 C 2.88,12.93 1.53,13.29 0,13.29 -2.16,13.29 -3.3,12.359 -3.3,10.859 -3.3,9.6 -2.58,8.85 -0.72,8.7 L 1.65,8.49 C 4.23,8.25 6,7.26 6,4.5 6,1.649 3.57,0 0,0" /></g><g
           transform="translate(59.3643,11.0693)"
           id="g156"><path
             id="path158"
             style="fill:#7d2560;fill-opacity:1;fill-rule:nonzero;stroke:none"
             d="M 0,0 C -0.57,1.351 -1.89,2.221 -3.45,2.221 -5.01,2.221 -6.33,1.351 -6.9,0 -7.23,-0.81 -7.29,-1.26 -7.35,-2.46 h 7.8 C 0.39,-1.26 0.33,-0.81 0,0 m -7.35,-4.079 c 0,-3.24 1.53,-5.101 4.35,-5.101 1.71,0 2.7,0.51 3.87,1.68 l 1.47,-1.29 c -1.5,-1.5 -2.88,-2.279 -5.4,-2.279 -3.9,0 -6.45,2.339 -6.45,7.559 0,4.771 2.31,7.561 6.06,7.561 3.81,0 6.06,-2.761 6.06,-7.141 v -0.989 z" /></g><g
           transform="translate(74.6348,6.9902)"
           id="g160"><path
             id="path162"
             style="fill:#7d2560;fill-opacity:1;fill-rule:nonzero;stroke:none"
             d="m 0,0 h -4.14 c -2.22,0 -3.3,-0.9 -3.3,-2.61 0,-1.71 1.05,-2.521 3.39,-2.521 1.26,0 2.37,0.09 3.3,0.99 C -0.24,-3.66 0,-2.82 0,-1.591 Z M 0,-6.811 V -5.4 c -1.2,-1.201 -2.28,-1.59 -4.26,-1.59 -2.04,0 -3.241,0.389 -4.17,1.349 -0.72,0.72 -1.111,1.83 -1.111,3 0,2.58 1.801,4.26 5.101,4.26 H 0 v 1.41 C 0,5.189 -1.08,6.27 -3.78,6.27 -5.67,6.27 -6.63,5.819 -7.501,4.59 L -8.97,5.939 C -7.65,7.649 -6.15,8.13 -3.751,8.13 0.21,8.13 2.16,6.42 2.16,3.21 V -6.811 Z" /></g><g
           transform="translate(89.9942,12.1201)"
           id="g164"><path
             id="path166"
             style="fill:#7d2560;fill-opacity:1;fill-rule:nonzero;stroke:none"
             d="m 0,0 c -0.811,0.81 -1.41,1.08 -2.55,1.08 -2.16,0 -3.54,-1.71 -3.54,-3.96 v -9.06 H -8.25 V 2.819 h 2.16 V 1.02 C -5.28,2.25 -3.66,3 -1.95,3 -0.54,3 0.54,2.67 1.59,1.62 Z" /></g><g
           transform="translate(98.7784)"
           id="g168"><path
             id="path170"
             style="fill:#7d2560;fill-opacity:1;fill-rule:nonzero;stroke:none"
             d="m 0,0 c -3.72,0 -6.54,2.52 -6.54,7.559 0,5.041 2.82,7.561 6.54,7.561 2.04,0 3.33,-0.54 4.86,-2.19 L 3.391,11.55 C 2.28,12.779 1.41,13.2 0,13.2 c -1.439,0 -2.64,-0.57 -3.42,-1.68 -0.689,-0.961 -0.96,-2.1 -0.96,-3.961 0,-1.859 0.271,-3 0.96,-3.959 C -2.64,2.489 -1.439,1.92 0,1.92 1.41,1.92 2.28,2.37 3.391,3.6 L 4.86,2.189 C 3.33,0.54 2.04,0 0,0" /></g><g
           transform="translate(116.8985,0.1797)"
           id="g172"><path
             id="path174"
             style="fill:#7d2560;fill-opacity:1;fill-rule:nonzero;stroke:none"
             d="m 0,0 v 9.12 c 0,2.58 -1.38,3.9 -3.601,3.9 -2.219,0 -3.689,-1.35 -3.689,-3.9 V 0 h -2.16 v 21.36 h 2.16 v -8.22 c 1.08,1.23 2.489,1.8 4.14,1.8 3.33,0 5.31,-2.129 5.31,-5.46 V 0 Z" /></g><g
           transform="translate(138.2276)"
           id="g176"><path
             id="path178"
             style="fill:#7d2560;fill-opacity:1;fill-rule:nonzero;stroke:none"
             d="m 0,0 c -2.1,0 -4.02,0.779 -5.46,2.22 -2.01,2.01 -2.01,4.11 -2.01,8.639 0,4.531 0,6.631 2.01,8.641 1.44,1.439 3.36,2.22 5.46,2.22 3.84,0 6.69,-2.34 7.41,-6.361 H 5.07 C 4.5,17.97 2.67,19.68 0,19.68 c -1.41,0 -2.76,-0.54 -3.69,-1.5 -1.35,-1.38 -1.5,-2.85 -1.5,-7.321 0,-4.469 0.15,-5.939 1.5,-7.319 0.93,-0.96 2.28,-1.5 3.69,-1.5 2.67,0 4.561,1.71 5.13,4.319 H 7.41 C 6.72,2.34 3.811,0 0,0" /></g><g
           transform="translate(157.9385,12.1201)"
           id="g180"><path
             id="path182"
             style="fill:#7d2560;fill-opacity:1;fill-rule:nonzero;stroke:none"
             d="m 0,0 c -0.69,0.689 -1.65,1.08 -2.7,1.08 -1.05,0 -1.981,-0.391 -2.67,-1.08 -1.08,-1.08 -1.2,-2.91 -1.2,-4.561 0,-1.649 0.12,-3.479 1.2,-4.559 0.689,-0.691 1.62,-1.08 2.67,-1.08 1.05,0 2.01,0.389 2.7,1.08 1.08,1.08 1.17,2.91 1.17,4.559 C 1.17,-2.91 1.08,-1.08 0,0 M 1.529,-10.44 C 0.51,-11.46 -0.9,-12.12 -2.7,-12.12 c -1.8,0 -3.21,0.66 -4.231,1.68 -1.5,1.53 -1.799,3.599 -1.799,5.879 0,2.281 0.299,4.351 1.799,5.88 C -5.91,2.34 -4.5,3 -2.7,3 -0.9,3 0.51,2.34 1.529,1.319 3.029,-0.21 3.33,-2.28 3.33,-4.561 3.33,-6.841 3.029,-8.91 1.529,-10.44" /></g><g
           transform="translate(174.918,0.1797)"
           id="g184"><path
             id="path186"
             style="fill:#7d2560;fill-opacity:1;fill-rule:nonzero;stroke:none"
             d="m 0,0 v 1.65 c -1.05,-1.2 -2.521,-1.83 -4.17,-1.83 -1.59,0 -2.91,0.48 -3.81,1.38 -1.05,1.02 -1.5,2.43 -1.5,4.14 v 9.42 h 2.16 V 5.67 c 0,-2.611 1.38,-3.93 3.599,-3.93 2.221,0 3.691,1.35 3.691,3.93 v 9.09 H 2.13 V 0 Z" /></g><g
           transform="translate(191.5977,0.1797)"
           id="g188"><path
             id="path190"
             style="fill:#7d2560;fill-opacity:1;fill-rule:nonzero;stroke:none"
             d="m 0,0 v 9.09 c 0,2.61 -1.41,3.93 -3.63,3.93 -2.221,0 -3.66,-1.35 -3.66,-3.93 V 0 h -2.16 v 14.76 h 2.16 v -1.62 c 1.05,1.2 2.489,1.8 4.14,1.8 1.589,0 2.879,-0.48 3.78,-1.379 C 1.68,12.54 2.16,11.16 2.16,9.45 V 0 Z" /></g><g
           transform="translate(204.4375)"
           id="g192"><path
             id="path194"
             style="fill:#7d2560;fill-opacity:1;fill-rule:nonzero;stroke:none"
             d="m 0,0 c -3.72,0 -6.54,2.52 -6.54,7.559 0,5.041 2.82,7.561 6.54,7.561 2.04,0 3.33,-0.54 4.86,-2.19 L 3.391,11.55 C 2.28,12.779 1.41,13.2 0,13.2 c -1.439,0 -2.64,-0.57 -3.42,-1.68 -0.689,-0.961 -0.96,-2.1 -0.96,-3.961 0,-1.859 0.271,-3 0.96,-3.959 C -2.64,2.489 -1.439,1.92 0,1.92 1.41,1.92 2.28,2.37 3.391,3.6 L 4.86,2.189 C 3.33,0.54 2.04,0 0,0" /></g><path
           id="path196"
           style="fill:#7d2560;fill-opacity:1;fill-rule:nonzero;stroke:none"
           d="m 213.107,14.939 h 2.161 V 0.179 h -2.161 z m -0.12,6.631 h 2.429 v -2.431 h -2.429 z" /><g
           transform="translate(224.0865,0.1797)"
           id="g198"><path
             id="path200"
             style="fill:#7d2560;fill-opacity:1;fill-rule:nonzero;stroke:none"
             d="m 0,0 c -2.58,0 -3.75,1.68 -3.75,3.93 v 17.43 h 2.16 V 4.02 c 0,-1.44 0.481,-2.16 1.981,-2.16 h 1.17 l 0,-1.86 z" /></g></g></g></g></svg>