<svg xmlns="http://www.w3.org/2000/svg" viewBox="0 0 459.9 459.901"><defs><style>.a{fill:#002147;}.b{fill:#fff;}</style></defs><title>rse_skyline_social</title><rect class="a" width="459.9" height="459.901"/><path class="b" d="M74.758,342.6a43.468,43.468,0,0,1-16.85-3.061,34.784,34.784,0,0,1-12.374-8.529,36.562,36.562,0,0,1-7.648-13.051,50.772,50.772,0,0,1-2.611-16.628,47.055,47.055,0,0,1,2.7-16.084,38.555,38.555,0,0,1,7.8-13.079,36.272,36.272,0,0,1,12.436-8.786,41.246,41.246,0,0,1,16.663-3.205,42.94,42.94,0,0,1,17.5,3.291,34.63,34.63,0,0,1,12.311,8.9,36.773,36.773,0,0,1,7.275,13.08,51.761,51.761,0,0,1,2.394,15.883,50.746,50.746,0,0,1-.995,9.96,43.621,43.621,0,0,1-3.078,9.559,39.992,39.992,0,0,1-5.285,8.557,33.228,33.228,0,0,1-7.617,6.9,37.767,37.767,0,0,1-10.041,4.607A43.734,43.734,0,0,1,74.758,342.6Zm1.181-4.121a23.064,23.064,0,0,0,11.41-2.718,23.9,23.9,0,0,0,8.145-7.471,34.787,34.787,0,0,0,4.912-11.189,55.886,55.886,0,0,0,1.648-13.881,67.727,67.727,0,0,0-1.71-15.741,36.872,36.872,0,0,0-5.223-12.306,24.741,24.741,0,0,0-8.86-8.013A26.378,26.378,0,0,0,73.639,264.3a22.889,22.889,0,0,0-11.845,2.919,24.154,24.154,0,0,0-8.083,7.756,34.588,34.588,0,0,0-4.6,11.161,58.4,58.4,0,0,0-1.461,13.194A68.108,68.108,0,0,0,49.327,314.9a37.735,37.735,0,0,0,5.161,12.393,24.345,24.345,0,0,0,21.451,11.189Z"/><path class="b" d="M125.151,338.254l4.85-1.431a11.015,11.015,0,0,0,3.047-1.459,11.329,11.329,0,0,0,1.927-1.574l16.788-19.461L135.1,292.178a7.536,7.536,0,0,0-1.8-1.776,8.673,8.673,0,0,0-2.923-1.258l-4.6-1.2v-2.576h27.98v2.576l-8.146,1.774,9.762,13.737,3.295,4.809,14.3-18.317-7.9-2v-2.576h21.887v2.576l-4.85,1.43a11,11,0,0,0-3.046,1.46,11.271,11.271,0,0,0-1.928,1.574l-16.043,18.775,17.348,22.837a7.547,7.547,0,0,0,1.8,1.776,8.624,8.624,0,0,0,2.921,1.258l4.415,1.2v2.576H159.659v-2.576l8.27-1.774-10.446-14.424-3.3-4.808-15.047,19,7.9,2v2.576H125.151Z"/><path class="b" d="M197.306,338.14l7.9-1.545a3.964,3.964,0,0,0,2.083-1.2,3.106,3.106,0,0,0,.84-2.175V269.568a3.182,3.182,0,0,0-.84-2.232,3.971,3.971,0,0,0-2.083-1.2l-7.9-1.487v-2.691h31.462a68.176,68.176,0,0,1,11.129.8,39.264,39.264,0,0,1,8.239,2.2,22.173,22.173,0,0,1,5.72,3.263,16.29,16.29,0,0,1,3.607,4.036,14.758,14.758,0,0,1,1.865,4.55,21.708,21.708,0,0,1,.529,4.722,19.015,19.015,0,0,1-1.9,8.643,22.577,22.577,0,0,1-4.787,6.468,26.386,26.386,0,0,1-6.312,4.379,29.6,29.6,0,0,1-6.4,2.375l23.565,28.62a16.2,16.2,0,0,0,1.368,1.459,18.9,18.9,0,0,0,1.679,1.43,13.555,13.555,0,0,0,1.772,1.146,6.455,6.455,0,0,0,1.71.658l6.964,1.431v2.69H264.4a22.262,22.262,0,0,1-4.632-.4,9.587,9.587,0,0,1-3.2-1.288,11.644,11.644,0,0,1-2.518-2.233q-1.152-1.344-2.643-3.234l-22.01-27.99-10.074-1.774v29.306a3.284,3.284,0,0,0,.715,2.175,3.78,3.78,0,0,0,1.96,1.2l9.2,1.545v2.69H197.306Zm22.01-37.778a13.278,13.278,0,0,0,1.928.287q1.244.114,2.674.2t2.767.114q1.337.03,2.207.029a22.213,22.213,0,0,0,8.425-1.46,17.438,17.438,0,0,0,5.938-3.863,15.715,15.715,0,0,0,3.544-5.552,18.6,18.6,0,0,0,1.182-6.583,20.488,20.488,0,0,0-1.368-7.871,13.642,13.642,0,0,0-3.949-5.408,16.585,16.585,0,0,0-6.372-3.12,33.985,33.985,0,0,0-8.644-1h-8.332Z"/><path class="b" d="M284.7,317.248h3.3l4.912,11.391a6,6,0,0,0,1.212,1.6,8.12,8.12,0,0,0,1.586,1.317,39.376,39.376,0,0,0,4.849,2.4,51.607,51.607,0,0,0,5.224,1.861,47.659,47.659,0,0,0,4.974,1.2,23.654,23.654,0,0,0,4.166.429,23.13,23.13,0,0,0,7.119-1.031,15.417,15.417,0,0,0,5.472-3,13.036,13.036,0,0,0,3.482-4.865,16.966,16.966,0,0,0,1.212-6.611,12.157,12.157,0,0,0-3.109-8.615,22.276,22.276,0,0,0-8.394-5.41,43.384,43.384,0,0,0-4.663-1.516q-2.3-.6-4.632-1.173t-4.664-1.173a46.705,46.705,0,0,1-4.632-1.46,24.024,24.024,0,0,1-10.787-7.384,18.17,18.17,0,0,1-3.824-11.677,20.785,20.785,0,0,1,2.052-9.129,23.061,23.061,0,0,1,5.689-7.441,26.814,26.814,0,0,1,8.612-4.98,31.325,31.325,0,0,1,10.756-1.8,62.874,62.874,0,0,1,6.28.314q3.108.317,6.094.831t5.782,1.23q2.8.717,5.409,1.517v18.6h-3.3l-4.29-10.59a3.579,3.579,0,0,0-1.15-1.545q-.84-.687-1.523-1.144a15.923,15.923,0,0,0-3.482-1.776,37.139,37.139,0,0,0-4.073-1.258,36.186,36.186,0,0,0-4.073-.773,27.165,27.165,0,0,0-3.419-.258,21.134,21.134,0,0,0-6.56.944,14.618,14.618,0,0,0-4.88,2.6,11.41,11.41,0,0,0-3.079,4.006,11.959,11.959,0,0,0-1.088,5.1,21.955,21.955,0,0,0,.5,4.694,12.753,12.753,0,0,0,1.8,4.293,14.555,14.555,0,0,0,3.576,3.692,20.128,20.128,0,0,0,5.75,2.833q2.238.744,4.446,1.316t4.446,1.145q2.238.573,4.57,1.259t4.881,1.66a45.138,45.138,0,0,1,5.627,2.6,20.864,20.864,0,0,1,4.943,3.749,17.492,17.492,0,0,1,3.513,5.323,18.366,18.366,0,0,1,1.337,7.326,23.98,23.98,0,0,1-1.772,8.959,21.472,21.472,0,0,1-5.6,7.927,29.115,29.115,0,0,1-9.793,5.667,41.9,41.9,0,0,1-14.3,2.174,40.713,40.713,0,0,1-5.751-.429q-3.018-.429-6.218-1.115t-6.5-1.6q-3.3-.916-6.528-1.889Z"/><path class="b" d="M357.1,338.14,365,336.6a3.964,3.964,0,0,0,2.083-1.2,3.1,3.1,0,0,0,.839-2.175V269.568a3.181,3.181,0,0,0-.839-2.232,3.971,3.971,0,0,0-2.083-1.2l-7.9-1.487v-2.691h62.426v18.488h-3.482l-4.415-12.192a3.927,3.927,0,0,0-.87-1.431,2.254,2.254,0,0,0-1.679-.572H379.11v31.309h19.648a2.615,2.615,0,0,0,1.8-.515,3.437,3.437,0,0,0,.87-1.316l3.545-9.387h3.046v26.845h-3.046l-3.545-9.273a3.614,3.614,0,0,0-.87-1.459,2.526,2.526,0,0,0-1.8-.544H379.11V336.48h35.317a2.318,2.318,0,0,0,1.679-.544,3.6,3.6,0,0,0,.87-1.46l4.167-13.794h3.482V340.83H357.1Z"/><path class="b" d="M424.472,229.316a2,2,0,0,1-1.825-1.18l-9.72-21.626h-.868a2,2,0,0,1-2-2v-11a2,2,0,0,1-1.441-1.921v-4.795h-.574a2.043,2.043,0,0,1-.324-.026,2,2,0,0,1-.551.077h-.986v4.435a2,2,0,0,1-.994,1.729l.273,12.023a2,2,0,0,1-1.72,2.026l-13.489,1.9a2,2,0,0,1-2.279-1.98V194.165a2,2,0,0,1-1.6-1.959V187.02l-.737-.022a1.829,1.829,0,0,1-.247-.023,1.977,1.977,0,0,1-.825.178h-.832v5.053a2,2,0,0,1-.847,1.634l-.06.042-.381,12.337a2,2,0,0,1-1.525,1.881l-10.964,2.677a2,2,0,0,1-2.469-1.792l-1.716-22.614a2,2,0,0,1-.884-1.325l-1.678-9.28c-.027,0-.055-.006-.083-.01a1.643,1.643,0,0,0-2.675.224,2.009,2.009,0,0,1-2.053-1.656l-7.665-44.212-6.507,44.315a2,2,0,0,1-1.978,1.709h-.01a2,2,0,0,1-1.6-.807l-.987,9.214a2,2,0,0,1-3.667.875l-2.5,7.284a2,2,0,0,1-1.852,1.349l-15.547.309a1.906,1.906,0,0,1-1.44-.572,2,2,0,0,1-.6-1.428v-6.074a2.015,2.015,0,0,1,.206-.885v-.948l-3.464.047v.756a2,2,0,0,0,0,1.133v6.486a2,2,0,0,1-2.049,2l-.063,0v32.443a2,2,0,0,1-2,2H293.345a2,2,0,0,1-2-2v-14.85l-1.557-1.634a2,2,0,0,1-.553-1.38v-2.667l-.825-.687a2,2,0,0,1-.72-1.537V188.618l-.805-6.735-.05.006a2.021,2.021,0,0,1-1.563-.492,2.051,2.051,0,0,0-1.673-1.722,2,2,0,0,1-.645-1.472v-.21l-.395-1.078L280.5,173.16l-1.115-1.2-2.887-2.539a1.875,1.875,0,0,1-.209-.209L274,166.627a2,2,0,0,1-.309-.45l-.285-.572-.362,1.448a2.011,2.011,0,0,1-.294.652l-1.03,1.493a2,2,0,0,1-.446.463l-1.142.856-1,.949c-.047.044-.1.086-.145.126l-2.515,1.972-1,1.046-.714,1.107-.339,1.779a2,2,0,0,1-1.935,1.626l-2.62.039-.237,9.3.272,17.022a2,2,0,0,1-2,2.032H256.28a2,2,0,0,1-2-2v-8.255l-.725-1.127a2,2,0,0,1-.318-1.082v-.98l-.786-.033a2,2,0,0,1-1.917-2V187.83a2,2,0,0,1-1.06-.853l-.657-1.081c-.026-.044-.052-.088-.074-.134l-1.227-2.417-1.424-2.206-1.735-2.09-3.587-3.337-2.464-1.392a2,2,0,0,1-1.015-1.741v-.087l-.939-.038a2,2,0,0,1-1.919-2v-2.063l-.727-1.709a2,2,0,0,1-.161-.784V160l-.294-1.042-.624-.667-1.036-.68a1.879,1.879,0,0,1-.245-.189l-.455-.411a1.993,1.993,0,0,1-.643.807l-.768.568-.494.493-.166.583v6.284a2.046,2.046,0,0,1-.072.534l-.623,2.248v1.967a2,2,0,0,1-1.931,2l-1.39.048v.656a2,2,0,0,1-.8,1.6l-1.9,1.416-3.841,3.362-1.393,1.714-1.341,1.741-1.363,2.151L213.2,187.1a2,2,0,0,1-.949.921v3.012a2,2,0,0,1-2.328,1.972l-1.007-.167-.069.16v.008l.256.152a2,2,0,0,1,.869,2.4L209.462,197a1.987,1.987,0,0,1-.656.906l-.154.12v2.111a2,2,0,0,1-.285,1.029,2,2,0,0,1,.285,1.03v5.56a2,2,0,0,1-.218.908l-2.677,5.252A2,2,0,0,1,204.173,215l-1.029.1a1.993,1.993,0,0,1-2.125-1.455l-.576-2.072-6.1.656v15.09a2,2,0,0,1-2,2H149.492a2,2,0,0,1-2-1.991l-.134-30.65a1.912,1.912,0,0,1-.93.207l-4.6-.1a2,2,0,0,1-1.477-.7,1.994,1.994,0,0,1-1.405.622l-3.476.078a2.007,2.007,0,0,1-2.013-1.649l-.794-4.451a2,2,0,0,1-1.948,1.544h-.007l-11.351-.039a2,2,0,0,1-1.975-1.732l-.306-2.272-.335,2.024.067,27.891a2,2,0,0,1-2.086,2l-12.51-.541a2,2,0,0,1-1.639-.986L90.5,201.39l-1-1.072a2,2,0,0,1-.541-1.368v-3.437l-1.06-1.093a1.949,1.949,0,0,1-.344.042l-2.162.077a2.008,2.008,0,0,1-2.009-1.5l-.772-3.011a2.064,2.064,0,0,1-.062-.476l-.155-14.9a2.019,2.019,0,0,1,.076-.566,1.969,1.969,0,0,1-.15-.662L82.023,168l-1.012-.028a2,2,0,0,1-1.924-1.706L76.6,149.5l-2.124,17.033a2,2,0,0,1-1.985,1.753h-.687l-1.089,5.27.609,15.586a2,2,0,0,1-.178.906l-.169.372.341,3.956a2,2,0,0,1-1.993,2.172H66.78a2,2,0,0,1-1.707-.956v3.976a2,2,0,0,1-.19.851l-.408.869.6,14.258a2,2,0,0,1-2,2.084h-13.2a2,2,0,0,1-1.977-1.7l-4.314-28.274L40.089,214.8a2.009,2.009,0,0,1-.262.763l-2.392,4.049.088,7.678a2,2,0,0,1-1.977,2.023,2.034,2.034,0,0,1-2.023-1.977l-.1-8.238a2,2,0,0,1,.279-1.04l2.467-4.176,4.677-36.4.652-8.877a1.962,1.962,0,0,1,2-1.853,2,2,0,0,1,1.987,1.87l.574,8.833,5.519,36.17h9.4l-.53-12.666a2,2,0,0,1,.188-.935l.427-.908v-4.264a2,2,0,0,1,.178-.824l2.934-6.487a2,2,0,0,1,3.047-.757l-.52-13.321a2,2,0,0,1,.04-.482l1.467-7.1a2,2,0,0,1,1.958-1.595h.551l3.719-29.832a2,2,0,0,1,3.964-.045L82.8,164.023l1.179.032a2,2,0,0,1,1.943,1.893l.3,5.739a2,2,0,0,1,1.088,1.78v.695a2,2,0,0,1-.914,1.679l.1,9.913c.025-.021.051-.041.078-.062a2,2,0,0,1,1.639-.355l.7.155a2,2,0,0,1,1.565,1.952v3.9l1.906,1.966a2,2,0,0,1,.565,1.393v3.456l.617.659a1.958,1.958,0,0,1,.266.355l9.642,16.436,9.331.4-.062-25.964a1.937,1.937,0,0,1,.027-.331l2.538-15.341a2,2,0,0,1,3.955.059l1.853,13.756,7.98.028,1.775-8.421a2,2,0,0,1,3.926.062l2.3,12.883h.029l1.079-8.961a2,2,0,0,1,1.951-1.76,1.959,1.959,0,0,1,2.011,1.69l1.425,9.108.88.019V189.22a2.183,2.183,0,0,1,.019-.28l1.313-9.267a2,2,0,0,1,1.938-1.719,1.977,1.977,0,0,1,2.009,1.636l1.4,7.591a2,2,0,0,1,1.333,1.885v.849a2,2,0,0,1-1.15,1.81l.146,33.591H190.34V210.43a2,2,0,0,1,1.787-1.988l9.575-1.03a1.989,1.989,0,0,1,2.139,1.45l.811-1.59v-3.278l-.166-.018a2,2,0,0,1-1.731-2.474l.413-1.648a2,2,0,0,1,1.484-1.462v-1.347a2,2,0,0,1,.75-1.561,1.987,1.987,0,0,1-.461-1.134l-.115-1.544a1.987,1.987,0,0,1,.159-.945l.888-2.047a2,2,0,0,1,2.163-1.176l.219.036V186.44a2,2,0,0,1,1.608-1.961l.2-.04.565-1.132c.031-.061.064-.12.1-.177l1.468-2.316c.033-.052.068-.1.1-.151l1.429-1.854,1.538-1.893a1.926,1.926,0,0,1,.248-.255l3.99-3.492c.043-.038.088-.074.134-.109l1.164-.867V170.61a2,2,0,0,1,1.931-2l1.39-.049v-.307a2,2,0,0,1,.072-.534l.623-2.248v-6.292a2,2,0,0,1,.077-.549l.386-1.351a2,2,0,0,1,.509-.866l.965-.965a2.173,2.173,0,0,1,.225-.194l.192-.141.167-.773-.189-1.515a1.983,1.983,0,0,1,.044-.732l.231-.927a2.014,2.014,0,0,1,.429-.826l.5-.579a2.005,2.005,0,0,1,1.119-.651l1.352-.27a1.991,1.991,0,0,1,1.807.547l.657.657a2,2,0,0,1,.388.55l.425.888a2,2,0,0,1,.2.863v.85a2.025,2.025,0,0,1-.1.632l-.195.582,1.016.666a1.944,1.944,0,0,1,.364.306l1.119,1.2a2.012,2.012,0,0,1,.464.823l.5,1.776a2,2,0,0,1,.075.544v5.769l.728,1.71a2.008,2.008,0,0,1,.16.783v.551l.939.038a2,2,0,0,1,1.919,2v.841l1.648.932a1.967,1.967,0,0,1,.371.27l3.875,3.6a1.809,1.809,0,0,1,.17.18l1.892,2.278a2.273,2.273,0,0,1,.141.193l1.545,2.394c.037.058.071.118.1.18l1.272,2.495h.767a2,2,0,0,1,2,2v1.39a1.984,1.984,0,0,1-.225.921,2,2,0,0,1,.784.4l0-.212L255.9,177.7a2,2,0,0,1,1.028-1.7l1.043-.579a2,2,0,0,1,.942-.251l1.882-.028.107-.561a1.987,1.987,0,0,1,.284-.709l1.029-1.6a1.988,1.988,0,0,1,.239-.3l1.236-1.287a1.96,1.96,0,0,1,.208-.189l2.55-2,1.01-.963a2.117,2.117,0,0,1,.18-.151l.975-.732.638-.925.29-1.16.334-3.154v-2.211a2.04,2.04,0,0,1,.06-.486l.2-.79V148.5a2,2,0,0,1,.892-1.665l.618-.411a2,2,0,0,1,.935-.328l1.183-.1a2,2,0,0,1,1.423.43l.465.372.977.684a2,2,0,0,1,.854,1.639v1.235a2,2,0,0,1-1.583,1.956l.089,2.344.254,4.017.376,4.413.529,1.059,2.069,2.348,2.9,2.555c.046.04.089.083.131.127l1.338,1.442a1.976,1.976,0,0,1,.279.383l2.182,3.966.353-.036.087-.007a2,2,0,0,1,1.471-.2l.825.205a2,2,0,0,1,1.5,1.7l1.389,11.635a2.093,2.093,0,0,1,.014.237v15.125l.825.687a2,2,0,0,1,.72,1.537v2.8l1.558,1.634a2,2,0,0,1,.552,1.38v13.651h9.333V192.824a2,2,0,0,1,2.049-2l.063,0v-3.649l-.183-.2a2,2,0,0,1,.183-2.9v-1.551a2,2,0,0,1,1.972-2l7.465-.1a2.1,2.1,0,0,1,1.432.576,2,2,0,0,1,.6,1.424v1.75a2,2,0,0,1-.177,3.127l-.029.02v3l12.111-.24,4.023-11.7a2,2,0,0,1,1.892-1.349h.039a1.923,1.923,0,0,1,.324.033l1.87-17.448a2,2,0,0,1,1.959-1.787h.029a2,2,0,0,1,1.982,1.729l.046.332,5.3-36.1.92-14.231a2,2,0,0,1,1.978-1.871h.018a2,2,0,0,1,1.993,1.836l1.177,14.325,6.038,34.827a2,2,0,0,1,1.938-1.618h.025a2,2,0,0,1,1.988,1.771l1.215,10.538a2,2,0,0,1,1.494,1.588l1.723,9.532a2,2,0,0,1,1.34,1.74l1.829,24.11,7.2-1.757.365-11.813a2,2,0,0,1,.846-1.572l.028-.02V180.057a2,2,0,0,1,2-2h1.081a2.447,2.447,0,0,0,1.932.111l1.132.1a2.033,2.033,0,0,1,.346.062,2,2,0,0,1,1.584-.337l.979.207a2,2,0,0,1,1.587,1.957V190.3a2,2,0,0,1,1.6,1.959v12.422l9.448-1.335-.268-11.865a2,2,0,0,1,1.029-1.8v-9.473a2,2,0,0,1,2-2h1.029a2.009,2.009,0,0,0,1.957.206h.875a2,2,0,0,0,1.441-.1h1.133a2,2,0,0,1,2,2v9.353a2,2,0,0,1,1.441,1.921V202.51h.162a2,2,0,0,1,1.824,1.18L426.3,226.5a2,2,0,0,1-1.823,2.82Z"/></svg>