<svg xmlns="http://www.w3.org/2000/svg" viewBox="0 0 438 283.464"><defs><style>.a{fill:#002147;}.b{fill:#fff;}</style></defs><title>rse_skyline</title><rect class="a" width="438" height="283.464"/><path class="b" d="M63.808,254.386a43.468,43.468,0,0,1-16.85-3.062A34.758,34.758,0,0,1,34.584,242.8a36.557,36.557,0,0,1-7.648-13.05,50.781,50.781,0,0,1-2.611-16.628,47.055,47.055,0,0,1,2.705-16.084,38.546,38.546,0,0,1,7.8-13.079,36.275,36.275,0,0,1,12.436-8.787,41.246,41.246,0,0,1,16.663-3.205,42.957,42.957,0,0,1,17.5,3.291,34.644,34.644,0,0,1,12.311,8.9,36.768,36.768,0,0,1,7.275,13.079,51.767,51.767,0,0,1,2.394,15.884,50.744,50.744,0,0,1-1,9.959,43.621,43.621,0,0,1-3.078,9.559,39.992,39.992,0,0,1-5.285,8.557,33.205,33.205,0,0,1-7.617,6.9A37.8,37.8,0,0,1,76.4,252.7,43.769,43.769,0,0,1,63.808,254.386Zm1.181-4.121a23.065,23.065,0,0,0,11.41-2.719,23.893,23.893,0,0,0,8.145-7.47,34.8,34.8,0,0,0,4.912-11.19A55.88,55.88,0,0,0,91.1,215.005a67.718,67.718,0,0,0-1.71-15.74,36.878,36.878,0,0,0-5.223-12.307,24.759,24.759,0,0,0-8.86-8.013,26.378,26.378,0,0,0-12.622-2.862A22.889,22.889,0,0,0,50.844,179a24.167,24.167,0,0,0-8.083,7.757,34.588,34.588,0,0,0-4.6,11.161A58.388,58.388,0,0,0,36.7,211.113a68.123,68.123,0,0,0,1.678,15.57,37.738,37.738,0,0,0,5.161,12.392,24.349,24.349,0,0,0,21.451,11.19Z" transform="translate(0 0)"/><path class="b" d="M114.2,250.035l4.85-1.431a11.013,11.013,0,0,0,3.047-1.458,11.276,11.276,0,0,0,1.927-1.575l16.788-19.461-16.664-22.151a7.533,7.533,0,0,0-1.8-1.775,8.693,8.693,0,0,0-2.923-1.259l-4.6-1.2v-2.577H142.8v2.577l-8.146,1.774,9.762,13.737,3.295,4.808,14.3-18.317-7.9-2v-2.577h21.887v2.577l-4.85,1.43a11,11,0,0,0-3.046,1.459,11.219,11.219,0,0,0-1.928,1.575l-16.043,18.774L167.487,245.8a7.525,7.525,0,0,0,1.8,1.775,8.643,8.643,0,0,0,2.921,1.259l4.415,1.2v2.577H148.709v-2.577l8.27-1.774-10.446-14.423-3.295-4.808-15.047,19,7.9,2v2.577H114.2Z" transform="translate(0 0)"/><path class="b" d="M186.356,249.922l7.9-1.546a3.963,3.963,0,0,0,2.083-1.2,3.109,3.109,0,0,0,.84-2.175v-63.65a3.184,3.184,0,0,0-.84-2.232,3.969,3.969,0,0,0-2.083-1.2l-7.9-1.488v-2.691h31.462a68.176,68.176,0,0,1,11.129.8,39.2,39.2,0,0,1,8.239,2.2,22.143,22.143,0,0,1,5.72,3.262,16.29,16.29,0,0,1,3.607,4.036,14.778,14.778,0,0,1,1.865,4.55,21.715,21.715,0,0,1,.529,4.722,19.016,19.016,0,0,1-1.9,8.644,22.586,22.586,0,0,1-4.787,6.467,26.357,26.357,0,0,1-6.312,4.379,29.556,29.556,0,0,1-6.4,2.376L253.072,243.8a16.2,16.2,0,0,0,1.368,1.46,19.069,19.069,0,0,0,1.679,1.43,13.546,13.546,0,0,0,1.772,1.145,6.46,6.46,0,0,0,1.71.659l6.964,1.431v2.69h-13.12a22.253,22.253,0,0,1-4.632-.4,9.586,9.586,0,0,1-3.2-1.287,11.7,11.7,0,0,1-2.518-2.233q-1.152-1.344-2.643-3.234l-22.01-27.99-10.074-1.774V245a3.286,3.286,0,0,0,.715,2.175,3.779,3.779,0,0,0,1.96,1.2l9.2,1.546v2.69H186.356Zm22.01-37.778a13.444,13.444,0,0,0,1.928.286q1.243.114,2.674.2t2.767.115c.891.02,1.626.028,2.207.028a22.214,22.214,0,0,0,8.425-1.459,17.44,17.44,0,0,0,5.938-3.864,15.7,15.7,0,0,0,3.544-5.552,18.591,18.591,0,0,0,1.182-6.582,20.481,20.481,0,0,0-1.368-7.871,13.646,13.646,0,0,0-3.949-5.409,16.6,16.6,0,0,0-6.372-3.12,34.033,34.033,0,0,0-8.644-1h-8.332Z" transform="translate(0 0)"/><path class="b" d="M273.745,229.03h3.3l4.912,11.39a5.965,5.965,0,0,0,1.212,1.6,8.12,8.12,0,0,0,1.586,1.317,39.238,39.238,0,0,0,4.849,2.4,52.1,52.1,0,0,0,5.224,1.861,47.644,47.644,0,0,0,4.974,1.2,23.654,23.654,0,0,0,4.166.429,23.161,23.161,0,0,0,7.119-1.03,15.417,15.417,0,0,0,5.472-3,13.047,13.047,0,0,0,3.482-4.866,16.963,16.963,0,0,0,1.212-6.611,12.157,12.157,0,0,0-3.109-8.615,22.275,22.275,0,0,0-8.394-5.409,43.162,43.162,0,0,0-4.663-1.516q-2.3-.6-4.632-1.174t-4.664-1.173a46.7,46.7,0,0,1-4.632-1.459,24.025,24.025,0,0,1-10.787-7.385,18.167,18.167,0,0,1-3.824-11.676,20.786,20.786,0,0,1,2.052-9.13,23.082,23.082,0,0,1,5.689-7.441,26.851,26.851,0,0,1,8.612-4.98,31.325,31.325,0,0,1,10.756-1.8,62.576,62.576,0,0,1,6.28.315q3.108.315,6.094.83t5.782,1.231q2.8.715,5.409,1.517v18.6h-3.3l-4.29-10.589a3.576,3.576,0,0,0-1.15-1.546q-.84-.687-1.523-1.144a15.922,15.922,0,0,0-3.482-1.775,36.928,36.928,0,0,0-4.073-1.259,36.4,36.4,0,0,0-4.073-.772,27.165,27.165,0,0,0-3.419-.258,21.1,21.1,0,0,0-6.56.944,14.6,14.6,0,0,0-4.88,2.605,11.392,11.392,0,0,0-3.079,4.006,11.953,11.953,0,0,0-1.088,5.095,21.945,21.945,0,0,0,.5,4.693,12.753,12.753,0,0,0,1.8,4.293,14.539,14.539,0,0,0,3.576,3.692,20.1,20.1,0,0,0,5.75,2.833q2.238.745,4.446,1.317t4.446,1.145q2.238.573,4.57,1.259t4.881,1.659a45.138,45.138,0,0,1,5.627,2.6,20.917,20.917,0,0,1,4.943,3.749,17.5,17.5,0,0,1,3.513,5.323,18.368,18.368,0,0,1,1.337,7.327,23.975,23.975,0,0,1-1.772,8.958,21.476,21.476,0,0,1-5.6,7.928,29.13,29.13,0,0,1-9.793,5.666,41.873,41.873,0,0,1-14.3,2.175,40.862,40.862,0,0,1-5.751-.429q-3.018-.429-6.218-1.116t-6.5-1.6q-3.3-.915-6.528-1.889Z" transform="translate(0 0)"/><path class="b" d="M346.15,249.922l7.9-1.546a3.963,3.963,0,0,0,2.083-1.2,3.108,3.108,0,0,0,.839-2.175v-63.65a3.183,3.183,0,0,0-.839-2.232,3.969,3.969,0,0,0-2.083-1.2l-7.9-1.488v-2.691h62.426v18.488h-3.482l-4.415-12.191a3.919,3.919,0,0,0-.87-1.431,2.251,2.251,0,0,0-1.679-.573H368.16v31.31h19.648a2.615,2.615,0,0,0,1.8-.515,3.441,3.441,0,0,0,.87-1.317l3.545-9.387h3.046v26.845h-3.046l-3.545-9.272a3.618,3.618,0,0,0-.87-1.46,2.526,2.526,0,0,0-1.8-.544H368.16v34.572h35.317a2.318,2.318,0,0,0,1.679-.544,3.6,3.6,0,0,0,.87-1.459l4.167-13.8h3.482v20.149H346.15Z" transform="translate(0 0)"/><path class="b" d="M413.522,141.1a2,2,0,0,1-1.825-1.181l-9.72-21.626h-.868a2,2,0,0,1-2-2v-11a2,2,0,0,1-1.441-1.921v-4.8h-.574a1.932,1.932,0,0,1-.324-.026,1.967,1.967,0,0,1-.551.078h-.986v4.435a2,2,0,0,1-.994,1.729l.273,12.022a2,2,0,0,1-1.72,2.026L379.3,120.743a2,2,0,0,1-2.279-1.981V105.946a2,2,0,0,1-1.6-1.959V98.8l-.737-.023a1.825,1.825,0,0,0-1.072.156h-.832v5.052a2,2,0,0,1-.847,1.634l-.06.043L371.5,118a2,2,0,0,1-1.525,1.881l-10.964,2.676a2,2,0,0,1-2.469-1.791l-1.716-22.615a2,2,0,0,1-.884-1.325l-1.678-9.279-.083-.01a1.643,1.643,0,0,0-2.675.224,2.01,2.01,0,0,1-2.053-1.657l-7.665-44.212L333.28,86.208a2,2,0,0,1-1.978,1.71h-.01a2,2,0,0,1-1.6-.808l-.987,9.214a2,2,0,0,1-3.667.875l-2.5,7.285a2,2,0,0,1-1.852,1.349l-15.547.308a1.9,1.9,0,0,1-1.44-.571,2,2,0,0,1-.6-1.428V98.067a2.007,2.007,0,0,1,.206-.884v-.949l-3.464.048v.756a2.012,2.012,0,0,1-.082.566,2.028,2.028,0,0,1,.082.566v6.487a2,2,0,0,1-2.049,2h-.063V139.1a2,2,0,0,1-2,2H282.4a2,2,0,0,1-2-2V124.248l-1.557-1.634a2,2,0,0,1-.553-1.38v-2.667l-.825-.687a2,2,0,0,1-.72-1.537V100.4l-.805-6.736-.05.006a2,2,0,0,1-2.215-1.713A2,2,0,0,1,272,89.985v-.211l-.4-1.077-2.064-3.755-1.115-1.2L265.543,81.2a1.955,1.955,0,0,1-.209-.208l-2.282-2.587a1.977,1.977,0,0,1-.309-.45l-.285-.571-.362,1.448a2,2,0,0,1-.294.651l-1.03,1.493a2.025,2.025,0,0,1-.446.464l-1.142.856-1,.949c-.047.044-.1.086-.145.125l-2.515,1.972-1,1.047L253.81,87.5l-.339,1.78a2,2,0,0,1-1.935,1.625l-2.62.039-.237,9.3.272,17.022a2,2,0,0,1-2,2.032H245.33a2,2,0,0,1-2-2v-8.254l-.725-1.127a2,2,0,0,1-.318-1.082v-.981l-.786-.032a2,2,0,0,1-1.917-2V99.611a2,2,0,0,1-1.06-.852l-.657-1.081c-.026-.044-.052-.088-.074-.134l-1.227-2.417-1.424-2.207-1.735-2.089-3.587-3.337L227.356,86.1a2,2,0,0,1-1.015-1.741v-.088l-.939-.037a2,2,0,0,1-1.919-2V80.174l-.727-1.709a2,2,0,0,1-.161-.784v-5.9l-.294-1.042-.624-.667-1.036-.679a1.886,1.886,0,0,1-.245-.19l-.455-.411a1.986,1.986,0,0,1-.643.807l-.768.568-.494.493-.166.583v6.285a2.057,2.057,0,0,1-.072.534l-.623,2.247v1.968a2,2,0,0,1-1.931,2l-1.39.048v.655a2,2,0,0,1-.8,1.6L211.15,88l-3.841,3.362-1.393,1.714-1.341,1.741-1.363,2.152-.958,1.917a2,2,0,0,1-.949.922v3.011a2,2,0,0,1-2.328,1.973l-1.007-.168-.069.16v.009l.256.151a2,2,0,0,1,.869,2.4l-.515,1.441a1.99,1.99,0,0,1-.656.907l-.154.12v2.11a2,2,0,0,1-.285,1.03,2,2,0,0,1,.285,1.03v5.559a2.009,2.009,0,0,1-.218.909l-2.677,5.251a2,2,0,0,1-1.584,1.082l-1.029.1a2,2,0,0,1-2.125-1.455l-.576-2.072-6.1.656V139.1a2,2,0,0,1-2,2H138.542a2,2,0,0,1-2-1.991l-.134-30.649a1.935,1.935,0,0,1-.93.207l-4.6-.1a2,2,0,0,1-1.477-.7,2,2,0,0,1-1.405.622l-3.476.077a2.006,2.006,0,0,1-2.013-1.648l-.794-4.451a2,2,0,0,1-1.948,1.544h-.007l-11.351-.039a2,2,0,0,1-1.975-1.733l-.306-2.272-.335,2.025.067,27.89a2,2,0,0,1-2.086,2l-12.51-.54a2,2,0,0,1-1.639-.986l-10.08-17.182L78.541,112.1A2,2,0,0,1,78,110.732V107.3L76.94,106.2a2.047,2.047,0,0,1-.344.041l-2.162.077a2.008,2.008,0,0,1-2.009-1.5l-.772-3.012a2.057,2.057,0,0,1-.062-.476l-.155-14.9a2.016,2.016,0,0,1,.076-.565,1.98,1.98,0,0,1-.15-.662l-.289-5.415-1.012-.028a2,2,0,0,1-1.924-1.706l-2.484-16.77L63.529,78.315a2,2,0,0,1-1.985,1.752h-.687l-1.089,5.27.609,15.586a2,2,0,0,1-.178.906l-.169.373.341,3.956a2,2,0,0,1-1.993,2.172H55.83a2,2,0,0,1-1.707-.957v3.976a2,2,0,0,1-.19.852l-.408.868.6,14.259a2,2,0,0,1-2,2.083h-13.2a2,2,0,0,1-1.977-1.7L32.627,99.439l-3.488,27.146a2.01,2.01,0,0,1-.262.762L26.485,131.4l.088,7.678A2,2,0,0,1,24.6,141.1a2.034,2.034,0,0,1-2.023-1.977l-.095-8.237a2,2,0,0,1,.279-1.041l2.467-4.175,4.677-36.4.652-8.877a1.963,1.963,0,0,1,2-1.854,2,2,0,0,1,1.987,1.871l.574,8.832,5.519,36.17h9.4l-.53-12.666a2,2,0,0,1,.188-.935l.427-.908v-4.263a2,2,0,0,1,.178-.824l2.934-6.487a2,2,0,0,1,3.047-.758l-.52-13.32a2.009,2.009,0,0,1,.04-.483l1.467-7.1a2,2,0,0,1,1.958-1.6h.551L63.5,46.236a2,2,0,0,1,3.964-.045L71.848,75.8l1.179.033A2,2,0,0,1,74.97,77.73l.305,5.739a2,2,0,0,1,1.088,1.78v.7a2,2,0,0,1-.914,1.679l.1,9.913c.025-.021.051-.042.078-.062a2,2,0,0,1,1.639-.355l.695.155a2,2,0,0,1,1.565,1.952v3.9l1.906,1.965A2,2,0,0,1,82,106.484v3.457l.617.658a1.966,1.966,0,0,1,.266.356l9.642,16.435,9.331.4-.062-25.964a1.948,1.948,0,0,1,.027-.332l2.538-15.341a2,2,0,0,1,3.955.06l1.853,13.756,7.98.027,1.775-8.42a2,2,0,0,1,3.926.061l2.3,12.883h.029l1.079-8.96a2,2,0,0,1,1.951-1.761,1.959,1.959,0,0,1,2.011,1.691l1.425,9.108.88.019V101a2.2,2.2,0,0,1,.019-.281l1.313-9.266a2,2,0,0,1,1.938-1.719,1.976,1.976,0,0,1,2.009,1.635l1.4,7.591a2,2,0,0,1,1.333,1.885v.849a2,2,0,0,1-1.15,1.811l.146,33.59H179.39V122.212a2,2,0,0,1,1.787-1.989l9.575-1.029a1.989,1.989,0,0,1,2.139,1.449l.811-1.589v-3.279l-.166-.018a2,2,0,0,1-1.731-2.474l.413-1.647a2,2,0,0,1,1.484-1.462v-1.347a2,2,0,0,1,.75-1.561,1.99,1.99,0,0,1-.461-1.135l-.115-1.544a1.991,1.991,0,0,1,.159-.945l.888-2.046a2,2,0,0,1,2.163-1.177l.219.036V98.222a2,2,0,0,1,1.608-1.961l.2-.04.565-1.132c.031-.061.064-.12.1-.177l1.468-2.317c.033-.051.068-.1.1-.151l1.429-1.853,1.538-1.893a1.867,1.867,0,0,1,.248-.255l3.99-3.492c.043-.038.088-.075.134-.109l1.164-.868V82.391a2,2,0,0,1,1.931-2l1.39-.048v-.308a2.01,2.01,0,0,1,.072-.534l.623-2.247V70.963a1.994,1.994,0,0,1,.077-.549l.386-1.351a2,2,0,0,1,.509-.866l.965-.965a2.173,2.173,0,0,1,.225-.194l.192-.142.167-.772-.189-1.515a1.987,1.987,0,0,1,.044-.733l.231-.927a2,2,0,0,1,.429-.825l.5-.579a2.005,2.005,0,0,1,1.119-.651l1.352-.271a1.989,1.989,0,0,1,1.807.548l.657.656a1.991,1.991,0,0,1,.388.551l.425.887a2,2,0,0,1,.2.864v.849a2.026,2.026,0,0,1-.1.633l-.195.581,1.016.666a1.944,1.944,0,0,1,.364.306l1.119,1.2a2,2,0,0,1,.464.822l.5,1.776a2,2,0,0,1,.075.544v5.77l.728,1.71a2,2,0,0,1,.16.783v.551l.939.037a2,2,0,0,1,1.919,2v.841l1.648.931a2.059,2.059,0,0,1,.371.27l3.875,3.6a2.058,2.058,0,0,1,.17.18l1.892,2.278a2.289,2.289,0,0,1,.141.194l1.545,2.394c.037.058.071.118.1.179l1.272,2.5h.767a2,2,0,0,1,2,2v1.39a1.987,1.987,0,0,1-.225.921,2,2,0,0,1,.784.4l0-.212.272-10.738a2,2,0,0,1,1.028-1.7l1.043-.579a2,2,0,0,1,.942-.252l1.882-.027.107-.561a1.984,1.984,0,0,1,.284-.71l1.029-1.595a2.047,2.047,0,0,1,.239-.3l1.236-1.287a1.95,1.95,0,0,1,.208-.188l2.55-2,1.01-.964a2.321,2.321,0,0,1,.18-.151l.975-.731.638-.926.29-1.159.334-3.155V70.988a2.038,2.038,0,0,1,.06-.485l.2-.791V60.28a2,2,0,0,1,.892-1.664l.618-.412a2,2,0,0,1,.935-.328l1.183-.1a1.993,1.993,0,0,1,1.423.431l.465.371.977.684a2,2,0,0,1,.854,1.639v1.236a2,2,0,0,1-1.583,1.956l.089,2.344.254,4.017.376,4.413.529,1.058,2.069,2.348,2.9,2.555c.046.041.089.083.131.128l1.338,1.441a1.976,1.976,0,0,1,.279.383l2.182,3.966.353-.035.087-.007a2,2,0,0,1,1.471-.2l.825.206a2,2,0,0,1,1.5,1.7l1.389,11.635a2.079,2.079,0,0,1,.014.237v15.125l.825.687a2,2,0,0,1,.72,1.537v2.8l1.558,1.634a2,2,0,0,1,.552,1.38V137.1h9.333V104.605a2,2,0,0,1,2.049-2h.063V98.959l-.183-.2a2,2,0,0,1,.183-2.9V94.309a2,2,0,0,1,1.972-2l7.465-.1a2.11,2.11,0,0,1,1.432.576,2,2,0,0,1,.595,1.424v1.751a2,2,0,0,1-.177,3.126l-.029.02v3l12.111-.241,4.023-11.7a2,2,0,0,1,1.892-1.35h.039a2.033,2.033,0,0,1,.324.032l1.87-17.448a2,2,0,0,1,1.959-1.787h.029a2,2,0,0,1,1.982,1.729l.046.333,5.3-36.1.92-14.23a2,2,0,0,1,1.978-1.871h.018a2,2,0,0,1,1.993,1.836l1.177,14.325L348.8,70.453a2,2,0,0,1,1.938-1.619h.025a2,2,0,0,1,1.988,1.771l1.215,10.538a2,2,0,0,1,1.494,1.588l1.723,9.533A2,2,0,0,1,358.521,94l1.829,24.11,7.2-1.756.365-11.814a2,2,0,0,1,.846-1.572l.028-.02V91.838a2,2,0,0,1,2-2h1.081a2.436,2.436,0,0,0,1.932.111l1.132.1a2.033,2.033,0,0,1,.346.062,2,2,0,0,1,1.584-.336l.979.206a2,2,0,0,1,1.587,1.957V102.08a2,2,0,0,1,1.6,1.959V116.46l9.448-1.334-.268-11.865a2,2,0,0,1,1.029-1.8V91.992a2,2,0,0,1,2-2h1.029a2,2,0,0,0,1.957.206h.875a2,2,0,0,0,1.441-.1h1.133a2,2,0,0,1,2,2v9.354a2,2,0,0,1,1.441,1.921v10.921h.162a2,2,0,0,1,1.824,1.18l10.25,22.806a2,2,0,0,1-1.823,2.821Z" transform="translate(0 0)"/></svg>