<?xml version="1.0" encoding="utf-8"?>
<!-- Generator: Adobe Illustrator 21.1.0, SVG Export Plug-In . SVG Version: 6.00 Build 0)  -->
<svg version="1.1" id="Layer_1" xmlns="http://www.w3.org/2000/svg" xmlns:xlink="http://www.w3.org/1999/xlink" x="0px" y="0px"
	 viewBox="0 0 817 283.5" style="enable-background:new 0 0 817 283.5;" xml:space="preserve">
<style type="text/css">
	.st0{fill:#0E2050;}
	.st1{fill:#FFFFFF;}
</style>
<g>
	<rect class="st0" width="283.5" height="283.5"/>
	<g>
		<g>
			<path class="st1" d="M62.1,235.6c0,10.9-8.4,18.8-18.9,18.8c-10.7,0-18.9-8-18.9-18.4c0-10.9,8.4-18.8,18.9-18.8
				C53.9,217.2,62.1,225.2,62.1,235.6L62.1,235.6L62.1,235.6z M56.1,235.8c0-9.9-4.8-16.8-12.9-16.8c-8.8,0-12.9,8.3-12.9,16.8
				c0,9.9,4.8,16.8,12.9,16.8C52,252.6,56.1,244.3,56.1,235.8L56.1,235.8L56.1,235.8z"/>
			<path class="st1" d="M177.4,235.6c0,10.9-8.4,18.8-18.9,18.8c-10.7,0-18.9-8-18.9-18.4c0-10.9,8.4-18.8,18.9-18.8
				C169.2,217.2,177.4,225.2,177.4,235.6L177.4,235.6L177.4,235.6z M171.4,235.8c0-9.9-4.8-16.8-12.9-16.8
				c-8.8,0-12.9,8.3-12.9,16.8c0,9.9,4.8,16.8,12.9,16.8C167.3,252.6,171.4,244.3,171.4,235.8L171.4,235.8L171.4,235.8z"/>
			<path class="st1" d="M192,236h4.5c6.8,0,8.3-4.3,8.3-8.4c0-3.1-1.4-6-4.6-7.4c-1.7-0.7-3.3-0.7-5.5-0.7H192V236L192,236z
				 M200.3,241.8c-2.1-3-2.9-4.1-5.5-4.1H192v12.2c0,1,0.4,1.5,1.5,1.7l4.1,0.9v1.3h-16.1v-1.3l3.7-0.9c1.1-0.3,1.5-0.7,1.5-1.7
				v-28.2c0-1-0.4-1.4-1.5-1.7l-3.7-0.9v-1.3h15.7c3.3,0,5.6,0.3,7.5,1c3.9,1.5,6.1,5.2,6.1,8.7c0,4.4-3.3,8.1-8.8,9.4v0.2
				c1.1,0.5,1.7,1.2,5.6,6.3l4.9,6.5c0.7,1,1.6,1.6,2.7,1.8l3.6,0.8v1.3h-8.6c-1,0-1.5-0.3-2.4-1.5L200.3,241.8L200.3,241.8z"/>
			<path class="st1" d="M129.9,230.1h1.5v12h-1.5l-0.9-3.6c-0.3-1.3-1.1-1.8-2.3-1.8H118v13.2c0,1,0.4,1.5,1.5,1.7l4.1,0.9v1.3
				h-16.1v-1.3l3.7-0.9c1.1-0.3,1.5-0.7,1.5-1.7v-28.2c0-1-0.4-1.4-1.5-1.7l-3.7-0.9v-1.3h27.2v9h-1.5l-1.7-5.4
				c-0.4-1.4-1-1.9-2.2-1.9H118V235h8.7c1.2,0,1.9-0.5,2.3-1.8L129.9,230.1L129.9,230.1z"/>
			<path class="st1" d="M221.7,253.8v-1.3l3.7-0.9c1.1-0.3,1.5-0.7,1.5-1.7v-28.2c0-1-0.4-1.4-1.5-1.7l-3.7-0.9v-1.3h16.9
				c4.6,0,7.9,0.6,10.6,1.8c6.8,3.1,9.9,9.8,9.9,16.4c0,6.4-2.4,12.4-8.5,15.6c-2.8,1.5-6.7,2.2-11.8,2.2H221.7L221.7,253.8z
				 M232.2,219.5v31c0,1.3,0.3,1.6,1.6,1.6h4.4c4.2,0,7.3-0.6,9.5-2.2c3.7-2.7,5.4-7.6,5.4-13.8c0-6.1-1.7-12.1-6.7-15
				c-2.1-1.2-4.8-1.6-9-1.6H232.2L232.2,219.5z"/>
			<path class="st1" d="M76.2,252.5v1.3H63.5v-1.3l3.2-0.8c1.2-0.3,2-0.7,2.8-1.6l11-13.8l-11-14.6c-0.7-1-1.6-1.5-2.7-1.8l-3-0.8
				v-1.3h15.8v1.3l-3.4,0.7c-1.2,0.2-0.9,0.7-0.3,1.5l8.1,11.6h0.2l8.3-11.6c0.6-0.8,0.8-1.1-0.3-1.4l-3.2-0.8v-1.3h12.7v1.3
				l-3.2,0.8c-1.2,0.3-2,0.7-2.8,1.6l-10.4,13.1l11.6,15.3c0.7,1,1.6,1.5,2.7,1.8l3,0.8v1.3H86.8v-1.3l3.4-0.7
				c1.2-0.2,1-0.6,0.4-1.4L81.8,238h-0.2l-8.9,12.3c-0.6,0.8-0.8,1.1,0.3,1.4L76.2,252.5L76.2,252.5z"/>
		</g>
		<path class="st1" d="M38.3,200.9c-1,1-2.5,1.7-4.6,1.7c-1.8,0-3.5-0.6-4.6-1.7c-1.6-1.6-1.5-3.5-1.5-5.6v-10h2v10.8
			c0,1.4,0,2.7,1,3.7c0.7,0.7,1.8,1.1,3.1,1.1c1.3,0,2.3-0.4,2.9-1.1c1.2-1.2,1.1-2.4,1.1-5.5v-9h2v8.5
			C39.9,196.9,40,199.2,38.3,200.9z"/>
		<path class="st1" d="M56.4,202.2l-8.2-14l0.1,14h-1.9v-17h2.1l8.2,14l-0.1-14h1.9v17H56.4z"/>
		<path class="st1" d="M65.7,202.2v-17h2.1v17H65.7z"/>
		<path class="st1" d="M80.5,202.2h-2.3l-5.9-17h2.1l5,15l5.1-15h2L80.5,202.2z"/>
		<path class="st1" d="M91.1,202.2v-17h9.3v1.7h-7.3v5.6h6.8v1.7h-6.8v6.3h7.5v1.8H91.1z"/>
		<path class="st1" d="M113.5,187.7c-1-1-2.2-0.9-3.6-0.9H108v6.4h0.7c1.7,0,3.6,0.1,4.7-1.1c0.6-0.6,0.9-1.4,0.9-2.2
			C114.3,188.9,113.9,188.1,113.5,187.7z M115.4,202.2l-2-4.4c-1.2-2.7-1.8-3-4.2-3H108v7.4h-2v-17h3.7c2.3,0,4,0,5.3,1.3
			c0.9,0.9,1.3,2,1.3,3.4c0,1.2-0.3,2.2-1.1,2.9c-0.6,0.7-1.6,1.2-2.7,1.3c0.6,0,1.1,0.4,1.4,0.7c0.5,0.5,0.8,1.2,1.3,2.3l2.3,5.1
			H115.4z"/>
		<path class="st1" d="M137.4,202.2v-17h2.1v17H137.4z"/>
		<path class="st1" d="M151.2,186.9v15.3h-2v-15.3h-5.1v-1.7h12.2v1.7H151.2z"/>
		<path class="st1" d="M166,195.5v6.7h-2v-6.7l-5.4-10.3h2.3l4.2,8l4.1-8l2.2,0L166,195.5z"/>
		<path class="st1" d="M190.6,186.6c-3.3,0-5.5,2.8-5.5,7.1c0,4.2,2.4,7.1,5.6,7.1c3.6,0,5.5-3,5.5-7.3
			C196.2,189.4,193.9,186.6,190.6,186.6z M190.6,202.5c-4.4,0-7.6-3.6-7.6-8.8c0-5.3,3.2-8.9,7.8-8.9c4.5,0,7.6,3.6,7.6,8.8
			C198.4,198.9,195.2,202.5,190.6,202.5z"/>
		<path class="st1" d="M206,186.9v5.6h6.6v1.7H206v8.1h-2v-17h9.1v1.7H206z"/>
		<path class="st1" d="M121.7,189.3c0-2.6,2.1-4.5,5.2-4.5c3.1,0,4.6,1.6,4.8,1.8l-1,1.2c-0.4-0.3-1.7-1.3-3.6-1.3
			c-2.2,0-3.4,1.1-3.4,2.7c0,0.7,0.3,1.3,0.8,1.7c0.6,0.5,1.4,0.9,2.4,1.3c1.1,0.5,2.7,1.1,3.8,2.2c0.7,0.8,1.3,1.7,1.3,3.1
			c0,2.8-2,5-5.5,5c-3,0-4.9-1.7-5.1-1.8l0.9-1.4c0.5,0.4,2.4,1.5,4.1,1.5c2.6,0,3.5-1.4,3.5-3.1c0-0.8-0.4-1.4-0.9-1.9
			c-0.8-0.8-2-1.3-3.2-1.8c-1.1-0.5-2.2-1.1-3-1.9C122.2,191.6,121.7,190.7,121.7,189.3z"/>
	</g>
	<path class="st1" d="M199.9,69.9c0-2.1-0.7-3.9-2.3-4.8c-1-0.6-2.3-0.8-4-0.8l-11.9,0v24.1h13c3,0,4.8,0.7,4.9,3.4h0.3L199.9,69.9z
		"/>
	<path class="st1" d="M201.6,69.9c0-2.1,0.7-3.9,2.3-4.8c1-0.6,2.3-0.8,4-0.8l12,0v24.1h-13.1c-3,0-4.8,0.7-4.9,3.4h-0.3L201.6,69.9
		z"/>
	<path class="st1" d="M222.4,66.1c0,0,0,23.9,0,25.5c-1.5,0-18.5,0-18.5,0l-0.2,0.5c-0.3,0.8-0.9,1.5-2.9,1.5c-2,0-2.6-0.7-2.9-1.5
		l-0.2-0.5c0,0-16.9,0-18.4,0c0-1.6,0-25.5,0-25.5h-1.7v0.8l-1.6-0.5c-0.2-0.6-0.8-1.1-1.4-1.1c-0.8,0-1.5,0.7-1.5,1.5
		c0,0.8,0.7,1.5,1.5,1.5c0.4,0,0.7-0.1,1-0.4l2.1,0.6v2l-1.6-0.3c-0.2-0.5-0.8-0.9-1.4-0.9c-0.8,0-1.5,0.7-1.5,1.5
		c0,0.8,0.7,1.5,1.5,1.5c0.4,0,0.8-0.2,1.1-0.5l1.9,0.3v2.1l-1.6-0.1c-0.3-0.4-0.7-0.7-1.3-0.7c-0.8,0-1.5,0.7-1.5,1.5
		c0,0.8,0.7,1.5,1.5,1.5c0.5,0,1-0.3,1.2-0.6l1.7,0.1v2.3l-1.7,0.1c-0.3-0.4-0.7-0.6-1.2-0.6c-0.8,0-1.5,0.7-1.5,1.5
		c0,0.8,0.7,1.5,1.5,1.5c0.5,0,1-0.3,1.3-0.7l1.6-0.1v2.1l-1.8,0.3c-0.3-0.3-0.7-0.5-1.1-0.5c-0.8,0-1.5,0.7-1.5,1.5
		c0,0.8,0.7,1.5,1.5,1.5c0.6,0,1.2-0.4,1.4-0.9l1.5-0.3v2.1l-2,0.6c-0.3-0.2-0.6-0.4-1-0.4c-0.8,0-1.5,0.7-1.5,1.5
		c0,0.8,0.7,1.5,1.5,1.5c0.7,0,1.3-0.5,1.4-1.1l1.5-0.5v2l-2.2,1c-0.2-0.2-0.5-0.3-0.8-0.3c-0.8,0-1.5,0.7-1.5,1.5
		c0,0.8,0.7,1.5,1.5,1.5c0.7,0,1.4-0.5,1.5-1.3l1.6-0.7v1.8c0,0,18.2,0,19.1,0c0.8,1.4,2.1,2.1,4.1,2.1c2,0,3.4-0.7,4.1-2.1
		c0.9,0,19.1,0,19.1,0V66.1H222.4z"/>
	<g>
		<ellipse class="st1" cx="188.3" cy="58.9" rx="7" ry="1.3"/>
		<path class="st1" d="M197.9,49.2l-4,2.8l0,0.3l1,0.4c0.2,0.1,0.2,0.2,0.1,0.3l-2.5,2.1l-0.2,0l-1.8-2.6c-0.1-0.2-0.1-0.3,0.1-0.4
			l1.2-0.2v-0.3l-3.1-4.4H188l-3.1,4.4V52l1.2,0.2c0.2,0,0.3,0.2,0.1,0.4l-1.8,2.6l-0.2,0l-2.4-2.1c-0.1-0.1-0.1-0.2,0.1-0.3l1-0.4
			l0-0.3l-4.2-2.8l-0.3,0.1l2.5,7.5c1.3-0.6,4.1-1,7.5-1c3.4,0,6.2,0.4,7.5,1l2.5-7.5L197.9,49.2z"/>
	</g>
	<g>
		<ellipse class="st1" cx="200.8" cy="109.4" rx="7" ry="1.3"/>
		<path class="st1" d="M210.4,99.7l-4,2.8l0,0.3l1,0.4c0.2,0.1,0.2,0.2,0.1,0.3l-2.5,2.1l-0.2,0l-1.8-2.6c-0.1-0.2-0.1-0.3,0.1-0.4
			l1.2-0.2v-0.3l-3.1-4.4h-0.5l-3.1,4.4v0.3l1.2,0.2c0.2,0,0.3,0.2,0.1,0.4l-1.8,2.6l-0.2,0l-2.4-2.1c-0.1-0.1-0.1-0.2,0.1-0.3
			l1-0.4l0-0.3l-4.2-2.8l-0.3,0.1l2.5,7.5c1.3-0.6,4.1-1,7.5-1c3.4,0,6.2,0.4,7.5,1l2.5-7.5L210.4,99.7z"/>
	</g>
	<g>
		<ellipse class="st1" cx="213.3" cy="58.9" rx="7" ry="1.3"/>
		<path class="st1" d="M222.9,49.2l-4,2.8l0,0.3l1,0.4c0.2,0.1,0.2,0.2,0.1,0.3l-2.5,2.1l-0.2,0l-1.8-2.6c-0.1-0.2-0.1-0.3,0.1-0.4
			l1.2-0.2v-0.3l-3.1-4.4H213l-3.1,4.4V52l1.2,0.2c0.2,0,0.3,0.2,0.1,0.4l-1.8,2.6l-0.2,0l-2.4-2.2c-0.1-0.1-0.1-0.2,0.1-0.3l1-0.4
			l0-0.3l-4.2-2.8l-0.3,0.1l2.5,7.5c1.2-0.6,4.1-1,7.5-1c3.4,0,6.2,0.4,7.5,1l2.5-7.5L222.9,49.2z"/>
	</g>
	<g>
		<path class="st0" d="M184.9,68.1c0.7,0,1.2,0.1,1.5,0.5c0.3,0.2,0.5,0.6,0.5,1.1c0,1.3-1,1.9-2.2,1.9h-1.4v-0.2
			c0.4,0,0.4-0.1,0.4-0.6V69c0-0.6,0-0.6-0.4-0.6v-0.2H184.9z M184.6,70.7c0,0.5,0.1,0.6,0.4,0.6c0.5,0,0.9-0.5,0.9-1.4
			c0-1.1-0.6-1.5-1-1.5c-0.1,0-0.2,0-0.2,0c0,0,0,0.1,0,0.3V70.7z"/>
		<path class="st0" d="M190.9,69.8c0,1.1-0.8,1.8-1.8,1.8c-1.1,0-1.8-0.8-1.8-1.8c0-0.9,0.6-1.9,1.8-1.9
			C190.1,68.1,190.9,68.8,190.9,69.8z M188.3,69.7c0,1,0.4,1.7,0.9,1.7c0.5,0,0.7-0.4,0.7-1.4c0-1.1-0.4-1.7-0.8-1.7
			C188.6,68.3,188.3,68.8,188.3,69.7z"/>
		<path class="st0" d="M195.6,68.1v0.2c-0.4,0-0.4,0.1-0.4,0.6l0.1,1.8c0,0.6,0,0.6,0.4,0.6v0.2H194v-0.2c0.4,0,0.4-0.1,0.4-0.6
			l0-1.9h0l-1,2.7H193l-1-2.5h0l0,1.2c0,0.5,0,0.7,0,0.9c0,0.2,0.1,0.2,0.5,0.3v0.2h-1.3v-0.2c0.3,0,0.4-0.1,0.4-0.3
			c0-0.2,0.1-0.4,0.1-0.9l0.1-1.1c0-0.7,0-0.7-0.4-0.8v-0.2h1.2l0.9,2.1l0.8-2.1H195.6z"/>
		<path class="st0" d="M197.3,70.7c0,0.6,0,0.6,0.4,0.6v0.2H196v-0.2c0.4,0,0.4-0.1,0.4-0.6V69c0-0.6,0-0.6-0.4-0.6v-0.2h1.7v0.2
			c-0.4,0-0.4,0.1-0.4,0.6V70.7z"/>
	</g>
	<g>
		<path class="st0" d="M188.7,78h-0.5l-2-2.5h0v1c0,0.6,0,0.9,0,1c0,0.2,0.2,0.3,0.5,0.3V78h-1.3v-0.2c0.2,0,0.4-0.1,0.4-0.3
			c0-0.2,0-0.5,0-1v-1c0-0.4,0-0.5-0.1-0.6c-0.1-0.1-0.2-0.1-0.4-0.2v-0.2h1.2l1.8,2.2h0V76c0-0.6,0-0.9,0-1c0-0.2-0.2-0.3-0.5-0.3
			v-0.2h1.4v0.2c-0.3,0-0.4,0.1-0.4,0.3c0,0.2,0,0.5,0,1V78z"/>
		<path class="st0" d="M190.9,78c-0.4-1-0.9-2.3-1.1-2.8c-0.2-0.5-0.3-0.5-0.5-0.5v-0.2h1.7v0.2l-0.2,0c-0.2,0-0.2,0.1-0.1,0.3
			c0.1,0.3,0.5,1.3,0.7,1.9c0.2-0.5,0.5-1.5,0.6-1.7c0.1-0.3,0.1-0.4-0.2-0.4l-0.2,0v-0.2h1.3v0.2c-0.3,0-0.4,0.1-0.6,0.5
			c0,0.1-0.7,1.7-1.1,2.7H190.9z"/>
		<path class="st0" d="M193.3,76.9c0.1,0.3,0.4,0.9,0.9,0.9c0.3,0,0.5-0.2,0.5-0.5c0-0.3-0.2-0.5-0.5-0.6l-0.1,0
			c-0.4-0.2-0.9-0.5-0.9-1c0-0.6,0.4-1.1,1.3-1.1c0.2,0,0.3,0,0.5,0.1c0.1,0,0.2,0.1,0.3,0.1c0,0.2,0.1,0.5,0.1,0.8l-0.2,0
			c-0.1-0.4-0.3-0.7-0.7-0.7c-0.3,0-0.5,0.2-0.5,0.5c0,0.3,0.2,0.4,0.5,0.6l0.1,0.1c0.5,0.2,0.9,0.5,0.9,1.1c0,0.7-0.5,1.1-1.3,1.1
			c-0.2,0-0.4,0-0.6-0.1c-0.2-0.1-0.3-0.1-0.3-0.1c0-0.2-0.1-0.5-0.2-0.9L193.3,76.9z"/>
	</g>
	<g>
		<path class="st0" d="M186.4,83.5c0,0.6,0,0.6,0.4,0.6v0.2h-1.7v-0.2c0.4,0,0.4-0.1,0.4-0.6v-1.8c0-0.6,0-0.6-0.4-0.6v-0.2h1.7v0.2
			c-0.4,0-0.4,0.1-0.4,0.6V83.5z"/>
		<path class="st0" d="M188.5,83.6c0,0.3,0,0.4,0.1,0.5c0.1,0,0.2,0,0.4,0c0.2,0,0.4,0,0.5-0.2c0.1-0.1,0.2-0.2,0.3-0.5l0.2,0
			c0,0.2-0.1,0.8-0.2,0.9h-2.6v-0.2c0.4,0,0.4-0.1,0.4-0.6v-1.8c0-0.6,0-0.6-0.4-0.6v-0.2h1.7v0.2c-0.4,0-0.4,0.1-0.4,0.6V83.6z"/>
		<path class="st0" d="M191.5,83.6c0,0.3,0,0.4,0.1,0.5c0.1,0,0.2,0,0.4,0c0.2,0,0.4,0,0.5-0.2c0.1-0.1,0.2-0.2,0.3-0.5l0.2,0
			c0,0.2-0.1,0.8-0.2,0.9h-2.6v-0.2c0.4,0,0.4-0.1,0.4-0.6v-1.8c0-0.6,0-0.6-0.4-0.6v-0.2h1.7v0.2c-0.4,0-0.4,0.1-0.4,0.6V83.6z"/>
		<path class="st0" d="M194,84.4c-0.4-1-0.9-2.3-1.1-2.8c-0.2-0.5-0.3-0.5-0.5-0.5v-0.2h1.7v0.2l-0.2,0c-0.2,0-0.2,0.1-0.1,0.3
			c0.1,0.3,0.5,1.3,0.7,1.9c0.2-0.5,0.5-1.5,0.6-1.7c0.1-0.3,0.1-0.4-0.2-0.4l-0.2,0v-0.2h1.3v0.2c-0.3,0-0.4,0.1-0.6,0.5
			c0,0.1-0.7,1.7-1.1,2.7H194z"/>
	</g>
	<g>
		<path class="st0" d="M208.3,68.1v0.2c-0.4,0-0.4,0.1-0.4,0.6l0.1,1.8c0,0.6,0,0.6,0.4,0.6v0.2h-1.7v-0.2c0.4,0,0.4-0.1,0.4-0.6
			l0-1.9h0l-1,2.7h-0.3l-1-2.5h0l0,1.2c0,0.5,0,0.7,0,0.9c0,0.2,0.1,0.2,0.5,0.3v0.2h-1.3v-0.2c0.3,0,0.4-0.1,0.4-0.3
			c0-0.2,0.1-0.4,0.1-0.9l0.1-1.1c0-0.7,0-0.7-0.4-0.8v-0.2h1.2l0.9,2.1l0.8-2.1H208.3z"/>
		<path class="st0" d="M210,70.7c0,0.6,0,0.6,0.4,0.6v0.2h-1.7v-0.2c0.4,0,0.4-0.1,0.4-0.6V69c0-0.6,0-0.6-0.4-0.6v-0.2h1.7v0.2
			c-0.4,0-0.4,0.1-0.4,0.6V70.7z"/>
		<path class="st0" d="M213.9,71.6h-0.5l-2-2.5h0v1c0,0.6,0,0.8,0,1c0,0.2,0.2,0.3,0.5,0.3v0.2h-1.3v-0.2c0.2,0,0.4-0.1,0.4-0.3
			c0-0.2,0-0.5,0-1v-1c0-0.4,0-0.5-0.1-0.6c-0.1-0.1-0.2-0.1-0.4-0.2v-0.2h1.2l1.8,2.2h0v-0.7c0-0.6,0-0.8,0-1
			c0-0.2-0.2-0.3-0.5-0.3v-0.2h1.4v0.2c-0.3,0-0.4,0.1-0.4,0.3c0,0.2,0,0.5,0,1V71.6z"/>
		<path class="st0" d="M216.2,71.4l0.2,0c0.2,0,0.2-0.1,0.1-0.3l-0.2-0.5h-0.9l-0.2,0.5c-0.1,0.2-0.1,0.3,0.2,0.3l0.2,0v0.2h-1.2
			v-0.2c0.3,0,0.4-0.1,0.5-0.5l1.1-2.7l0.4-0.1l0.4,1c0.2,0.6,0.5,1.3,0.7,1.8c0.2,0.5,0.3,0.5,0.5,0.5v0.2h-1.7V71.4z M215.5,70.2
			h0.7l-0.3-1h0L215.5,70.2z"/>
	</g>
	<g>
		<path class="st0" d="M208.2,77.1c0,0.6,0,0.6,0.5,0.6V78h-1.9v-0.2c0.4,0,0.5-0.1,0.5-0.6v-2.3h-0.1c-0.4,0-0.5,0.1-0.6,0.2
			c-0.1,0.1-0.1,0.2-0.2,0.5h-0.2c0-0.4,0.1-0.8,0.1-1.1h0.2c0.1,0.1,0.1,0.1,0.3,0.1h2.1c0.1,0,0.2,0,0.3-0.1h0.2
			c0,0.2,0,0.7,0.1,1.1l-0.2,0c-0.1-0.3-0.1-0.5-0.2-0.5c-0.1-0.1-0.3-0.1-0.5-0.1h-0.1V77.1z"/>
		<path class="st0" d="M211,77.1c0,0.6,0,0.6,0.4,0.6V78h-1.7v-0.2c0.4,0,0.4-0.1,0.4-0.6v-1.8c0-0.6,0-0.6-0.4-0.6v-0.2h1.7v0.2
			c-0.4,0-0.4,0.1-0.4,0.6V77.1z"/>
		<path class="st0" d="M215.4,76.2c0,1.1-0.8,1.8-1.8,1.8c-1.1,0-1.8-0.8-1.8-1.8c0-0.9,0.6-1.9,1.8-1.9
			C214.7,74.4,215.4,75.1,215.4,76.2z M212.8,76.1c0,1,0.4,1.7,0.9,1.7c0.5,0,0.7-0.4,0.7-1.4c0-1.1-0.4-1.7-0.8-1.7
			C213.2,74.7,212.8,75.2,212.8,76.1z"/>
	</g>
	<g>
		<path class="st0" d="M209.8,80.9v0.2c-0.4,0-0.4,0.1-0.4,0.6l0.1,1.8c0,0.6,0,0.6,0.4,0.6v0.2h-1.7v-0.2c0.4,0,0.4-0.1,0.4-0.6
			l0-1.9h0l-1,2.7h-0.3l-1-2.5h0l0,1.2c0,0.5,0,0.7,0,0.9c0,0.2,0.1,0.2,0.5,0.3v0.2h-1.3v-0.2c0.3,0,0.4-0.1,0.4-0.3
			c0-0.2,0.1-0.4,0.1-0.9l0.1-1.1c0-0.7,0-0.7-0.4-0.8v-0.2h1.2l0.9,2.1l0.8-2.1H209.8z"/>
		<path class="st0" d="M210.6,81.7c0-0.6,0-0.6-0.4-0.6v-0.2h2.5c0,0.1,0,0.5,0.1,0.9l-0.2,0c-0.1-0.3-0.1-0.4-0.2-0.5
			c-0.1-0.1-0.3-0.1-0.5-0.1h-0.1c-0.2,0-0.2,0-0.2,0.2v1h0.3c0.5,0,0.5,0,0.5-0.4h0.2v1.3h-0.2c-0.1-0.5-0.1-0.5-0.5-0.5h-0.3v0.9
			c0,0.3,0,0.4,0.1,0.5c0.1,0,0.2,0,0.4,0c0.2,0,0.4,0,0.6-0.2c0.1-0.1,0.2-0.3,0.3-0.5l0.2,0c0,0.3-0.1,0.8-0.2,0.9h-2.7v-0.2
			c0.4,0,0.5-0.1,0.5-0.6V81.7z"/>
		<path class="st0" d="M214.9,84.1l0.2,0c0.2,0,0.2-0.1,0.1-0.3l-0.2-0.5h-0.9l-0.2,0.5c-0.1,0.2-0.1,0.3,0.2,0.3l0.2,0v0.2h-1.2
			v-0.2c0.3,0,0.4-0.1,0.5-0.5l1.1-2.7l0.4-0.1l0.4,1c0.2,0.6,0.5,1.3,0.7,1.8c0.2,0.5,0.3,0.5,0.5,0.5v0.2h-1.7V84.1z M214.2,83
			h0.7l-0.3-1h0L214.2,83z"/>
	</g>
	<circle class="st1" cx="194.6" cy="127.1" r="1.4"/>
	<circle class="st1" cx="208.7" cy="129.4" r="1.4"/>
	<path class="st1" d="M156.1,51.3L156.1,51.3L156.1,51.3z"/>
	<path class="st1" d="M214.5,26.2L214.5,26.2L214.5,26.2z"/>
	<path class="st1" d="M236.9,53.8L236.9,53.8L236.9,53.8z"/>
	<path class="st1" d="M247.7,99L247.7,99L247.7,99z"/>
	<circle class="st1" cx="200.7" cy="29" r="1.4"/>
	
		<ellipse transform="matrix(4.237007e-02 -0.9991 0.9991 4.237007e-02 181.9809 273.7203)" class="st1" cx="233.8" cy="41.9" rx="1.4" ry="1.4"/>
	<g>
		<path class="st1" d="M165.5,101.6c0.5,0.8,0.8,1.6,0.8,2.4c0,1-0.3,1.8-2.1,3l-5,3.6l-0.9-1.3c0,0,5.1-3.7,5.2-3.7
			c0.9-0.6,1.3-1.1,1.3-1.8c0-0.4-0.2-0.9-0.5-1.4c-0.5-0.7-1.1-1-1.7-1c-0.5,0-1.1,0.4-2.1,1l-4.7,3.2l-0.9-1.3l4.5-3
			c1.2-0.9,2.2-1.5,3.2-1.5C163.9,99.9,164.9,100.7,165.5,101.6z"/>
	</g>
	<g>
		<path class="st1" d="M149.5,91.8l9.5-3.3l0.5,1.4l-5.5,6.7l6.9-2.7l0.5,1.4l-9.4,3.6l-0.5-1.4l5.5-6.7l-7,2.5L149.5,91.8z"/>
	</g>
	<g>
		<path class="st1" d="M148,84.2l10-1.5l0.2,1.6l-10,1.5L148,84.2z"/>
	</g>
	<g>
		<path class="st1" d="M147.7,72.2l0-1.7l10,4.1l-0.1,1.7l-10.2,3.1l0-1.7l8.3-2.3L147.7,72.2z"/>
	</g>
	<path class="st1" d="M156.9,49.6c-1.4,0-2.1,0.8-3,2.5l-1.2,2.1l8.9,4.8l0.8-1.4l-3.7-2l0.2-0.4c0.6-1.1,0.8-1.3,2.4-1.2l2.9,0.3
		l0.8-1.5l-3.3-0.3c-0.7-0.1-1.2-0.1-1.6,0c-0.1,0-0.3,0.1-0.5,0.2c0-0.2,0.1-0.4,0.1-0.5c0-0.3,0-0.6-0.1-0.8
		c-0.2-0.6-0.6-1.1-1.3-1.4C157.8,49.7,157.3,49.6,156.9,49.6z M155.1,52.6c0.6-1.1,1-1.5,1.6-1.5c0.2,0,0.5,0.1,0.8,0.2
		c0.4,0.2,0.7,0.6,0.8,0.9c0,0.1,0.1,0.3,0.1,0.4c0,0.6-0.3,1.2-0.7,1.8l-0.2,0.4l-2.8-1.5L155.1,52.6z"/>
	<g>
		<path class="st1" d="M167.9,35.3l1.3-1l6.1,8l-1.3,1L167.9,35.3z"/>
	</g>
	<g>
		<path class="st1" d="M173.5,31.4L180,28l0.6,1.2l-2.5,1.3l4,7.7l-1.4,0.7l-4-7.7l-2.6,1.3L173.5,31.4z"/>
	</g>
	<g>
		<path class="st1" d="M189.8,24.9l1.7-0.5l-1.4,6.8l1.1,3.8l-1.5,0.4l-1.1-3.8l-4.8-5l1.7-0.5l3.5,3.6L189.8,24.9z"/>
	</g>
	<g>
		<path class="st1" d="M220.6,38.7l5.1-8.7l4.8,2.8l-0.7,1.2l-3.4-2l-1.4,2.4l3.2,1.9l-0.7,1.2l-3.2-1.9l-2.3,3.9L220.6,38.7z"/>
	</g>
	<g>
		<path class="st1" d="M246.5,61.2l3.7-4.4l0.6,1.7l-2.7,3.1l4.1,0.9l0.5,1.6l-5.6-1.3l-4,4.7l-0.6-1.7l3-3.5l-4.5-1l-0.5-1.7
			L246.5,61.2z"/>
	</g>
	<g>
		<path class="st1" d="M243.6,71.1l10.1-0.8l0.5,5.6l-1.4,0.1l-0.3-4l-2.8,0.2L250,76l-1.3,0.1l-0.3-3.8l-4.6,0.4L243.6,71.1z"/>
	</g>
	<path class="st1" d="M248.1,80.1c-1.2,0-2.2,0.3-3.1,0.9c-1.5,1.1-1.8,2.7-1.8,3.6c0,3.4,3.2,4.8,5.6,4.8c1.2,0,2.2-0.3,3.1-0.9
		c1.7-1.2,1.8-3.1,1.8-3.7C253.7,81.9,250.9,80.1,248.1,80.1z M248.9,87.8c-2,0-4.3-1.1-4.3-3.1c0-0.7,0.2-1.7,1.1-2.3
		c0.6-0.4,1.4-0.7,2.3-0.7c1,0,2.8,0.3,3.8,1.6c0.3,0.5,0.5,1,0.5,1.5c0,0.8-0.3,1.7-1.1,2.3C250.5,87.6,249.7,87.8,248.9,87.8z"/>
	<path class="st1" d="M242.2,46.5c-1,0-2.1,0.3-3.2,1c-1.9,1.2-2.6,3-2.6,4.3c0,0.8,0.2,1.7,0.7,2.4c1.1,1.7,2.7,2.1,3.8,2.1
		c1,0,2.1-0.4,3.2-1c1.2-0.8,2.6-2.3,2.6-4.3c0-0.8-0.2-1.6-0.7-2.4C245.1,47.2,243.7,46.5,242.2,46.5z M240.6,54.7
		c-0.9,0-1.7-0.4-2.3-1.3c-0.3-0.5-0.4-0.9-0.4-1.4c0-1.1,0.7-2.3,2-3.2c0.9-0.6,1.7-0.8,2.5-0.8c1,0,1.8,0.4,2.3,1.3
		c0.3,0.5,0.5,1,0.5,1.5c0,1.1-0.7,2.2-2,3C242.3,54.4,241.4,54.7,240.6,54.7z"/>
	<path class="st1" d="M214.7,25.7c-2.1,0-3.9,1.4-4.7,3.9c-0.2,0.6-0.3,1.1-0.3,1.6c0,1,0.2,1.8,0.6,2.6c0.9,1.7,2.6,2.3,3.9,2.3
		c0.7,0,1.4-0.2,2.1-0.5c1.7-0.9,2.8-3.1,2.8-5.2c0-0.9-0.2-1.7-0.6-2.5C217.8,26.5,216.3,25.7,214.7,25.7z M214.1,34.7
		c-0.7,0-1.8-0.4-2.4-1.4c-0.3-0.5-0.4-1.2-0.4-1.8c0-1.8,1.2-4.3,3.4-4.3c1.2,0,2.8,0.9,2.8,3.2C217.5,31.8,216.5,34.7,214.1,34.7z
		"/>
	<path class="st1" d="M158.7,62.3l1.4,0.4l-1.5,5.5l-9.8-2.7l1.7-5.6l1.3,0.4l-1.2,4l2.7,0.7l1-3.7l1.3,0.4l-1,3.7l3,0.8L158.7,62.3
		z"/>
	<g>
		<g>
			<path class="st1" d="M161.3,41.2c1.4-1.6,2.8-1.5,2.8-1.5l0.2,1.3c0,0-1.1,0-2,1c-0.4,0.4-0.6,0.9-0.6,1.3c0,0.3,0.1,0.6,0.4,0.8
				c0.7,0.6,1.9-0.1,2.6-0.4c0.6-0.2,1.4-0.6,2.2-0.6c0.6,0,1.2,0.2,1.8,0.7c0.7,0.6,1,1.4,1,2.1c0,0.9-0.3,1.6-1,2.4
				c-1.3,1.4-3,1.6-3,1.6l-0.3-1.4c1-0.2,1.8-0.6,2.3-1.2c0.4-0.4,0.5-0.9,0.5-1.3c0-0.4-0.2-0.7-0.5-1c-0.3-0.2-0.6-0.3-0.9-0.3
				c-0.6,0-1.4,0.4-2.1,0.6c-1.2,0.5-2.5,0.9-3.7-0.1c-0.6-0.5-0.9-1.2-0.9-1.9C160.3,42.8,160.6,42,161.3,41.2z"/>
		</g>
	</g>
	<path class="st1" d="M240.9,93.2l3.8,1.7l-0.2,0.4c-0.5,1.2-0.7,1.4-2.3,1.4l-2.9,0l-0.7,1.6l3.3,0c0.7,0,1.2,0,1.6-0.2
		c0.1-0.1,0.3-0.1,0.4-0.2c0,0.1,0,0.2,0,0.3c0,0.4,0.1,0.7,0.2,1.1c0.5,1.1,1.7,1.6,2.6,1.6c1.6,0,2.2-1,3-2.7
		c0-0.1,0.9-2.2,0.9-2.2l-9.2-4.1L240.9,93.2z M246.9,99.2c-0.5,0-1.2-0.3-1.5-1c-0.1-0.2-0.1-0.4-0.1-0.6c0-0.6,0.3-1.1,0.5-1.7
		l0.2-0.4l2.9,1.3l-0.3,0.8C248,98.8,247.7,99.2,246.9,99.2z"/>
	<path class="st1" d="M235.6,102.8c-1,1.3-1.8,2.5-1.8,4c0,1.3,0.6,2.7,2.1,3.9c1,0.8,2.1,1.2,3.2,1.2c1.4,0,2.5-0.4,4.3-2.6l1.6-2
		l-7.9-6.3L235.6,102.8z M239.2,110.4c-0.8,0-1.6-0.3-2.3-0.9c-0.8-0.6-1.6-1.6-1.6-2.9c0-0.9,0.5-1.7,1.2-2.6l0.7-0.8l5.8,4.6
		l-0.4,0.6C241.4,109.6,240.6,110.4,239.2,110.4z"/>
	<path class="st1" d="M258.6,77.2c0-31.8-26-57.8-57.9-57.8c-31.9,0-57.9,25.9-57.9,57.8c0,19.1,9.4,36.9,25.2,47.7
		c1.6,5.8,6.9,10.1,13.1,10.1c1.7,0,3.4-0.3,4.9-0.9c2.1,0.7,4.3,1.3,6.5,1.7c-0.6,1.8-1.5,3.4-2.4,4.9c0,0,0,0,0,0c0,0,0,0,0,0
		l1.2,1.2c0.3-0.2,0.7-0.3,1-0.3c1.2,0,2.2,1,2.2,2.2c0,1.2-1,2.2-2.2,2.2c-1,0-2-0.7-2.4-1.4c0,0-0.3,1-0.3,2.3
		c0,4.1,4.5,8.9,10.8,10.9c6.3-2,10.8-6.7,10.8-10.9c0-1.4-0.3-2.3-0.3-2.3c-0.5,0.6-1.3,1.4-2.4,1.4c-1.2,0-2.2-1-2.2-2.2
		c0-1.2,1-2.2,2.2-2.2c0.4,0,0.8,0.1,1.1,0.3l1.2-1.2c0,0,0,0,0,0c-0.7-1.6-1.1-3-1.5-4.4c10.4-1.4,19.2-5.8,26.2-13.1l0,0
		C250.3,112.2,258.6,95.4,258.6,77.2z M181.3,133.4c-6.6,0-11.9-5.4-11.9-11.9c0-2.1,0.5-4,1.4-5.7c0.6,0.6,1.3,1.1,1.9,1.7
		c-0.6,1.2-0.9,2.6-0.9,4c0,3.6,1.8,6.5,5.2,8.6c2,1.2,4.2,2.2,6.5,3.1C182.9,133.3,182.1,133.4,181.3,133.4z M200.8,116
		c-2.5,0-4.9-0.2-7.3-0.7c-2.3-4.5-7-7.4-12.1-7.4c-1.3,0-2.5,0.2-3.6,0.5c-9.8-7.3-15.7-18.9-15.7-31.1c0-21.4,17.4-38.8,38.8-38.8
		c21.4,0,38.8,17.4,38.8,38.8S222.2,116,200.8,116z M209.4,116.7c-1.2,1.7-1.9,4-2.1,6.3c-3.7-0.9-7-2.2-9.9-3.5
		c0.6-1.1,2.1-1.8,3.3-1.8C203.7,117.6,206.6,117.3,209.4,116.7z M197.1,117.5c-0.5,0.4-0.9,0.8-1.2,1.3c-1.5-0.7-3.3-1.6-4.5-2.3
		C193.1,116.8,195.4,117.3,197.1,117.5z M181.3,109.5c4,0,7.7,2,9.9,5.3c-1.9-0.5-3.8-1.1-5.6-1.9l0,0l-0.1,0
		c-1.3-0.6-2.7-0.9-4.1-0.9c-3.2,0-6,1.6-7.7,3.9c-0.7-0.4-1.5-0.8-2.2-1.3C173.7,111.5,177.3,109.5,181.3,109.5z M208.8,139.9
		c-2.1,0-3.9,1.5-3.9,3.8c0,2.3,1.8,3.8,3.9,3.8c0.3,0,0.6-0.1,0.9-0.1c-0.4,3.2-4.2,6.8-9,8.4c-4.8-1.6-8.5-5.2-9-8.4
		c0.3,0.1,0.6,0.1,0.9,0.1c2.3,0,3.9-1.6,3.9-3.8c0-2.1-1.7-3.8-3.8-3.8c0.7-1.2,1.3-2.5,1.7-3.8c2.7,0.5,5.3,0.7,7.7,0.7
		c2,0,3.9-0.1,5.8-0.3c0.3,1.1,0.6,2.2,1.1,3.4C208.9,140,208.8,139.9,208.8,139.9z M202.1,135.2c-7.8,0-17.4-2.6-24.1-6.6
		c-2-1.2-4.4-3.4-4.4-7.2c0-1,0.2-2,0.6-2.9c2.5,2.1,5,4,6.7,4.9c0.4,0.2,0.6,0.3,1,0.3c1,0,1.9-0.8,1.9-1.9c0-0.8-0.4-1.4-1.1-1.7
		c-1.4-0.6-4.3-1.8-7.4-3.4c1.4-1.9,3.7-3.1,6.2-3.1c1.2,0,2.3,0.2,3.3,0.7l2.1,1.2c6.8,4.1,24.2,14.7,45.1,8.9
		C224.1,131.7,214.3,135.2,202.1,135.2z M234.7,122c-9.4,3.3-18.2,3.1-25.7,1.4c0.2-3.3,1.6-6.9,3.7-7.6
		c16.5-5.1,28.5-20.5,28.5-38.6c0-22.3-18.2-40.4-40.5-40.4c-22.3,0-40.5,18.1-40.5,40.4c0,12.4,5.8,24.2,15.5,31.8
		c-2.3,1-4.3,2.7-5.7,4.7c-0.7-0.5-1.5-1-2.1-1.6l-0.4,0.4c0.4,0.5,1.1,1.2,1.9,2c-1.2,2-1.9,4.4-1.9,6.9c0,0.4,0,0.8,0.1,1.2
		c-14.5-10.6-23.1-27.4-23.1-45.4c0-31,25.2-56.1,56.1-56.1s56.1,25.2,56.1,56.1C256.9,95,248.8,111.2,234.7,122z"/>
</g>
<g>
	<path class="st0" d="M375.4,85.4h-10.5l-5.7-12.7c-1.2-2.8-2.4-4.5-3.6-5.2c-0.7-0.4-2.2-0.6-4.4-0.6H350v18.5h-9.8V38.8h12
		c4.2,0,7.1,0.1,8.7,0.4c2.9,0.5,5.4,1.7,7.3,3.6c2.5,2.5,3.8,5.6,3.8,9.3c0,3-0.8,5.6-2.5,7.7c-1.8,2.3-4.4,3.7-7.8,4.2
		c2.1,0.2,4,1.5,5.6,3.8c0.5,0.8,1.5,2.8,3,6.2L375.4,85.4z M362.1,52.7c0-1.9-0.5-3.4-1.5-4.4c-0.8-0.8-1.8-1.3-3.1-1.5
		c-0.8-0.1-2.3-0.2-4.6-0.2H350v12.7h3.9c2.9,0,5-0.6,6.3-1.9C361.5,56.2,362.1,54.6,362.1,52.7z"/>
	<path class="st0" d="M410.8,85.4H382V38.8h28.3v8h-18.5v10.8h17.3v7.8h-17.3v11.9h19V85.4z"/>
	<path class="st0" d="M449.1,71.7c0,4.4-1.6,8-4.7,10.8c-3.1,2.8-7.2,4.1-12.3,4.1c-4.2,0-8-0.8-11.4-2.5c-2.1-1-3.5-1.9-4.3-2.9
		l4.3-6.7c3.9,2.5,7.5,3.8,10.8,3.8c2.3,0,4.1-0.5,5.5-1.5c1.4-1,2-2.4,2-4.1c0-1.3-0.4-2.4-1.3-3.2c-0.8-0.8-3.3-2.1-7.4-3.8
		c-4.1-1.7-7-3.4-8.8-5.2c-2.5-2.5-3.7-5.4-3.7-8.8c0-4.1,1.5-7.5,4.5-10c3-2.5,6.9-3.8,11.6-3.8c3.9,0,7.4,0.8,10.6,2.4
		c1.8,0.9,3.1,1.8,4.1,2.7l-4.5,6.4c-3-2.3-6.2-3.5-9.5-3.5c-2.1,0-3.8,0.5-5.1,1.4c-1.3,0.9-2,2.1-2,3.5c0,1.1,0.4,2,1.2,2.8
		c0.5,0.5,3,1.7,7.3,3.6s7.5,3.7,9.3,5.6C447.9,64.9,449.1,68,449.1,71.7z"/>
	<path class="st0" d="M486.3,85.4h-28.8V38.8h28.3v8h-18.5v10.8h17.3v7.8h-17.3v11.9h19V85.4z"/>
	<path class="st0" d="M535.5,85.4h-10.3l-3.4-9.7h-16.8l-3.5,9.7h-10l16.9-46.6h9.9L535.5,85.4z M519.3,68.1l-5.9-18.7l-5.9,18.7
		H519.3z"/>
	<path class="st0" d="M576.7,85.4h-10.5l-5.7-12.7c-1.2-2.8-2.4-4.5-3.6-5.2c-0.7-0.4-2.2-0.6-4.4-0.6h-1.1v18.5h-9.8V38.8h12
		c4.2,0,7.1,0.1,8.7,0.4c2.9,0.5,5.4,1.7,7.3,3.6c2.5,2.5,3.8,5.6,3.8,9.3c0,3-0.8,5.6-2.5,7.7c-1.8,2.3-4.4,3.7-7.8,4.2
		c2.1,0.2,4,1.5,5.6,3.8c0.5,0.8,1.5,2.8,3,6.2L576.7,85.4z M563.5,52.7c0-1.9-0.5-3.4-1.5-4.4c-0.8-0.8-1.8-1.3-3.1-1.5
		c-0.8-0.1-2.3-0.2-4.6-0.2h-2.9v12.7h3.9c2.9,0,5-0.6,6.3-1.9C562.8,56.2,563.5,54.6,563.5,52.7z"/>
	<path class="st0" d="M621.7,80.7c-1,1-2.6,2.1-4.8,3.1c-3.8,1.8-7.9,2.7-12.4,2.7c-6.7,0-12.2-2.1-16.6-6.4
		c-4.5-4.4-6.7-10.3-6.7-17.6c0-7.6,2.4-13.7,7.1-18.3c4.5-4.4,10.3-6.6,17.5-6.6c4.4,0,8.3,0.8,11.7,2.5c1.8,0.9,3.1,1.8,4.1,2.9
		l-4.3,6.5c-3.3-2.4-7-3.6-11.1-3.6c-4.3,0-7.9,1.4-10.7,4.2c-2.9,2.9-4.3,6.8-4.3,11.7c0,4.8,1.3,8.7,4,11.7
		c2.6,2.9,6.2,4.4,10.6,4.4c2.6,0,5.2-0.6,8-1.7c0.3-0.2,1.6-0.9,3.9-2.1L621.7,80.7z"/>
	<path class="st0" d="M665.3,85.4h-9.9V65.2h-17.1v20.2h-9.9V38.8h9.9v18.3h17.1V38.8h9.9V85.4z"/>
	<path class="st0" d="M370.2,155.6c0,4.4-1.6,8-4.7,10.8c-3.1,2.8-7.2,4.1-12.3,4.1c-4.2,0-8-0.8-11.4-2.5c-2.1-1-3.5-1.9-4.3-2.9
		l4.3-6.7c3.9,2.5,7.5,3.8,10.8,3.8c2.3,0,4.1-0.5,5.5-1.5c1.4-1,2-2.4,2-4.1c0-1.3-0.4-2.4-1.3-3.2c-0.8-0.8-3.3-2.1-7.4-3.8
		c-4.1-1.7-7-3.4-8.8-5.2c-2.5-2.5-3.7-5.4-3.7-8.8c0-4.1,1.5-7.5,4.5-10c3-2.5,6.9-3.8,11.6-3.8c3.9,0,7.4,0.8,10.6,2.4
		c1.8,0.9,3.1,1.8,4.1,2.7l-4.5,6.4c-3-2.3-6.2-3.5-9.5-3.5c-2.1,0-3.8,0.5-5.1,1.4c-1.3,0.9-2,2.1-2,3.5c0,1.1,0.4,2,1.2,2.8
		c0.5,0.5,3,1.7,7.3,3.6c4.4,1.9,7.5,3.7,9.3,5.6C369,148.8,370.2,151.9,370.2,155.6z"/>
	<path class="st0" d="M422.3,145.6c0,7.5-2.1,13.5-6.3,18c-4.2,4.5-9.7,6.8-16.3,6.8c-6.8,0-12.3-2.3-16.5-6.9
		c-4.2-4.6-6.3-10.6-6.3-17.9c0-7.1,2.1-12.9,6.3-17.4c4.2-4.5,9.7-6.7,16.4-6.7c6.8,0,12.3,2.2,16.5,6.7
		C420.3,132.8,422.3,138.6,422.3,145.6z M412.3,145.6c0-4.7-1.2-8.5-3.6-11.4c-2.4-3-5.6-4.4-9.5-4.4c-3.7,0-6.7,1.5-9,4.6
		c-2.3,3.1-3.4,7.1-3.4,12c0,4.8,1.2,8.6,3.7,11.5c2.4,2.9,5.5,4.3,9.3,4.3c4.4,0,7.7-1.8,9.9-5.5
		C411.5,153.8,412.3,150,412.3,145.6z"/>
	<path class="st0" d="M458.4,130.7h-18v10.8h17.1v7.8h-17.1v20h-9.8v-46.6h27.8V130.7z"/>
	<path class="st0" d="M500,130.7h-12.7v38.7h-9.9v-38.7h-12.8v-8H500V130.7z"/>
	<path class="st0" d="M564.6,122.7l-10.8,46.6h-10.3l-7.8-35.1l-8.4,35.1H517l-10.7-46.6h9.7l6.4,34.4l8.4-34.4H541l7.9,34.4
		l6.8-34.4H564.6z"/>
	<path class="st0" d="M608.8,169.3h-10.3l-3.4-9.7h-16.8l-3.5,9.7h-10l16.9-46.6h9.9L608.8,169.3z M592.6,152l-5.9-18.7l-5.9,18.7
		H592.6z"/>
	<path class="st0" d="M650,169.3h-10.5l-5.7-12.7c-1.2-2.8-2.4-4.5-3.6-5.2c-0.7-0.4-2.2-0.6-4.4-0.6h-1.1v18.5h-9.8v-46.6h12
		c4.2,0,7.1,0.1,8.7,0.4c2.9,0.5,5.4,1.7,7.3,3.6c2.5,2.5,3.8,5.6,3.8,9.3c0,3-0.8,5.6-2.5,7.7c-1.8,2.3-4.4,3.7-7.8,4.2
		c2.1,0.2,4,1.5,5.6,3.8c0.5,0.8,1.5,2.8,3,6.2L650,169.3z M636.8,136.6c0-1.9-0.5-3.4-1.5-4.4c-0.8-0.8-1.8-1.3-3.1-1.5
		c-0.8-0.1-2.3-0.2-4.6-0.2h-2.9v12.7h3.9c2.9,0,5-0.6,6.3-1.9C636.1,140.1,636.8,138.5,636.8,136.6z"/>
	<path class="st0" d="M685.4,169.3h-28.8v-46.6h28.3v8h-18.5v10.8h17.3v7.8h-17.3v11.9h19V169.3z"/>
	<path class="st0" d="M369.1,253.3h-28.8v-46.6h28.3v8H350v10.8h17.3v7.8H350v11.9h19V253.3z"/>
	<path class="st0" d="M414.3,253.3h-8.5l-19.6-31.1l0.2,31.1h-9v-46.6h9l19.1,30.9l-0.2-30.9h9V253.3z"/>
	<path class="st0" d="M463.6,249.6c-5.4,3.2-11.3,4.8-17.8,4.8c-6.7,0-12.2-2.1-16.6-6.4c-4.5-4.4-6.7-10.3-6.7-17.6
		c0-7.6,2.4-13.7,7.1-18.3c4.5-4.4,10.4-6.6,17.5-6.6c4.4,0,8.3,0.8,11.7,2.5c1.8,0.9,3.1,1.8,4.1,2.9l-4.3,6.5
		c-3.3-2.4-7-3.6-11.1-3.6c-4.3,0-7.9,1.4-10.7,4.2c-2.9,2.9-4.3,6.8-4.3,11.7c0,4.9,1.4,8.8,4.1,11.9s6.3,4.5,10.8,4.5
		c2.6,0,4.9-0.4,6.9-1.1v-8h-8.7v-7.6h18V249.6z"/>
	<path class="st0" d="M482.9,253.3H473v-46.6h9.9V253.3z"/>
	<path class="st0" d="M529.8,253.3h-8.5l-19.6-31.1l0.2,31.1h-9v-46.6h9l19.1,30.9l-0.2-30.9h9V253.3z"/>
	<path class="st0" d="M568.5,253.3h-28.8v-46.6h28.3v8h-18.5v10.8h17.3v7.8h-17.3v11.9h19V253.3z"/>
	<path class="st0" d="M605.6,253.3h-28.8v-46.6h28.3v8h-18.5v10.8H604v7.8h-17.3v11.9h19V253.3z"/>
	<path class="st0" d="M649.1,253.3h-10.5l-5.7-12.7c-1.2-2.8-2.4-4.5-3.6-5.2c-0.7-0.4-2.2-0.6-4.4-0.6h-1.1v18.5H614v-46.6h12
		c4.2,0,7.1,0.1,8.7,0.4c2.9,0.5,5.4,1.7,7.3,3.6c2.5,2.5,3.8,5.6,3.8,9.3c0,3-0.8,5.6-2.5,7.7c-1.8,2.3-4.4,3.7-7.8,4.2
		c2.1,0.2,4,1.5,5.6,3.8c0.5,0.8,1.5,2.8,3,6.2L649.1,253.3z M635.8,220.5c0-1.9-0.5-3.4-1.5-4.4c-0.8-0.8-1.8-1.3-3.1-1.5
		c-0.8-0.1-2.3-0.2-4.6-0.2h-2.9v12.7h3.9c2.9,0,5-0.6,6.3-1.9C635.2,224.1,635.8,222.5,635.8,220.5z"/>
	<path class="st0" d="M665.6,253.3h-9.9v-46.6h9.9V253.3z"/>
	<path class="st0" d="M712.5,253.3H704l-19.7-31.1l0.2,31.1h-9v-46.6h9l19.1,30.9l-0.2-30.9h9V253.3z"/>
	<path class="st0" d="M761.8,249.6c-5.4,3.2-11.3,4.8-17.8,4.8c-6.7,0-12.2-2.1-16.6-6.4c-4.5-4.4-6.7-10.3-6.7-17.6
		c0-7.6,2.4-13.7,7.1-18.3c4.5-4.4,10.4-6.6,17.5-6.6c4.4,0,8.3,0.8,11.7,2.5c1.8,0.9,3.1,1.8,4.1,2.9l-4.3,6.5
		c-3.3-2.4-7-3.6-11.1-3.6c-4.3,0-7.9,1.4-10.7,4.2c-2.9,2.9-4.3,6.8-4.3,11.7c0,4.9,1.4,8.8,4.1,11.9c2.7,3,6.3,4.5,10.8,4.5
		c2.6,0,4.9-0.4,6.9-1.1v-8h-8.7v-7.6h18V249.6z"/>
</g>
</svg>
